<svg width="50" height="50" viewBox="0 0 50 50" fill="none" xmlns="http://www.w3.org/2000/svg">
<g clip-path="url(#clip0)">
<path d="M47.228 28.3146C46.6975 28.2123 46.1862 28.5593 46.0842 29.0887C44.143 39.1631 35.2757 46.475 25 46.475C14.9407 46.475 6.23131 39.4678 4.04762 29.7218L4.3025 29.9766C4.49322 30.1674 4.74313 30.2628 4.99303 30.2628C5.24293 30.2628 5.49283 30.1674 5.68346 29.9767C6.0649 29.5954 6.0649 28.9771 5.68356 28.5957L3.67526 26.5873C3.49215 26.4041 3.24371 26.3011 2.98473 26.3011C2.72574 26.3011 2.47731 26.4041 2.2942 26.5873L0.285998 28.5957C-0.0953491 28.977 -0.0953491 29.5953 0.286096 29.9767C0.667346 30.3582 1.2858 30.3581 1.66715 29.9766L2.02867 29.6151C4.20807 40.5259 13.843 48.4281 25 48.4281C36.2102 48.4281 45.884 40.4502 48.0021 29.4584C48.1042 28.9288 47.7576 28.4167 47.228 28.3146Z" fill="black"/>
<path d="M49.7138 20.0228C49.3326 19.6413 48.7141 19.6414 48.3328 20.0229L47.9713 20.3844C45.7919 9.47366 36.1569 1.57141 25 1.57141C13.7897 1.57141 4.11587 9.54934 1.9978 20.5411C1.89575 21.0708 2.24233 21.5828 2.77192 21.6849C3.3022 21.7867 3.81362 21.4402 3.91567 20.9108C5.85698 10.8365 14.7243 3.52454 25 3.52454C35.0592 3.52454 43.7686 10.5317 45.9523 20.2778L45.6974 20.0229C45.3162 19.6415 44.6979 19.6414 44.3164 20.0228C43.9349 20.4041 43.9349 21.0224 44.3163 21.4038L46.3245 23.4122C46.5076 23.5954 46.756 23.6984 47.015 23.6984C47.274 23.6984 47.5224 23.5954 47.7055 23.4122L49.7137 21.4038C50.0954 21.0225 50.0954 20.4041 49.7138 20.0228Z" fill="black"/>
<path d="M24.9999 41.5072C34.1022 41.5072 41.5076 34.1019 41.5076 24.9995C41.5076 15.8972 34.1022 8.49182 24.9999 8.49182C15.8976 8.49182 8.49219 15.8972 8.49219 24.9995C8.49219 34.1019 15.8976 41.5072 24.9999 41.5072ZM24.9999 10.4449C33.0254 10.4449 39.5545 16.974 39.5545 24.9995C39.5545 33.025 33.0254 39.5541 24.9999 39.5541C16.9744 39.5541 10.4453 33.025 10.4453 24.9995C10.4453 16.974 16.9744 10.4449 24.9999 10.4449Z" fill="#40916C"/>
<path d="M26.0304 29.3046C26.1488 29.3518 26.2708 29.3741 26.3909 29.3741C26.7792 29.3741 27.1464 29.1408 27.2987 28.758L30.0013 21.9632C30.2006 21.462 29.9559 20.8942 29.4548 20.6948C28.9538 20.4956 28.3858 20.7402 28.1865 21.2414L25.4838 28.0363C25.2845 28.5374 25.5292 29.1053 26.0304 29.3046Z" fill="#40916C"/>
<path d="M31.5491 22.5787H33.7913L31.4062 28.0041C31.1891 28.4978 31.4135 29.074 31.9072 29.2911C32.0351 29.3473 32.1684 29.374 32.2998 29.374C32.6754 29.3739 33.0335 29.156 33.1942 28.7902L36.1813 21.9953C36.314 21.6932 36.2854 21.3447 36.1052 21.0685C35.9248 20.7922 35.6173 20.6257 35.2874 20.6257H31.5492C31.0099 20.6257 30.5726 21.063 30.5726 21.6023C30.5725 22.1414 31.0097 22.5787 31.5491 22.5787Z" fill="#40916C"/>
<path d="M19.0486 26.8884C19.2243 27.1859 19.544 27.3684 19.8895 27.3684H22.3044C22.3016 27.7284 22.2988 28.0732 22.2961 28.3889C22.2915 28.9283 22.725 29.3692 23.2642 29.3739H23.2728C23.8082 29.3739 24.2445 28.9422 24.2492 28.4057C24.2514 28.1502 24.2544 27.7875 24.2577 27.3633C24.7495 27.3126 25.1332 26.8971 25.1332 26.3919C25.1332 25.8911 24.7563 25.4784 24.2707 25.4219C24.2795 23.8323 24.2828 22.232 24.2629 21.9924C24.2106 21.3643 23.827 20.8504 23.2856 20.6826C22.745 20.5154 22.1765 20.7172 21.7647 21.2224C21.378 21.6968 19.7266 24.6657 19.0345 25.9201C18.8675 26.2227 18.8729 26.5908 19.0486 26.8884ZM22.3233 24.0516C22.3218 24.4734 22.3198 24.9376 22.3172 25.4153H21.5506C21.8219 24.9318 22.0857 24.4659 22.3233 24.0516Z" fill="#40916C"/>
<path d="M18.4579 29.4245C18.9971 29.4178 19.4288 28.975 19.422 28.4358C19.4154 27.9007 18.9794 27.4715 18.4458 27.4715C18.4416 27.4715 18.4375 27.4715 18.4333 27.4716C17.8986 27.4783 17.3369 27.4832 16.8293 27.4857C17.1807 27.01 17.6318 26.3867 18.2016 25.5725C18.6511 24.9303 18.945 24.3198 19.0752 23.7579C19.1073 23.6333 19.1338 23.4571 19.1341 23.2745C19.1363 21.7773 17.9161 20.5592 16.4188 20.5592C15.1243 20.5592 14.0039 21.4803 13.7544 22.7492C13.6505 23.2784 13.9952 23.7917 14.5245 23.8957C15.0541 23.9999 15.567 23.655 15.6709 23.1257C15.7408 22.7702 16.0553 22.5123 16.4188 22.5123C16.8224 22.5123 17.1537 22.8278 17.1793 23.2249L17.1623 23.3586C17.104 23.5814 16.9585 23.9423 16.6015 24.4525C15.5276 25.9868 14.887 26.8256 14.5428 27.2762C14.1015 27.854 13.8585 28.1723 14.0209 28.7008C14.1165 29.0115 14.3604 29.2593 14.6742 29.364C14.8045 29.4075 14.9089 29.4422 16.2426 29.4422C16.7663 29.4421 17.4793 29.4369 18.4579 29.4245Z" fill="#40916C"/>
</g>
<defs>
<clipPath id="clip0">
<rect width="50" height="50" fill="white"/>
</clipPath>
</defs>
</svg>
