<svg width="48" height="50" viewBox="0 0 48 50" fill="none" xmlns="http://www.w3.org/2000/svg">
<path d="M21.4044 20.4811C21.4044 20.4811 11.8763 16.7029 9.60834 9.33679" stroke="#40916C" stroke-miterlimit="10"/>
<path d="M8.86902 9.54068C9.81526 9.54068 10.5823 8.63405 10.5823 7.51567C10.5823 6.39729 9.81526 5.49066 8.86902 5.49066C7.92278 5.49066 7.1557 6.39729 7.1557 7.51567C7.1557 8.63405 7.92278 9.54068 8.86902 9.54068Z" stroke="#40916C" stroke-miterlimit="10"/>
<path d="M26.6924 20.617C26.6924 20.617 36.7505 16.7708 38.8952 9.01056" stroke="#40916C" stroke-miterlimit="10"/>
<path d="M39.4622 9.36398C40.4085 9.36398 41.1755 8.45735 41.1755 7.33897C41.1755 6.22059 40.4085 5.31396 39.4622 5.31396C38.516 5.31396 37.7489 6.22059 37.7489 7.33897C37.7489 8.45735 38.516 9.36398 39.4622 9.36398Z" stroke="#40916C" stroke-miterlimit="10"/>
<path d="M26.1747 25.197L34.0634 23.838C34.569 23.7445 35.0883 23.8504 35.5301 24.137L43.7763 29.4645" stroke="#40916C" stroke-miterlimit="10"/>
<path d="M21.996 24.7214L14.5388 23.2944C14.0118 23.1842 13.4664 23.2957 13.0103 23.607L4.24652 29.4238" stroke="#40916C" stroke-miterlimit="10"/>
<path d="M21.9344 28.0374C21.9344 28.0374 10.9766 32.3457 7.84576 43.0823" stroke="#40916C" stroke-miterlimit="10"/>
<path d="M26.8157 27.8745C26.8157 27.8745 39.0185 33.0389 41.9397 43.3814" stroke="#40916C" stroke-miterlimit="10"/>
<path d="M45.0952 31.9516C46.0415 31.9516 46.8085 31.045 46.8085 29.9266C46.8085 28.8082 46.0415 27.9016 45.0952 27.9016C44.149 27.9016 43.3819 28.8082 43.3819 29.9266C43.3819 31.045 44.149 31.9516 45.0952 31.9516Z" stroke="#40916C" stroke-miterlimit="10"/>
<path d="M2.77985 32.0332C3.72609 32.0332 4.49317 31.1265 4.49317 30.0082C4.49317 28.8898 3.72609 27.9832 2.77985 27.9832C1.83361 27.9832 1.06653 28.8898 1.06653 30.0082C1.06653 31.1265 1.83361 32.0332 2.77985 32.0332Z" stroke="#40916C" stroke-miterlimit="10"/>
<path d="M7.3158 47.214C8.26204 47.214 9.02912 46.3073 9.02912 45.1889C9.02912 44.0706 8.26204 43.1639 7.3158 43.1639C6.36956 43.1639 5.60248 44.0706 5.60248 45.1889C5.60248 46.3073 6.36956 47.214 7.3158 47.214Z" stroke="#40916C" stroke-miterlimit="10"/>
<path d="M42.6176 47.4449C43.5639 47.4449 44.3309 46.5383 44.3309 45.4199C44.3309 44.3015 43.5639 43.3949 42.6176 43.3949C41.6714 43.3949 40.9043 44.3015 40.9043 45.4199C40.9043 46.5383 41.6714 47.4449 42.6176 47.4449Z" stroke="#40916C" stroke-miterlimit="10"/>
<path d="M26.6307 6.95841C26.6307 6.95841 29.5519 5.96629 30.2052 0" stroke="#40916C" stroke-miterlimit="10"/>
<path d="M22.4151 6.95841C22.4151 6.95841 19.4939 5.96629 18.8406 0" stroke="#40916C" stroke-miterlimit="10"/>
<path d="M32.9172 33.4602L26.3967 29.3286L27.4938 28.6219V24.6806L26.5077 24.0555L27.4938 23.4167V19.4754L26.3598 18.7551L30.3657 16.1865L30.378 8.52135L24.4246 4.68878L18.4464 8.50775L18.4341 16.1729L22.4771 18.7823L21.3677 19.489L21.38 23.4303L22.3661 24.0555L21.3677 24.6942L21.38 28.6355L22.4154 29.2879L15.8333 33.5825L15.8949 44.5637L24.4615 50L32.9788 44.455L32.9172 33.4602Z" fill="url(#paint0_linear)"/>
<defs>
<linearGradient id="paint0_linear" x1="32.2639" y1="27.3444" x2="15.1184" y2="27.3444" gradientUnits="userSpaceOnUse">
<stop stop-color="#2D6A4F"/>
<stop offset="0.42" stop-color="#40916C"/>
<stop offset="1" stop-color="#52B788"/>
</linearGradient>
</defs>
</svg>
