<svg width="1920" height="1117" viewBox="0 0 1920 1117" fill="none" xmlns="http://www.w3.org/2000/svg">
<rect opacity="0.7" y="13.7542" width="1920" height="1101.85" fill="#D6D6D6"/>
<g opacity="0.5">
<ellipse cx="129.078" cy="273.064" rx="7.50623" ry="14.0574" fill="white"/>
<ellipse cx="210.146" cy="141.861" rx="7.50623" ry="14.0574" fill="white"/>
<ellipse cx="111.564" cy="995.613" rx="5.00416" ry="9.37157" fill="white"/>
<ellipse cx="1357.8" cy="943.131" rx="5.00416" ry="9.37157" fill="white"/>
<ellipse cx="727.269" cy="127.804" rx="5.00416" ry="9.37157" fill="white"/>
<ellipse cx="26.6876" cy="137.176" rx="5.00416" ry="9.37157" fill="white"/>
<ellipse cx="455.043" cy="519.537" rx="5.00416" ry="9.37157" fill="white"/>
<ellipse cx="1861.46" cy="1061.24" rx="5.00416" ry="9.37157" fill="white"/>
<ellipse cx="762.288" cy="1009.02" rx="5.00416" ry="9.37157" fill="white"/>
<ellipse cx="1020.5" cy="390.499" rx="5.00416" ry="9.37157" fill="white"/>
<ellipse cx="1606.99" cy="135.322" rx="5.00416" ry="9.37157" fill="white"/>
<path d="M134.333 263.458L204.891 150.999" stroke="white"/>
<ellipse rx="8.01654" ry="13.7727" transform="matrix(0.909712 0.415239 -0.129058 0.991637 856.589 1074.14)" fill="white"/>
<ellipse rx="8.01654" ry="13.7727" transform="matrix(0.909712 0.415239 -0.129058 0.991637 951.94 982.616)" fill="white"/>
<path d="M862.908 1067.13L945.679 989.165" stroke="white"/>
<ellipse rx="13.826" ry="7.92438" transform="matrix(0.116028 0.993246 -0.925349 0.379117 1666.78 914.858)" fill="white"/>
<ellipse rx="11.5076" ry="11.024" transform="matrix(0.443095 0.896475 -0.499688 0.866205 1806.51 95.5633)" fill="white"/>
<ellipse rx="11.5076" ry="11.024" transform="matrix(0.443095 0.896475 -0.499688 0.866205 1833.9 182.818)" fill="white"/>
<ellipse rx="8.03058" ry="10.7384" transform="matrix(0.761436 0.64824 -0.207016 0.978337 688.842 664.384)" fill="white"/>
<ellipse rx="13.826" ry="7.92438" transform="matrix(0.116028 0.993246 -0.925349 0.379117 1752.54 1035.13)" fill="white"/>
<ellipse rx="8.03058" ry="10.7384" transform="matrix(0.761436 0.64824 -0.207016 0.978337 775.63 622.553)" fill="white"/>
<path d="M1672.91 922.419L1746.65 1027.47" stroke="white"/>
<ellipse rx="7.98104" ry="13.7933" transform="matrix(0.915703 0.401855 -0.124159 0.992262 1253.86 268.12)" fill="white"/>
<path d="M1355.63 178.021C1355.16 181.729 1353.94 184.709 1352.37 186.538C1350.78 188.377 1348.91 188.989 1347.13 188.205C1345.34 187.422 1343.81 185.315 1342.82 182.35C1341.85 179.402 1341.46 175.717 1341.93 172.009C1342.39 168.301 1343.61 165.32 1345.18 163.492C1346.77 161.653 1348.64 161.041 1350.43 161.824C1352.21 162.608 1353.75 164.715 1354.73 167.679C1355.7 170.628 1356.09 174.313 1355.63 178.021Z" stroke="white"/>
<path d="M1865.87 565.021C1865.57 567.469 1864.76 569.428 1863.73 570.625C1862.69 571.831 1861.49 572.2 1860.38 571.712C1859.26 571.223 1858.28 569.894 1857.63 567.949C1856.99 566.02 1856.74 563.594 1857.04 561.146C1857.35 558.698 1858.15 556.739 1859.18 555.542C1860.22 554.335 1861.42 553.967 1862.54 554.455C1863.65 554.944 1864.64 556.273 1865.28 558.218C1865.92 560.147 1866.18 562.572 1865.87 565.021Z" stroke="white"/>
<path d="M1061.94 1037.07C1061.63 1039.52 1060.83 1041.48 1059.8 1042.67C1058.76 1043.88 1057.56 1044.25 1056.45 1043.76C1055.33 1043.27 1054.34 1041.94 1053.7 1040C1053.06 1038.07 1052.8 1035.64 1053.11 1033.19C1053.42 1030.75 1054.22 1028.79 1055.25 1027.59C1056.29 1026.38 1057.49 1026.01 1058.6 1026.5C1059.72 1026.99 1060.71 1028.32 1061.35 1030.27C1061.99 1032.2 1062.25 1034.62 1061.94 1037.07Z" stroke="white"/>
<path d="M448.44 122.755C448.133 125.203 447.328 127.163 446.298 128.359C445.259 129.566 444.059 129.935 442.946 129.446C441.833 128.958 440.844 127.629 440.2 125.683C439.561 123.754 439.305 121.329 439.611 118.881C439.917 116.432 440.722 114.473 441.753 113.277C442.791 112.07 443.992 111.701 445.105 112.19C446.218 112.678 447.206 114.007 447.85 115.952C448.489 117.882 448.746 120.307 448.44 122.755Z" stroke="white"/>
<path d="M66.1221 647.187C65.8157 649.635 65.0106 651.595 63.9804 652.791C62.9417 653.998 61.7412 654.367 60.6281 653.878C59.515 653.39 58.527 652.061 57.8827 650.115C57.2437 648.186 56.9871 645.761 57.2934 643.313C57.5998 640.864 58.4049 638.905 59.4351 637.708C60.4738 636.502 61.6743 636.133 62.7874 636.622C63.9005 637.11 64.8885 638.439 65.5328 640.384C66.1719 642.314 66.4284 644.739 66.1221 647.187Z" stroke="white"/>
<path d="M742.702 268.015C742.395 270.463 741.59 272.422 740.56 273.619C739.521 274.826 738.321 275.194 737.208 274.706C736.095 274.217 735.107 272.888 734.462 270.943C733.823 269.014 733.567 266.589 733.873 264.14C734.179 261.692 734.985 259.733 736.015 258.536C737.054 257.329 738.254 256.961 739.367 257.449C740.48 257.938 741.468 259.267 742.113 261.212C742.752 263.141 743.008 265.566 742.702 268.015Z" stroke="white"/>
<path d="M368.391 871.545C368.085 873.993 367.279 875.952 366.249 877.149C365.211 878.356 364.01 878.725 362.897 878.236C361.784 877.748 360.796 876.418 360.151 874.473C359.512 872.544 359.256 870.119 359.562 867.671C359.869 865.222 360.674 863.263 361.704 862.066C362.743 860.86 363.943 860.491 365.056 860.979C366.169 861.468 367.157 862.797 367.802 864.742C368.441 866.672 368.697 869.097 368.391 871.545Z" stroke="white"/>
<path d="M560.551 1107.67C560.244 1110.12 559.439 1112.08 558.409 1113.28C557.37 1114.49 556.17 1114.85 555.057 1114.37C553.944 1113.88 552.955 1112.55 552.311 1110.6C551.672 1108.67 551.416 1106.25 551.722 1103.8C552.028 1101.35 552.833 1099.39 553.864 1098.2C554.902 1096.99 556.103 1096.62 557.216 1097.11C558.329 1097.6 559.317 1098.93 559.961 1100.87C560.6 1102.8 560.857 1105.23 560.551 1107.67Z" stroke="white"/>
<path d="M1107.15 167.044C1106.84 169.493 1106.04 171.452 1105.01 172.648C1103.97 173.855 1102.77 174.224 1101.65 173.735C1100.54 173.247 1099.55 171.918 1098.91 169.972C1098.27 168.043 1098.01 165.618 1098.32 163.17C1098.63 160.722 1099.43 158.762 1100.46 157.566C1101.5 156.359 1102.7 155.99 1103.81 156.479C1104.93 156.967 1105.91 158.296 1106.56 160.242C1107.2 162.171 1107.45 164.596 1107.15 167.044Z" stroke="white"/>
<path d="M1499.47 722.984C1499.17 725.432 1498.36 727.391 1497.33 728.588C1496.29 729.795 1495.09 730.163 1493.98 729.675C1492.87 729.186 1491.88 727.857 1491.23 725.912C1490.6 723.983 1490.34 721.558 1490.65 719.109C1490.95 716.661 1491.76 714.702 1492.79 713.505C1493.83 712.298 1495.03 711.93 1496.14 712.418C1497.25 712.907 1498.24 714.236 1498.89 716.181C1499.52 718.11 1499.78 720.535 1499.47 722.984Z" stroke="white"/>
<path d="M1579.54 999.699C1579.23 1002.15 1578.43 1004.11 1577.4 1005.3C1576.36 1006.51 1575.16 1006.88 1574.05 1006.39C1572.93 1005.9 1571.95 1004.57 1571.3 1002.63C1570.66 1000.7 1570.41 998.273 1570.71 995.824C1571.02 993.376 1571.82 991.417 1572.85 990.22C1573.89 989.014 1575.09 988.645 1576.21 989.133C1577.32 989.622 1578.31 990.951 1578.95 992.896C1579.59 994.825 1579.85 997.251 1579.54 999.699Z" stroke="white"/>
<path d="M1260.15 261.012L1342.55 181.667" stroke="white"/>
<ellipse rx="13.9843" ry="7.64149" transform="matrix(0.0646419 -0.997909 0.975151 0.221543 68.1413 1071.97)" fill="white"/>
<path d="M9.2257 891.999C11.0218 892.407 12.666 894.171 13.8191 896.927C14.9635 899.662 15.5638 903.252 15.3187 907.038C15.0737 910.825 14.0328 914.042 12.5727 916.184C11.1015 918.343 9.2799 919.32 7.48382 918.911C5.68774 918.503 4.04353 916.739 2.89038 913.983C1.74599 911.248 1.14572 907.658 1.39079 903.871C1.63586 900.085 2.67668 896.868 4.13677 894.726C5.60804 892.566 7.42962 891.59 9.2257 891.999Z" stroke="white"/>
<path d="M63.682 1061.04L12.5665 916.324" stroke="white"/>
<path d="M694.642 660.849L769.905 625.737" stroke="white"/>
<path d="M1812.66 88.9744L1867.02 29.1351" stroke="white"/>
<path d="M1839.54 174.614L1893.9 114.775" stroke="white"/>
<path d="M1866.46 29.2073L1906.31 42.4154L1893.47 115.25" stroke="white"/>
</g>
</svg>
