<svg width="48" height="50" viewBox="0 0 48 50" fill="none" xmlns="http://www.w3.org/2000/svg">
<path d="M15.4385 35.5957L8.54102 29.2428C8.31365 29.0193 8.04311 28.8444 7.74592 28.729C7.44873 28.6135 7.13113 28.5598 6.8125 28.5712V21.875C6.8118 21.2536 6.56465 20.6579 6.12526 20.2185C5.68588 19.7791 5.09014 19.5319 4.46875 19.5312H2.90625C2.28487 19.532 1.68915 19.7791 1.24977 20.2185C0.810389 20.6579 0.563226 21.2536 0.562502 21.875V39.1084C0.561629 39.7227 0.802686 40.3125 1.2335 40.7504L6.58838 46.1863C6.73285 46.3321 6.81362 46.5292 6.81299 46.7345V48.4375C6.81299 48.6447 6.8953 48.8434 7.04181 48.9899C7.18833 49.1364 7.38704 49.2188 7.59424 49.2188H15.4067C15.6139 49.2188 15.8127 49.1364 15.9592 48.9899C16.1057 48.8434 16.188 48.6447 16.188 48.4375V40.6267L16.1948 37.3239C16.1952 36.9992 16.1282 36.6779 15.998 36.3804C15.8679 36.0829 15.6773 35.8157 15.4385 35.5957ZM14.6318 37.3211L14.625 40.625V47.6562H8.375V46.7345C8.37681 46.1186 8.13452 45.5271 7.70117 45.0895L2.34893 39.6562C2.20525 39.5101 2.12481 39.3133 2.125 39.1084V21.875C2.12524 21.6679 2.20762 21.4693 2.35408 21.3228C2.50054 21.1764 2.69912 21.094 2.90625 21.0938H4.46875C4.67588 21.094 4.87446 21.1764 5.02092 21.3228C5.16739 21.4693 5.24977 21.6679 5.25 21.875V29.2448C5.24639 29.2484 5.24219 29.2516 5.23858 29.2552L4.13408 30.3597C3.9164 30.5773 3.74373 30.8357 3.62592 31.1201C3.50811 31.4045 3.44748 31.7093 3.44748 32.0171C3.44748 32.3249 3.50811 32.6297 3.62592 32.9141C3.74373 33.1985 3.9164 33.4569 4.13408 33.6745L9.10576 38.6462C9.25228 38.7927 9.45102 38.8751 9.65825 38.8751C9.76086 38.8751 9.86247 38.8549 9.95727 38.8157C10.0521 38.7764 10.1382 38.7189 10.2108 38.6463C10.2834 38.5738 10.3409 38.4877 10.3802 38.3929C10.4195 38.2981 10.4397 38.1965 10.4397 38.0939C10.4397 37.9912 10.4195 37.8896 10.3803 37.7948C10.341 37.7 10.2835 37.6139 10.2109 37.5413L5.23926 32.5696C5.09292 32.423 5.01073 32.2243 5.01073 32.0171C5.01073 31.8099 5.09292 31.6112 5.23926 31.4646L6.34375 30.36C6.41609 30.287 6.50216 30.2292 6.59697 30.1897C6.69179 30.1502 6.79348 30.1299 6.89619 30.1299C6.99891 30.1299 7.1006 30.1502 7.19542 30.1897C7.29023 30.2292 7.37629 30.287 7.44864 30.36C7.45612 30.3676 7.46384 30.375 7.47178 30.3822L14.3809 36.7453C14.4603 36.8186 14.5236 36.9075 14.5668 37.0065C14.61 37.1056 14.6322 37.2125 14.6319 37.3205L14.6318 37.3211Z" fill="black"/>
<path d="M45.1006 19.5312H43.5381C42.9167 19.5319 42.321 19.7791 41.8816 20.2185C41.4422 20.6579 41.195 21.2536 41.1943 21.875V28.5712C40.8757 28.5597 40.5581 28.6133 40.2609 28.7287C39.9636 28.8442 39.6931 29.0191 39.4658 29.2427L32.569 35.5944C32.33 35.8146 32.1393 36.0821 32.0091 36.3799C31.8789 36.6776 31.8119 36.9992 31.8125 37.3242L31.8193 40.625V48.4375C31.8193 48.6447 31.9016 48.8434 32.0482 48.9899C32.1947 49.1364 32.3934 49.2188 32.6006 49.2188H40.4131C40.6203 49.2188 40.819 49.1364 40.9655 48.9899C41.112 48.8434 41.1943 48.6447 41.1943 48.4375V46.7344C41.1948 46.5293 41.2754 46.3325 41.419 46.1859L46.7757 40.748C47.2053 40.3105 47.4455 39.7216 47.4444 39.1084V21.875C47.4437 21.2536 47.1965 20.6579 46.7571 20.2185C46.3177 19.7791 45.722 19.5319 45.1006 19.5312ZM45.8819 39.1084C45.8822 39.3122 45.8027 39.5081 45.6603 39.6539L40.3063 45.0891C39.8726 45.5267 39.6301 46.1183 39.6318 46.7344V47.6562H33.3818V40.6233L33.375 37.3206C33.3747 37.2123 33.397 37.1052 33.4403 37.006C33.4837 36.9068 33.5473 36.8177 33.627 36.7444L40.5352 30.382C40.543 30.3748 40.5507 30.3674 40.5583 30.3599C40.6307 30.287 40.7168 30.2291 40.8116 30.1896C40.9065 30.1501 41.0082 30.1298 41.1109 30.1298C41.2136 30.1298 41.3154 30.1501 41.4102 30.1896C41.505 30.2291 41.5911 30.287 41.6635 30.3599L42.768 31.4643C42.9143 31.6109 42.9964 31.8096 42.9964 32.0168C42.9964 32.224 42.9143 32.4227 42.768 32.5693L37.7962 37.541C37.6497 37.6875 37.5674 37.8863 37.5674 38.0935C37.5674 38.3007 37.6497 38.4994 37.7962 38.6459C37.9427 38.7924 38.1414 38.8747 38.3486 38.8747C38.5558 38.8747 38.7546 38.7924 38.9011 38.6459L43.8728 33.6742C44.0904 33.4566 44.2631 33.1982 44.3809 32.9138C44.4987 32.6294 44.5594 32.3246 44.5594 32.0168C44.5594 31.709 44.4987 31.4042 44.3809 31.1198C44.2631 30.8354 44.0904 30.577 43.8728 30.3594L42.7685 29.2551C42.7648 29.2515 42.7606 29.2482 42.7569 29.2446V21.875C42.7571 21.6679 42.8395 21.4693 42.9859 21.3228C43.1324 21.1764 43.331 21.094 43.5381 21.0938H45.1006C45.3077 21.094 45.5063 21.1764 45.6528 21.3228C45.7992 21.4693 45.8816 21.6679 45.8819 21.875V39.1084Z" fill="black"/>
<path d="M31.9971 1.9707C29.8486 1.2041 27.0088 0.78125 24 0.78125C20.9912 0.78125 18.1514 1.2041 16.0029 1.9707C12.9268 3.06934 12.2812 4.47949 12.2812 5.46875V30.4688C12.2812 32.2607 14.3057 33.3604 16.0029 33.9668C18.1514 34.7334 20.9912 35.1562 24 35.1562C27.0088 35.1562 29.8486 34.7334 31.9971 33.9668C33.6943 33.3604 35.7188 32.2607 35.7188 30.4688V5.46875C35.7188 4.47949 35.0732 3.06934 31.9971 1.9707ZM34.1562 30.4688C34.1562 30.9844 33.4512 31.7881 31.4717 32.4951C29.4873 33.2031 26.834 33.5938 24 33.5938C21.166 33.5938 18.5127 33.2031 16.5283 32.4951C14.5488 31.7881 13.8438 30.9844 13.8438 30.4688V26.6631C14.5154 27.1053 15.2411 27.4594 16.0029 27.7168C18.1514 28.4834 20.9912 28.9062 24 28.9062C27.0088 28.9062 29.8486 28.4834 31.9971 27.7168C32.7589 27.4594 33.4846 27.1053 34.1562 26.6631V30.4688ZM34.1562 24.2188C34.1562 24.7344 33.4512 25.5381 31.4717 26.2451C29.4873 26.9531 26.834 27.3438 24 27.3438C17.7998 27.3438 13.8438 25.4932 13.8438 24.2188V20.4131C14.5154 20.8553 15.2411 21.2094 16.0029 21.4668C18.1514 22.2334 20.9912 22.6562 24 22.6562C27.0088 22.6562 29.8486 22.2334 31.9971 21.4668C32.7589 21.2094 33.4846 20.8553 34.1562 20.4131V24.2188ZM34.1562 17.9688C34.1562 18.4844 33.4512 19.2881 31.4717 19.9951C29.4873 20.7031 26.834 21.0938 24 21.0938C17.7998 21.0938 13.8438 19.2432 13.8438 17.9688V14.1631C14.5154 14.6053 15.2411 14.9594 16.0029 15.2168C18.1514 15.9834 20.9912 16.4062 24 16.4062C27.0088 16.4062 29.8486 15.9834 31.9971 15.2168C32.7589 14.9594 33.4846 14.6053 34.1562 14.1631V17.9688ZM34.1562 11.7188C34.1562 12.2344 33.4512 13.0381 31.4717 13.7451C29.4873 14.4531 26.834 14.8438 24 14.8438C17.7998 14.8438 13.8438 12.9932 13.8438 11.7188V7.91309C14.5154 8.35526 15.2411 8.70939 16.0029 8.9668C18.1514 9.7334 20.9912 10.1562 24 10.1562C27.0088 10.1562 29.8486 9.7334 31.9971 8.9668C32.7589 8.70939 33.4846 8.35526 34.1562 7.91309V11.7188ZM31.4717 7.49512C29.4873 8.20312 26.834 8.59375 24 8.59375C17.7998 8.59375 13.8438 6.74316 13.8438 5.46875C13.8438 4.95312 14.5488 4.14941 16.5283 3.44238C18.5127 2.73438 21.166 2.34375 24 2.34375C30.2002 2.34375 34.1562 4.19434 34.1562 5.46875C34.1562 5.98438 33.4512 6.78809 31.4717 7.49512Z" fill="#40916C"/>
<path d="M16.1875 11.7188C16.619 11.7188 16.9688 11.369 16.9688 10.9375C16.9688 10.506 16.619 10.1562 16.1875 10.1562C15.756 10.1562 15.4062 10.506 15.4062 10.9375C15.4062 11.369 15.756 11.7188 16.1875 11.7188Z" fill="#40916C"/>
<path d="M16.1875 17.9688C16.619 17.9688 16.9688 17.619 16.9688 17.1875C16.9688 16.756 16.619 16.4062 16.1875 16.4062C15.756 16.4062 15.4062 16.756 15.4062 17.1875C15.4062 17.619 15.756 17.9688 16.1875 17.9688Z" fill="#40916C"/>
<path d="M16.1875 24.2188C16.619 24.2188 16.9688 23.869 16.9688 23.4375C16.9688 23.006 16.619 22.6562 16.1875 22.6562C15.756 22.6562 15.4062 23.006 15.4062 23.4375C15.4062 23.869 15.756 24.2188 16.1875 24.2188Z" fill="#40916C"/>
<path d="M16.1875 30.4688C16.619 30.4688 16.9688 30.119 16.9688 29.6875C16.9688 29.256 16.619 28.9062 16.1875 28.9062C15.756 28.9062 15.4062 29.256 15.4062 29.6875C15.4062 30.119 15.756 30.4688 16.1875 30.4688Z" fill="#40916C"/>
<path d="M21.8851 6.80222C21.9576 6.87477 22.0438 6.93232 22.1385 6.97158C22.2333 7.01085 22.3349 7.03105 22.4375 7.03105C22.5401 7.03105 22.6417 7.01085 22.7365 6.97158C22.8313 6.93232 22.9174 6.87477 22.99 6.80222L25.3337 4.45847C25.4063 4.38592 25.4638 4.29979 25.5031 4.20501C25.5424 4.11022 25.5626 4.00862 25.5626 3.90603C25.5626 3.80343 25.5424 3.70183 25.5031 3.60705C25.4638 3.51226 25.4063 3.42613 25.3337 3.35358C25.2612 3.28104 25.1751 3.22349 25.0803 3.18423C24.9855 3.14496 24.8839 3.12476 24.7813 3.12476C24.6787 3.12476 24.5771 3.14496 24.4823 3.18423C24.3875 3.22349 24.3014 3.28104 24.2288 3.35358L21.8851 5.69733C21.8125 5.76988 21.755 5.85601 21.7157 5.9508C21.6765 6.04558 21.6562 6.14718 21.6562 6.24978C21.6562 6.35237 21.6765 6.45397 21.7157 6.54876C21.755 6.64355 21.8125 6.72967 21.8851 6.80222Z" fill="#40916C"/>
<path d="M20.0938 6.24978C20.1964 6.24991 20.298 6.22976 20.3928 6.1905C20.4876 6.15123 20.5737 6.09362 20.6462 6.02097L22.2087 4.45847C22.2813 4.38592 22.3388 4.29979 22.3781 4.20501C22.4173 4.11022 22.4375 4.00862 22.4375 3.90603C22.4375 3.80343 22.4173 3.70183 22.3781 3.60705C22.3388 3.51226 22.2813 3.42613 22.2087 3.35358C22.1362 3.28104 22.05 3.22349 21.9553 3.18423C21.8605 3.14496 21.7589 3.12476 21.6563 3.12476C21.5537 3.12476 21.4521 3.14496 21.3573 3.18423C21.2625 3.22349 21.1764 3.28104 21.1038 3.35358L19.5413 4.91608C19.4321 5.02534 19.3577 5.16455 19.3275 5.3161C19.2974 5.46766 19.3128 5.62474 19.372 5.7675C19.4311 5.91026 19.5312 6.03228 19.6597 6.11812C19.7882 6.20396 19.9393 6.24978 20.0938 6.24978Z" fill="#40916C"/>
<path d="M25.0101 6.80222C25.0826 6.87477 25.1688 6.93232 25.2635 6.97158C25.3583 7.01085 25.4599 7.03105 25.5625 7.03105C25.6651 7.03105 25.7667 7.01085 25.8615 6.97158C25.9563 6.93232 26.0424 6.87477 26.115 6.80222L26.8962 6.02097C27.0427 5.87445 27.125 5.67573 27.125 5.46853C27.125 5.26132 27.0427 5.0626 26.8962 4.91608C26.7497 4.76957 26.551 4.68726 26.3438 4.68726C26.1366 4.68726 25.9379 4.76957 25.7913 4.91608L25.0101 5.69733C24.9375 5.76988 24.88 5.85601 24.8407 5.9508C24.8015 6.04558 24.7812 6.14718 24.7812 6.24978C24.7812 6.35237 24.8015 6.45397 24.8407 6.54876C24.88 6.64355 24.9375 6.72967 25.0101 6.80222Z" fill="#40916C"/>
</svg>
