<svg width="50" height="50" viewBox="0 0 50 50" fill="none" xmlns="http://www.w3.org/2000/svg">
<g clip-path="url(#clip0)">
<path d="M43.6694 6.50206H43.0762C44.207 4.66099 43.7894 2.18926 41.9745 0.842702C40.019 -0.60805 37.24 -0.141068 35.8753 1.89835L32.7947 6.50216H6.33068C4.15543 6.50216 2.38574 8.27185 2.38574 10.4471V35.6687C2.38574 37.8439 4.15543 39.6136 6.33068 39.6136H21.654L20.4962 44.4765H17.9973C16.3688 44.4765 15.0438 45.8014 15.0438 47.43V48.0467H11.9633C11.4239 48.0467 10.9867 48.484 10.9867 49.0232C10.9867 49.5625 11.4239 49.9997 11.9633 49.9997H38.0369C38.5762 49.9997 39.0134 49.5625 39.0134 49.0232C39.0134 48.484 38.5762 48.0467 38.0369 48.0467H34.9564V47.43C34.9564 45.8014 33.6314 44.4765 32.0028 44.4765H29.504L28.3462 39.6136H43.6695C45.8448 39.6136 47.6144 37.8439 47.6144 35.6687V30.119V10.447C47.6144 8.27176 45.8448 6.50206 43.6694 6.50206ZM29.6773 23.6696C28.1505 24.7384 25.2901 23.2856 22.5585 24.7432C21.892 21.2809 22.3122 18.0246 25.7814 17.3059C26.2297 17.2124 26.7124 17.1701 27.1233 17.1783C28.2975 18.0495 29.4852 18.9306 30.6561 19.7995C31.1687 21.2904 30.9763 22.7603 29.6773 23.6696ZM30.6615 13.2022L33.4258 15.2532L31.2999 17.845C30.4247 17.1957 29.6724 16.6375 28.7972 15.9881C28.979 15.7165 30.4953 13.4504 30.6615 13.2022ZM37.4986 2.98456C38.2383 1.87901 39.7467 1.62179 40.8108 2.41132C41.8752 3.20096 42.0658 4.71909 41.2224 5.74749C39.7258 7.57197 36.1679 11.9099 34.6657 13.7414L31.7487 11.5772L37.4986 2.98456ZM33.0032 47.43V48.0467H16.9969V47.43C16.9969 46.8784 17.4457 46.4296 17.9973 46.4296H32.0027C32.5544 46.4296 33.0032 46.8784 33.0032 47.43ZM27.4962 44.4765H22.5039L23.6617 39.6136H26.3384L27.4962 44.4765ZM45.6614 35.6687C45.6614 36.767 44.7678 37.6605 43.6695 37.6605C42.1193 37.6605 8.07372 37.6605 6.33078 37.6605C5.23246 37.6605 4.33893 36.767 4.33893 35.6687V31.0955H7.1295C7.66884 31.0955 8.10604 30.6582 8.10604 30.119C8.10604 29.5797 7.66884 29.1424 7.1295 29.1424H4.33873V10.447C4.33873 9.34869 5.23227 8.45515 6.33059 8.45515H31.4878C30.5523 9.85327 27.8229 13.9321 26.9584 15.224C25.0447 15.2412 23.1341 15.9079 21.8833 17.3681C20.1813 19.3548 19.8823 22.4767 20.9946 26.6467C21.1847 27.3598 22.0744 27.6152 22.6128 27.101C25.1378 24.6882 28.2827 27.32 31.099 25.0406C32.8181 23.649 33.2249 21.4367 32.5767 19.368C33.4529 18.2997 40.6492 9.52603 41.5275 8.45515H43.6693C44.7676 8.45515 45.6612 9.34869 45.6612 10.447V29.1423H14.9416C14.4023 29.1423 13.9651 29.5796 13.9651 30.1189C13.9651 30.6581 14.4023 31.0954 14.9416 31.0954H45.6614V35.6687Z" fill="black"/>
<path d="M10.8469 29.1614C10.3768 29.2575 10.0618 29.6639 10.0618 30.1196C10.0618 30.7304 10.6203 31.1982 11.2288 31.0766C11.7695 30.9668 12.0989 30.4457 11.9954 29.9281C11.8867 29.394 11.3685 29.0565 10.8469 29.1614Z" fill="black"/>
<path d="M31.5001 19.5001L27 16.4999C24 15.9997 22.0508 17.9923 21.5 20.4999C20.8672 23.3813 21.8637 26.6816 22 26.4999C23.2 24.8998 26.5 24.9999 28.0001 25.0001C32 25.0008 32.5 20.9999 31.5001 19.5001Z" stroke="#40916C" stroke-width="2.1"/>
<path d="M27.5 16.0001L30.3475 11.8039M31.5 19L34.7593 15M30.3475 11.8039L37 2.00023C37.6667 1.33356 39.4 0.300058 41 1.5C42.6 2.69996 43 3.50003 42.5 5.49995L34.7593 15M30.3475 11.8039L34.7593 15" stroke="#40916C" stroke-width="2"/>
<path d="M32 18L27.5 15" stroke="#40916C"/>
</g>
<defs>
<clipPath id="clip0">
<rect width="50" height="50" fill="white"/>
</clipPath>
</defs>
</svg>
