<svg width="82" height="82" viewBox="0 0 82 82" fill="none" xmlns="http://www.w3.org/2000/svg">
<g filter="url(#filter0_d)">
<path d="M12.4943 22.82C13.2307 22.82 13.8277 22.223 13.8277 21.4867C13.8277 20.7503 13.2307 20.1533 12.4943 20.1533C11.758 20.1533 11.161 20.7503 11.161 21.4867C11.161 22.223 11.758 22.82 12.4943 22.82Z" fill="white"/>
<path d="M21.3877 22.82C22.124 22.82 22.721 22.223 22.721 21.4867C22.721 20.7503 22.124 20.1533 21.3877 20.1533C20.6513 20.1533 20.0543 20.7503 20.0543 21.4867C20.0543 22.223 20.6513 22.82 21.3877 22.82Z" fill="white"/>
<path d="M16.9477 22.82C17.6841 22.82 18.281 22.223 18.281 21.4867C18.281 20.7503 17.6841 20.1533 16.9477 20.1533C16.2113 20.1533 15.6144 20.7503 15.6144 21.4867C15.6144 22.223 16.2113 22.82 16.9477 22.82Z" fill="white"/>
<path d="M26.721 40.8333L30.721 36.8333C30.9721 36.5822 31.1132 36.2417 31.1132 35.8866C31.1132 35.5316 30.9721 35.191 30.721 34.94C30.47 34.6889 30.1294 34.5479 29.7744 34.5479C29.4193 34.5479 29.0788 34.6889 28.8277 34.94L23.8677 39.9133C23.6194 40.1631 23.48 40.5011 23.48 40.8533C23.48 41.2056 23.6194 41.5435 23.8677 41.7933L28.8277 46.7666C28.9517 46.8916 29.0991 46.9908 29.2616 47.0585C29.4241 47.1262 29.5984 47.161 29.7744 47.161C29.9504 47.161 30.1247 47.1262 30.2871 47.0585C30.4496 46.9908 30.5971 46.8916 30.721 46.7666C30.9694 46.5168 31.1088 46.1789 31.1088 45.8266C31.1088 45.4744 30.9694 45.1365 30.721 44.8866L26.721 40.8333Z" fill="white"/>
<path d="M45.8145 46.7401C46.0643 46.9884 46.4022 47.1278 46.7545 47.1278C47.1067 47.1278 47.4447 46.9884 47.6945 46.7401L52.6678 41.8334C52.9162 41.5836 53.0556 41.2456 53.0556 40.8934C53.0556 40.5412 52.9162 40.2032 52.6678 39.9534L47.6945 34.9801C47.4434 34.7308 47.1036 34.5914 46.7498 34.5927C46.396 34.5939 46.0571 34.7357 45.8078 34.9867C45.5585 35.2378 45.4192 35.5776 45.4204 35.9314C45.4217 36.2853 45.5634 36.6241 45.8145 36.8734L49.8145 40.8734L45.8145 44.8734C45.5702 45.1226 45.4333 45.4577 45.4333 45.8067C45.4333 46.1557 45.5702 46.4908 45.8145 46.7401Z" fill="white"/>
<path d="M41.3876 35.3666C41.2355 35.2785 41.0673 35.2213 40.893 35.1984C40.7186 35.1755 40.5414 35.1873 40.3716 35.2331C40.2018 35.279 40.0428 35.358 39.9037 35.4656C39.7646 35.5731 39.6481 35.7072 39.561 35.86L34.641 44.5C34.5445 44.6517 34.4797 44.8214 34.4505 44.9989C34.4214 45.1763 34.4284 45.3578 34.4711 45.5325C34.5139 45.7071 34.5916 45.8713 34.6995 46.0152C34.8074 46.1591 34.9432 46.2796 35.0989 46.3696C35.2546 46.4596 35.4269 46.5172 35.6054 46.5389C35.7839 46.5605 35.965 46.5459 36.1377 46.4958C36.3104 46.4457 36.4712 46.3612 36.6104 46.2473C36.7496 46.1335 36.8643 45.9926 36.9476 45.8333L41.921 37.2333C42.014 37.0771 42.0741 36.9035 42.0976 36.7231C42.121 36.5428 42.1074 36.3596 42.0574 36.1848C42.0075 36.0099 41.9223 35.8472 41.8071 35.7065C41.6919 35.5658 41.5492 35.4501 41.3876 35.3666Z" fill="white"/>
<path d="M74.5343 53.8333C74.4556 53.8327 74.379 53.8082 74.3147 53.7629C74.2504 53.7176 74.2014 53.6538 74.1743 53.58C73.6437 52.1843 72.8919 50.8832 71.9476 49.7267C71.9029 49.662 71.8789 49.5853 71.8789 49.5067C71.8789 49.428 71.9029 49.3513 71.9476 49.2867C72.3537 48.5828 72.4638 47.7466 72.2538 46.9616C72.0439 46.1766 71.5309 45.5071 70.8276 45.1L69.8276 44.5V20.1533C69.8276 19.0925 69.4062 18.075 68.656 17.3249C67.9059 16.5747 66.8885 16.1533 65.8276 16.1533H10.7209C9.66008 16.1533 8.64267 16.5747 7.89252 17.3249C7.14237 18.075 6.72095 19.0925 6.72095 20.1533V53.94C6.72446 54.7628 7.05289 55.551 7.63475 56.1329C8.2166 56.7147 9.00476 57.0431 9.82761 57.0467H28.0543L26.7209 61.98H24.9476C23.6489 61.9809 22.3885 62.4196 21.3699 63.2252C20.3514 64.0309 19.6342 65.1564 19.3343 66.42H16.0543C15.7007 66.42 15.3615 66.5605 15.1115 66.8105C14.8614 67.0606 14.7209 67.3997 14.7209 67.7533C14.7209 68.1069 14.8614 68.4461 15.1115 68.6961C15.3615 68.9462 15.7007 69.0867 16.0543 69.0867H50.0143C49.9917 69.4052 50.0233 69.7253 50.1076 70.0333C50.2076 70.4245 50.3855 70.7914 50.6306 71.1121C50.8758 71.4329 51.1831 71.7008 51.5343 71.9L54.3476 73.5267C54.6969 73.7272 55.0823 73.8569 55.4818 73.9085C55.8812 73.9601 56.2869 73.9324 56.6757 73.8272C57.0645 73.722 57.4287 73.5412 57.7476 73.2951C58.0665 73.0491 58.3338 72.7427 58.5343 72.3933C58.5775 72.3253 58.6396 72.2714 58.7131 72.2382C58.7865 72.2051 58.868 72.1941 58.9476 72.2067C60.4123 72.46 61.9096 72.46 63.3743 72.2067C63.4554 72.1935 63.5386 72.2057 63.6125 72.2414C63.6865 72.2772 63.7476 72.3349 63.7876 72.4067C64.0594 72.872 64.4489 73.2575 64.9171 73.5243C65.3852 73.7911 65.9154 73.9299 66.4543 73.9267C66.9918 73.9319 67.5211 73.7938 67.9876 73.5267L70.8009 71.9C71.1502 71.6985 71.4561 71.4298 71.701 71.1094C71.9459 70.789 72.1249 70.4233 72.2276 70.0333C72.3338 69.6457 72.3614 69.2408 72.3087 68.8423C72.256 68.4439 72.1242 68.06 71.921 67.7133C71.8751 67.6466 71.8505 67.5676 71.8505 67.4867C71.8505 67.4057 71.8751 67.3267 71.921 67.26C72.8623 66.1063 73.6139 64.8101 74.1476 63.42C74.173 63.3451 74.2216 63.2802 74.2863 63.2346C74.351 63.1891 74.4285 63.1653 74.5076 63.1667C75.3199 63.1632 76.0978 62.8389 76.6722 62.2646C77.2466 61.6902 77.5708 60.9122 77.5743 60.1V56.8467C77.5604 56.0472 77.2348 55.2848 76.667 54.7219C76.0991 54.159 75.3338 53.8402 74.5343 53.8333ZM9.38761 20.1533C9.38761 19.7997 9.52809 19.4606 9.77814 19.2105C10.0282 18.9605 10.3673 18.82 10.7209 18.82H65.8276C66.1812 18.82 66.5204 18.9605 66.7704 19.2105C67.0205 19.4606 67.1609 19.7997 67.1609 20.1533V24.1533H9.38761V20.1533ZM9.82761 54.38C9.76983 54.38 9.71262 54.3686 9.65923 54.3465C9.60585 54.3244 9.55734 54.292 9.51649 54.2511C9.47563 54.2103 9.44322 54.1618 9.42111 54.1084C9.39899 54.055 9.38761 53.9978 9.38761 53.94V26.82H67.1609V43.1667C66.53 42.9991 65.862 43.0381 65.2548 43.2781C64.6477 43.5181 64.1335 43.9463 63.7876 44.5C63.7461 44.5658 63.6857 44.6175 63.6144 44.6484C63.543 44.6793 63.464 44.688 63.3876 44.6733C61.9218 44.4332 60.4267 44.4332 58.9609 44.6733C58.8845 44.69 58.8048 44.6822 58.733 44.6511C58.6613 44.62 58.6011 44.5671 58.561 44.5C58.3607 44.1504 58.0932 43.844 57.7739 43.5983C57.4547 43.3526 57.09 43.1725 56.7008 43.0684C56.3116 42.9643 55.9057 42.9382 55.5064 42.9917C55.1071 43.0452 54.7223 43.1771 54.3743 43.38L51.561 45.0067C51.2107 45.2037 50.9038 45.4694 50.6587 45.7879C50.4135 46.1063 50.2352 46.471 50.1343 46.86C49.9211 47.6461 50.0265 48.4845 50.4276 49.1933C50.4763 49.2563 50.5027 49.3337 50.5027 49.4133C50.5027 49.4929 50.4763 49.5703 50.4276 49.6333C49.4833 50.7899 48.7315 52.091 48.201 53.4867C48.1738 53.5605 48.1248 53.6243 48.0605 53.6695C47.9962 53.7148 47.9196 53.7394 47.841 53.74C47.1879 53.7409 46.5523 53.9512 46.0276 54.34L9.82761 54.38ZM45.3876 61.98H29.3876L30.7209 57.0467H44.7209V60.1C44.7295 60.7831 44.9639 61.4441 45.3876 61.98ZM24.9609 64.6467H48.6943C48.999 65.2614 49.3466 65.8539 49.7343 66.42H22.1476C22.3993 65.8902 22.7959 65.4426 23.2914 65.1287C23.7869 64.8149 24.3611 64.6478 24.9476 64.6467H24.9609ZM74.9343 60.1C74.9343 60.2061 74.8921 60.3078 74.8171 60.3828C74.7421 60.4578 74.6404 60.5 74.5343 60.5C73.9132 60.5015 73.3071 60.6908 72.7955 61.043C72.2839 61.3951 71.8908 61.8937 71.6676 62.4733C71.2414 63.5975 70.6383 64.6463 69.8809 65.58C69.4904 66.0623 69.2548 66.6514 69.2048 67.27C69.1548 67.8886 69.2929 68.5079 69.6009 69.0467C69.6224 69.0926 69.6335 69.1426 69.6335 69.1933C69.6335 69.244 69.6224 69.2941 69.6009 69.34C69.5893 69.3929 69.5667 69.4429 69.5346 69.4865C69.5024 69.5301 69.4614 69.5665 69.4143 69.5933L66.6409 71.1667C66.5946 71.1924 66.5437 71.2087 66.491 71.2146C66.4383 71.2205 66.385 71.2159 66.3342 71.201C66.2833 71.1861 66.2359 71.1613 66.1947 71.1279C66.1535 71.0945 66.1194 71.0533 66.0943 71.0067C65.779 70.4693 65.3083 70.0402 64.7441 69.776C64.1799 69.5118 63.5489 69.4248 62.9343 69.5267C61.7605 69.7266 60.5614 69.7266 59.3876 69.5267C58.7716 69.4261 58.1396 69.515 57.5753 69.7817C57.011 70.0484 56.541 70.4802 56.2276 71.02C56.1722 71.1094 56.0849 71.1743 55.9833 71.2016C55.8818 71.2288 55.7736 71.2163 55.681 71.1667L52.8676 69.54C52.8205 69.5132 52.7795 69.4768 52.7473 69.4332C52.7152 69.3895 52.6926 69.3396 52.681 69.2867C52.6595 69.2407 52.6484 69.1907 52.6484 69.14C52.6484 69.0893 52.6595 69.0392 52.681 68.9933C52.9854 68.4535 53.1214 67.8349 53.0715 67.2171C53.0216 66.5994 52.7881 66.0106 52.4009 65.5267C51.6368 64.5953 51.0289 63.5461 50.6009 62.42C50.3773 61.8556 49.9898 61.3712 49.4884 61.029C48.987 60.6868 48.3947 60.5026 47.7876 60.5C47.6815 60.5 47.5798 60.4578 47.5048 60.3828C47.4298 60.3078 47.3876 60.2061 47.3876 60.1V56.8467C47.3858 56.7936 47.3948 56.7408 47.4143 56.6914C47.4337 56.642 47.4631 56.5972 47.5006 56.5597C47.5381 56.5221 47.583 56.4927 47.6324 56.4733C47.6817 56.4539 47.7346 56.4448 47.7876 56.4467C48.4068 56.4443 49.0108 56.2545 49.5201 55.9023C50.0294 55.55 50.4202 55.0519 50.6409 54.4733C51.0659 53.3458 51.6741 52.2961 52.4409 51.3667C52.8281 50.8827 53.0616 50.2939 53.1115 49.6762C53.1614 49.0584 53.0254 48.4398 52.7209 47.9C52.6992 47.8518 52.688 47.7995 52.688 47.7467C52.688 47.6938 52.6992 47.6415 52.7209 47.5933C52.7318 47.5418 52.7542 47.4934 52.7866 47.4518C52.8189 47.4102 52.8603 47.3765 52.9076 47.3533L55.7209 45.7267C55.7864 45.7085 55.8555 45.7085 55.921 45.7267C55.9877 45.7275 56.0531 45.745 56.1113 45.7776C56.1696 45.8102 56.2187 45.8569 56.2543 45.9133C56.569 46.4518 57.0392 46.8826 57.6032 47.1491C58.1671 47.4155 58.7984 47.5053 59.4143 47.4067C60.5881 47.2067 61.7872 47.2067 62.9609 47.4067C63.5809 47.4904 64.2117 47.385 64.7708 47.1043C65.3298 46.8235 65.7911 46.3806 66.0943 45.8333C66.1203 45.7893 66.1549 45.751 66.1959 45.7204C66.2369 45.6899 66.2835 45.6678 66.3331 45.6554C66.3827 45.643 66.4343 45.6405 66.4848 45.6482C66.5354 45.6558 66.5839 45.6735 66.6276 45.7L69.4409 47.3267C69.4883 47.3498 69.5297 47.3835 69.562 47.4251C69.5943 47.4667 69.6168 47.5151 69.6276 47.5667C69.6493 47.6149 69.6606 47.6671 69.6606 47.72C69.6606 47.7729 69.6493 47.8251 69.6276 47.8733C69.3207 48.4101 69.1832 49.0271 69.2332 49.6433C69.2832 50.2596 69.5183 50.8464 69.9076 51.3267C70.6652 52.2651 71.2683 53.3183 71.6943 54.4467C71.9045 55.036 72.2884 55.5477 72.7955 55.9143C73.3025 56.2809 73.9088 56.4851 74.5343 56.5C74.5873 56.4981 74.6402 56.5072 74.6895 56.5266C74.7389 56.5461 74.7838 56.5755 74.8213 56.613C74.8588 56.6505 74.8882 56.6954 74.9076 56.7447C74.9271 56.7941 74.9361 56.847 74.9343 56.9V60.1Z" fill="white"/>
<path d="M61.161 52.42C59.9638 52.42 58.7934 52.7751 57.798 53.4402C56.8025 54.1054 56.0266 55.0508 55.5684 56.1569C55.1103 57.263 54.9904 58.4801 55.224 59.6543C55.4576 60.8286 56.0341 61.9072 56.8806 62.7537C57.7272 63.6003 58.8058 64.1768 59.9801 64.4104C61.1543 64.644 62.3714 64.5241 63.4775 64.0659C64.5836 63.6078 65.529 62.8319 66.1942 61.8364C66.8593 60.841 67.2143 59.6706 67.2143 58.4734C67.2143 56.8679 66.5766 55.3282 65.4413 54.193C64.3061 53.0578 62.7664 52.42 61.161 52.42ZM61.161 61.86C60.4912 61.86 59.8364 61.6614 59.2795 61.2893C58.7225 60.9172 58.2885 60.3882 58.0321 59.7694C57.7758 59.1506 57.7087 58.4696 57.8394 57.8127C57.9701 57.1557 58.2926 56.5523 58.7663 56.0786C59.2399 55.605 59.8433 55.2825 60.5003 55.1518C61.1572 55.0211 61.8382 55.0882 62.457 55.3445C63.0759 55.6008 63.6048 56.0349 63.9769 56.5918C64.349 57.1488 64.5477 57.8036 64.5477 58.4734C64.5406 59.3669 64.1807 60.2215 63.5464 60.8509C62.912 61.4803 62.0546 61.8334 61.161 61.8334V61.86Z" fill="white"/>
</g>
<defs>
<filter id="filter0_d" x="2.72095" y="16.1533" width="78.8533" height="65.7804" filterUnits="userSpaceOnUse" color-interpolation-filters="sRGB">
<feFlood flood-opacity="0" result="BackgroundImageFix"/>
<feColorMatrix in="SourceAlpha" type="matrix" values="0 0 0 0 0 0 0 0 0 0 0 0 0 0 0 0 0 0 127 0"/>
<feOffset dy="4"/>
<feGaussianBlur stdDeviation="2"/>
<feColorMatrix type="matrix" values="0 0 0 0 0 0 0 0 0 0 0 0 0 0 0 0 0 0 0.1 0"/>
<feBlend mode="normal" in2="BackgroundImageFix" result="effect1_dropShadow"/>
<feBlend mode="normal" in="SourceGraphic" in2="effect1_dropShadow" result="shape"/>
</filter>
</defs>
</svg>
