<svg width="80" height="74" viewBox="0 0 80 74" fill="none" xmlns="http://www.w3.org/2000/svg">
<path d="M78.5485 0.906677H1.53309C0.721456 0.906677 0 1.62813 0 2.43977V58.8035C0 59.6152 0.721456 60.3366 1.53309 60.3366H28.4975V65.0261H26.243C22.6357 65.0261 19.7499 67.9119 19.7499 71.5192C19.7499 72.3308 20.4713 73.0523 21.283 73.0523C22.0946 73.0523 22.816 72.3308 22.816 71.5192C22.816 69.6254 24.3491 68.0923 26.243 68.0923H53.7485C55.6423 68.0923 57.1754 69.6254 57.1754 71.5192C57.1754 72.3308 57.8968 73.0523 58.7085 73.0523C59.5201 73.0523 60.2416 72.3308 60.2416 71.5192C60.2416 67.9119 57.3557 65.0261 53.7485 65.0261H51.4939V60.3366H78.4583C79.27 60.3366 79.9914 59.6152 79.9914 58.8035V2.43977C80.0816 1.53795 79.4503 0.906677 78.5485 0.906677ZM31.5637 64.5752V60.3366H48.4277V64.5752H31.5637ZM77.0154 57.2704H3.06619V49.605H77.0154V57.2704ZM77.0154 46.5388H3.06619V3.97286H77.0154V46.5388Z" fill="white"/>
<path d="M35.2612 55.106H44.8205C45.6322 55.106 46.3536 54.3846 46.3536 53.5729C46.3536 52.7613 45.7224 52.0399 44.8205 52.0399H35.2612C34.4496 52.0399 33.7281 52.7613 33.7281 53.5729C33.7281 54.3846 34.4496 55.106 35.2612 55.106Z" fill="white"/>
<path d="M15.6014 41.3082C18.848 41.3082 21.4633 38.6929 21.4633 35.4464C21.4633 34.6347 21.2829 33.8231 21.0123 33.1918L28.6778 27.1496C29.6698 27.8711 30.8422 28.322 32.1949 28.322C33.728 28.322 35.1709 27.6907 36.2531 26.6987L40.4015 29.1336C40.3113 29.5845 40.2211 30.0354 40.2211 30.5765C40.2211 33.8231 42.8364 36.4384 46.0829 36.4384C49.3295 36.4384 51.9448 33.8231 51.9448 30.5765C51.9448 30.0354 51.8546 29.4042 51.6742 28.9533L60.963 22.5503C61.955 23.4522 63.3077 23.9933 64.7506 23.9933C67.9972 23.9933 70.6124 21.378 70.6124 18.1314C70.6124 14.8849 67.9972 12.2696 64.7506 12.2696C61.5041 12.2696 58.8888 14.8849 58.8888 18.1314C58.8888 18.7627 58.979 19.394 59.2495 20.0252L49.9608 26.338C48.8786 25.346 47.5259 24.7147 45.9928 24.7147C44.3695 24.7147 42.9266 25.346 41.8444 26.4282L37.7862 23.9933C37.9666 23.4522 38.0567 22.9111 38.0567 22.37C38.0567 19.1234 35.4415 16.5081 32.1949 16.5081C28.9484 16.5081 26.3331 19.1234 26.3331 22.37C26.3331 23.1816 26.5134 23.9031 26.784 24.6245L19.1185 30.6667C18.1265 29.9453 16.9542 29.4944 15.6916 29.4944C12.4451 29.4944 9.82978 32.1096 9.82978 35.3562C9.7396 38.6929 12.3549 41.3082 15.6014 41.3082ZM64.7506 15.3358C66.2837 15.3358 67.5462 16.5983 67.5462 18.1314C67.5462 19.6645 66.2837 20.9271 64.7506 20.9271C63.2175 20.9271 61.955 19.6645 61.955 18.1314C61.955 16.5983 63.2175 15.3358 64.7506 15.3358ZM43.5578 29.2238C44.0088 28.322 44.9106 27.7809 45.9928 27.7809C47.5259 27.7809 48.7884 29.0434 48.7884 30.5765C48.7884 32.1096 47.5259 33.3722 45.9928 33.3722C44.4597 33.3722 43.1971 32.1096 43.1971 30.5765C43.1971 30.1256 43.2873 29.6747 43.5578 29.2238ZM32.1047 19.6645C33.6378 19.6645 34.9004 20.9271 34.9004 22.4602C34.9004 23.0012 34.72 23.4522 34.5396 23.9031C34.5396 23.9031 34.5396 23.9031 34.5396 23.9933C33.9986 24.7147 33.1869 25.2558 32.1949 25.2558C31.2931 25.2558 30.4815 24.8049 30.0305 24.1736C29.6698 23.7227 29.4895 23.1816 29.4895 22.5503C29.3091 20.9271 30.5716 19.6645 32.1047 19.6645ZM15.6014 32.6507C16.5032 32.6507 17.2247 33.1016 17.7658 33.7329C18.1265 34.1838 18.3971 34.8151 18.3971 35.4464C18.3971 36.9795 17.1345 38.242 15.6014 38.242C14.0683 38.242 12.8058 36.9795 12.8058 35.4464C12.8058 33.9133 14.0683 32.6507 15.6014 32.6507Z" fill="white"/>
</svg>
