<svg width="225" height="50" viewBox="0 0 225 50" fill="none" xmlns="http://www.w3.org/2000/svg">
<g clip-path="url(#clip0)">
<path d="M21.4044 20.4812C21.4044 20.4812 11.8764 16.703 9.6084 9.33691" stroke="white" stroke-miterlimit="10"/>
<path d="M8.86908 9.54025C9.81532 9.54025 10.5824 8.63362 10.5824 7.51524C10.5824 6.39686 9.81532 5.49023 8.86908 5.49023C7.92284 5.49023 7.15576 6.39686 7.15576 7.51524C7.15576 8.63362 7.92284 9.54025 8.86908 9.54025Z" stroke="white" stroke-miterlimit="10"/>
<path d="M26.6925 20.6172C26.6925 20.6172 36.7506 16.771 38.8953 9.01074" stroke="white" stroke-miterlimit="10"/>
<path d="M39.4622 9.36447C40.4085 9.36447 41.1755 8.45784 41.1755 7.33946C41.1755 6.22108 40.4085 5.31445 39.4622 5.31445C38.516 5.31445 37.7489 6.22108 37.7489 7.33946C37.7489 8.45784 38.516 9.36447 39.4622 9.36447Z" stroke="white" stroke-miterlimit="10"/>
<path d="M26.1747 25.1969L34.0634 23.8378C34.569 23.7443 35.0883 23.8502 35.5301 24.1368L43.7763 29.4643" stroke="white" stroke-miterlimit="10"/>
<path d="M21.9961 24.7214L14.5388 23.2944C14.0118 23.1841 13.4665 23.2957 13.0104 23.6069L4.24658 29.4237" stroke="white" stroke-miterlimit="10"/>
<path d="M21.9345 28.0371C21.9345 28.0371 10.9766 32.3453 7.84583 43.082" stroke="white" stroke-miterlimit="10"/>
<path d="M26.8157 27.874C26.8157 27.874 39.0185 33.0385 41.9397 43.381" stroke="white" stroke-miterlimit="10"/>
<path d="M45.0952 31.9514C46.0414 31.9514 46.8085 31.0448 46.8085 29.9264C46.8085 28.808 46.0414 27.9014 45.0952 27.9014C44.1489 27.9014 43.3818 28.808 43.3818 29.9264C43.3818 31.0448 44.1489 31.9514 45.0952 31.9514Z" stroke="white" stroke-miterlimit="10"/>
<path d="M2.77985 32.0334C3.72609 32.0334 4.49317 31.1268 4.49317 30.0084C4.49317 28.89 3.72609 27.9834 2.77985 27.9834C1.83361 27.9834 1.06653 28.89 1.06653 30.0084C1.06653 31.1268 1.83361 32.0334 2.77985 32.0334Z" stroke="white" stroke-miterlimit="10"/>
<path d="M7.31574 47.2141C8.26198 47.2141 9.02906 46.3075 9.02906 45.1891C9.02906 44.0707 8.26198 43.1641 7.31574 43.1641C6.3695 43.1641 5.60242 44.0707 5.60242 45.1891C5.60242 46.3075 6.3695 47.2141 7.31574 47.2141Z" stroke="white" stroke-miterlimit="10"/>
<path d="M42.6176 47.4445C43.5639 47.4445 44.3309 46.5379 44.3309 45.4195C44.3309 44.3012 43.5639 43.3945 42.6176 43.3945C41.6714 43.3945 40.9043 44.3012 40.9043 45.4195C40.9043 46.5379 41.6714 47.4445 42.6176 47.4445Z" stroke="white" stroke-miterlimit="10"/>
<path d="M26.6307 6.95841C26.6307 6.95841 29.552 5.96629 30.2053 0" stroke="white" stroke-miterlimit="10"/>
<path d="M22.4151 6.95841C22.4151 6.95841 19.4939 5.96629 18.8406 0" stroke="white" stroke-miterlimit="10"/>
<path d="M32.9171 33.4599L26.3967 29.3283L27.4937 28.6216V24.6803L26.5076 24.0552L27.4937 23.4164V19.4751L26.3597 18.7548L30.3657 16.1862L30.378 8.52104L24.4245 4.68848L18.4464 8.50745L18.434 16.1726L22.477 18.782L21.3676 19.4887L21.38 23.43L22.3661 24.0552L21.3676 24.6939L21.38 28.6352L22.4154 29.2876L15.8333 33.5822L15.8949 44.5634L24.4615 49.9997L32.9788 44.4547L32.9171 33.4599Z" fill="white"/>
</g>
<path d="M70.652 29.224C69.1773 29.224 67.7493 29 66.368 28.552C65.0053 28.0853 63.932 27.488 63.148 26.76L64.184 24.576C64.9307 25.248 65.8827 25.7987 67.04 26.228C68.216 26.6387 69.42 26.844 70.652 26.844C72.276 26.844 73.4893 26.5733 74.292 26.032C75.0947 25.472 75.496 24.7347 75.496 23.82C75.496 23.148 75.272 22.6067 74.824 22.196C74.3947 21.7667 73.8533 21.44 73.2 21.216C72.5653 20.992 71.66 20.74 70.484 20.46C69.0093 20.1053 67.8147 19.7507 66.9 19.396C66.004 19.0413 65.2293 18.5 64.576 17.772C63.9413 17.0253 63.624 16.0267 63.624 14.776C63.624 13.7307 63.8947 12.788 64.436 11.948C64.996 11.108 65.836 10.436 66.956 9.932C68.076 9.428 69.4667 9.176 71.128 9.176C72.2853 9.176 73.424 9.32533 74.544 9.624C75.664 9.92267 76.6253 10.352 77.428 10.912L76.504 13.152C75.6827 12.6293 74.8053 12.2373 73.872 11.976C72.9387 11.696 72.024 11.556 71.128 11.556C69.5413 11.556 68.3467 11.8453 67.544 12.424C66.76 13.0027 66.368 13.7493 66.368 14.664C66.368 15.336 66.592 15.8867 67.04 16.316C67.488 16.7267 68.0387 17.0533 68.692 17.296C69.364 17.52 70.2693 17.7627 71.408 18.024C72.8827 18.3787 74.068 18.7333 74.964 19.088C75.86 19.4427 76.6253 19.984 77.26 20.712C77.9133 21.44 78.24 22.42 78.24 23.652C78.24 24.6787 77.96 25.6213 77.4 26.48C76.84 27.32 75.9907 27.992 74.852 28.496C73.7133 28.9813 72.3133 29.224 70.652 29.224ZM99.1866 9.4V29H96.3866V20.264H85.1306V29H82.3306V9.4H85.1306V17.828H96.3866V9.4H99.1866ZM117.541 24.1H107.125L104.969 29H102.085L110.961 9.4H113.733L122.637 29H119.697L117.541 24.1ZM116.561 21.86L112.333 12.256L108.105 21.86H116.561ZM138.665 29L134.437 22.98C133.914 23.0173 133.504 23.036 133.205 23.036H128.361V29H125.561V9.4H133.205C135.744 9.4 137.741 10.0067 139.197 11.22C140.653 12.4333 141.381 14.104 141.381 16.232C141.381 17.744 141.008 19.032 140.261 20.096C139.514 21.16 138.45 21.9347 137.069 22.42L141.717 29H138.665ZM133.121 20.656C134.894 20.656 136.248 20.2733 137.181 19.508C138.114 18.7427 138.581 17.6507 138.581 16.232C138.581 14.8133 138.114 13.7307 137.181 12.984C136.248 12.2187 134.894 11.836 133.121 11.836H128.361V20.656H133.121ZM153.549 9.4C156.088 9.4 158.085 10.0067 159.541 11.22C160.997 12.4333 161.725 14.104 161.725 16.232C161.725 18.36 160.997 20.0307 159.541 21.244C158.085 22.4573 156.088 23.064 153.549 23.064H148.705V29H145.905V9.4H153.549ZM153.465 20.628C155.238 20.628 156.592 20.2547 157.525 19.508C158.458 18.7427 158.925 17.6507 158.925 16.232C158.925 14.8133 158.458 13.7307 157.525 12.984C156.592 12.2187 155.238 11.836 153.465 11.836H148.705V20.628H153.465Z" fill="black"/>
<path d="M178.6 24.1H168.184L166.028 29H163.144L172.02 9.4H174.792L183.696 29H180.756L178.6 24.1ZM177.62 21.86L173.392 12.256L169.164 21.86H177.62ZM203.476 9.4V29H201.18L189.42 14.384V29H186.62V9.4H188.916L200.676 24.016V9.4H203.476ZM213.234 11.836H206.514V9.4H222.726V11.836H216.006V29H213.234V11.836Z" fill="white"/>
<path d="M66.0187 42.822V45H65.1277V42.804L62.6257 38.7H63.5887L65.6047 42.021L67.6297 38.7H68.5207L66.0187 42.822ZM70.8148 45.054C70.3408 45.054 69.9148 44.949 69.5368 44.739C69.1588 44.529 68.8618 44.241 68.6458 43.875C68.4358 43.503 68.3308 43.083 68.3308 42.615C68.3308 42.147 68.4358 41.73 68.6458 41.364C68.8618 40.992 69.1588 40.704 69.5368 40.5C69.9148 40.29 70.3408 40.185 70.8148 40.185C71.2888 40.185 71.7118 40.29 72.0838 40.5C72.4618 40.704 72.7558 40.992 72.9658 41.364C73.1818 41.73 73.2898 42.147 73.2898 42.615C73.2898 43.083 73.1818 43.503 72.9658 43.875C72.7558 44.241 72.4618 44.529 72.0838 44.739C71.7118 44.949 71.2888 45.054 70.8148 45.054ZM70.8148 44.298C71.1208 44.298 71.3938 44.229 71.6338 44.091C71.8798 43.947 72.0718 43.749 72.2098 43.497C72.3478 43.239 72.4168 42.945 72.4168 42.615C72.4168 42.285 72.3478 41.994 72.2098 41.742C72.0718 41.484 71.8798 41.286 71.6338 41.148C71.3938 41.01 71.1208 40.941 70.8148 40.941C70.5088 40.941 70.2328 41.01 69.9868 41.148C69.7468 41.286 69.5548 41.484 69.4108 41.742C69.2728 41.994 69.2038 42.285 69.2038 42.615C69.2038 42.945 69.2728 43.239 69.4108 43.497C69.5548 43.749 69.7468 43.947 69.9868 44.091C70.2328 44.229 70.5088 44.298 70.8148 44.298ZM78.9306 40.23V45H78.1116V44.28C77.9376 44.526 77.7066 44.718 77.4186 44.856C77.1366 44.988 76.8276 45.054 76.4916 45.054C75.8556 45.054 75.3546 44.88 74.9886 44.532C74.6226 44.178 74.4396 43.659 74.4396 42.975V40.23H75.3036V42.876C75.3036 43.338 75.4146 43.689 75.6366 43.929C75.8586 44.163 76.1766 44.28 76.5906 44.28C77.0466 44.28 77.4066 44.142 77.6706 43.866C77.9346 43.59 78.0666 43.2 78.0666 42.696V40.23H78.9306ZM81.4035 41.031C81.5535 40.755 81.7755 40.545 82.0695 40.401C82.3635 40.257 82.7205 40.185 83.1405 40.185V41.022C83.0925 41.016 83.0265 41.013 82.9425 41.013C82.4745 41.013 82.1055 41.154 81.8355 41.436C81.5715 41.712 81.4395 42.108 81.4395 42.624V45H80.5755V40.23H81.4035V41.031ZM91.1839 38.322V45H90.3559V44.244C90.1639 44.508 89.9209 44.709 89.6269 44.847C89.3329 44.985 89.0089 45.054 88.6549 45.054C88.1929 45.054 87.7789 44.952 87.4129 44.748C87.0469 44.544 86.7589 44.259 86.5489 43.893C86.3449 43.521 86.2429 43.095 86.2429 42.615C86.2429 42.135 86.3449 41.712 86.5489 41.346C86.7589 40.98 87.0469 40.695 87.4129 40.491C87.7789 40.287 88.1929 40.185 88.6549 40.185C88.9969 40.185 89.3119 40.251 89.5999 40.383C89.8879 40.509 90.1279 40.698 90.3199 40.95V38.322H91.1839ZM88.7269 44.298C89.0269 44.298 89.2999 44.229 89.5459 44.091C89.7919 43.947 89.9839 43.749 90.1219 43.497C90.2599 43.239 90.3289 42.945 90.3289 42.615C90.3289 42.285 90.2599 41.994 90.1219 41.742C89.9839 41.484 89.7919 41.286 89.5459 41.148C89.2999 41.01 89.0269 40.941 88.7269 40.941C88.4209 40.941 88.1449 41.01 87.8989 41.148C87.6589 41.286 87.4669 41.484 87.3229 41.742C87.1849 41.994 87.1159 42.285 87.1159 42.615C87.1159 42.945 87.1849 43.239 87.3229 43.497C87.4669 43.749 87.6589 43.947 87.8989 44.091C88.1449 44.229 88.4209 44.298 88.7269 44.298ZM92.8186 40.23H93.6826V45H92.8186V40.23ZM93.2506 39.312C93.0826 39.312 92.9416 39.258 92.8276 39.15C92.7196 39.042 92.6656 38.91 92.6656 38.754C92.6656 38.598 92.7196 38.466 92.8276 38.358C92.9416 38.244 93.0826 38.187 93.2506 38.187C93.4186 38.187 93.5566 38.241 93.6646 38.349C93.7786 38.451 93.8356 38.58 93.8356 38.736C93.8356 38.898 93.7786 39.036 93.6646 39.15C93.5566 39.258 93.4186 39.312 93.2506 39.312ZM96.1603 41.031C96.3103 40.755 96.5323 40.545 96.8263 40.401C97.1203 40.257 97.4773 40.185 97.8973 40.185V41.022C97.8493 41.016 97.7833 41.013 97.6993 41.013C97.2313 41.013 96.8623 41.154 96.5923 41.436C96.3283 41.712 96.1963 42.108 96.1963 42.624V45H95.3323V40.23H96.1603V41.031ZM103.229 42.642C103.229 42.708 103.223 42.795 103.211 42.903H99.3412C99.3952 43.323 99.5782 43.662 99.8902 43.92C100.208 44.172 100.601 44.298 101.069 44.298C101.639 44.298 102.098 44.106 102.446 43.722L102.923 44.28C102.707 44.532 102.437 44.724 102.113 44.856C101.795 44.988 101.438 45.054 101.042 45.054C100.538 45.054 100.091 44.952 99.7012 44.748C99.3112 44.538 99.0082 44.247 98.7922 43.875C98.5822 43.503 98.4772 43.083 98.4772 42.615C98.4772 42.153 98.5792 41.736 98.7832 41.364C98.9932 40.992 99.2782 40.704 99.6382 40.5C100.004 40.29 100.415 40.185 100.871 40.185C101.327 40.185 101.732 40.29 102.086 40.5C102.446 40.704 102.725 40.992 102.923 41.364C103.127 41.736 103.229 42.162 103.229 42.642ZM100.871 40.914C100.457 40.914 100.109 41.04 99.8272 41.292C99.5512 41.544 99.3892 41.874 99.3412 42.282H102.401C102.353 41.88 102.188 41.553 101.906 41.301C101.63 41.043 101.285 40.914 100.871 40.914ZM106.508 45.054C106.022 45.054 105.587 44.949 105.203 44.739C104.825 44.529 104.528 44.241 104.312 43.875C104.096 43.503 103.988 43.083 103.988 42.615C103.988 42.147 104.096 41.73 104.312 41.364C104.528 40.992 104.825 40.704 105.203 40.5C105.587 40.29 106.022 40.185 106.508 40.185C106.94 40.185 107.324 40.272 107.66 40.446C108.002 40.62 108.266 40.872 108.452 41.202L107.795 41.625C107.645 41.397 107.459 41.226 107.237 41.112C107.015 40.998 106.769 40.941 106.499 40.941C106.187 40.941 105.905 41.01 105.653 41.148C105.407 41.286 105.212 41.484 105.068 41.742C104.93 41.994 104.861 42.285 104.861 42.615C104.861 42.951 104.93 43.248 105.068 43.506C105.212 43.758 105.407 43.953 105.653 44.091C105.905 44.229 106.187 44.298 106.499 44.298C106.769 44.298 107.015 44.241 107.237 44.127C107.459 44.013 107.645 43.842 107.795 43.614L108.452 44.028C108.266 44.358 108.002 44.613 107.66 44.793C107.324 44.967 106.94 45.054 106.508 45.054ZM112.314 44.721C112.188 44.829 112.032 44.913 111.846 44.973C111.66 45.027 111.468 45.054 111.27 45.054C110.79 45.054 110.418 44.925 110.154 44.667C109.89 44.409 109.758 44.04 109.758 43.56V40.941H108.948V40.23H109.758V39.186H110.622V40.23H111.99V40.941H110.622V43.524C110.622 43.782 110.685 43.98 110.811 44.118C110.943 44.256 111.129 44.325 111.369 44.325C111.633 44.325 111.858 44.25 112.044 44.1L112.314 44.721ZM118.305 40.185C118.767 40.185 119.181 40.287 119.547 40.491C119.913 40.695 120.198 40.98 120.402 41.346C120.612 41.712 120.717 42.135 120.717 42.615C120.717 43.095 120.612 43.521 120.402 43.893C120.198 44.259 119.913 44.544 119.547 44.748C119.181 44.952 118.767 45.054 118.305 45.054C117.963 45.054 117.648 44.988 117.36 44.856C117.078 44.724 116.838 44.532 116.64 44.28V46.746H115.776V40.23H116.604V40.986C116.796 40.722 117.039 40.524 117.333 40.392C117.627 40.254 117.951 40.185 118.305 40.185ZM118.233 44.298C118.539 44.298 118.812 44.229 119.052 44.091C119.298 43.947 119.49 43.749 119.628 43.497C119.772 43.239 119.844 42.945 119.844 42.615C119.844 42.285 119.772 41.994 119.628 41.742C119.49 41.484 119.298 41.286 119.052 41.148C118.812 41.01 118.539 40.941 118.233 40.941C117.933 40.941 117.66 41.013 117.414 41.157C117.174 41.295 116.982 41.49 116.838 41.742C116.7 41.994 116.631 42.285 116.631 42.615C116.631 42.945 116.7 43.239 116.838 43.497C116.976 43.749 117.168 43.947 117.414 44.091C117.66 44.229 117.933 44.298 118.233 44.298ZM123.603 40.185C124.263 40.185 124.767 40.347 125.115 40.671C125.469 40.995 125.646 41.478 125.646 42.12V45H124.827V44.37C124.683 44.592 124.476 44.763 124.206 44.883C123.942 44.997 123.627 45.054 123.261 45.054C122.727 45.054 122.298 44.925 121.974 44.667C121.656 44.409 121.497 44.07 121.497 43.65C121.497 43.23 121.65 42.894 121.956 42.642C122.262 42.384 122.748 42.255 123.414 42.255H124.782V42.084C124.782 41.712 124.674 41.427 124.458 41.229C124.242 41.031 123.924 40.932 123.504 40.932C123.222 40.932 122.946 40.98 122.676 41.076C122.406 41.166 122.178 41.289 121.992 41.445L121.632 40.797C121.878 40.599 122.172 40.449 122.514 40.347C122.856 40.239 123.219 40.185 123.603 40.185ZM123.405 44.388C123.735 44.388 124.02 44.316 124.26 44.172C124.5 44.022 124.674 43.812 124.782 43.542V42.876H123.45C122.718 42.876 122.352 43.122 122.352 43.614C122.352 43.854 122.445 44.043 122.631 44.181C122.817 44.319 123.075 44.388 123.405 44.388ZM128.073 41.031C128.223 40.755 128.445 40.545 128.739 40.401C129.033 40.257 129.39 40.185 129.81 40.185V41.022C129.762 41.016 129.696 41.013 129.612 41.013C129.144 41.013 128.775 41.154 128.505 41.436C128.241 41.712 128.109 42.108 128.109 42.624V45H127.245V40.23H128.073V41.031ZM133.751 44.721C133.625 44.829 133.469 44.913 133.283 44.973C133.097 45.027 132.905 45.054 132.707 45.054C132.227 45.054 131.855 44.925 131.591 44.667C131.327 44.409 131.195 44.04 131.195 43.56V40.941H130.385V40.23H131.195V39.186H132.059V40.23H133.427V40.941H132.059V43.524C132.059 43.782 132.122 43.98 132.248 44.118C132.38 44.256 132.566 44.325 132.806 44.325C133.07 44.325 133.295 44.25 133.481 44.1L133.751 44.721ZM137.342 40.185C137.948 40.185 138.428 40.362 138.782 40.716C139.142 41.064 139.322 41.577 139.322 42.255V45H138.458V42.354C138.458 41.892 138.347 41.544 138.125 41.31C137.903 41.076 137.585 40.959 137.171 40.959C136.703 40.959 136.334 41.097 136.064 41.373C135.794 41.643 135.659 42.033 135.659 42.543V45H134.795V40.23H135.623V40.95C135.797 40.704 136.031 40.515 136.325 40.383C136.625 40.251 136.964 40.185 137.342 40.185ZM145.259 42.642C145.259 42.708 145.253 42.795 145.241 42.903H141.371C141.425 43.323 141.608 43.662 141.92 43.92C142.238 44.172 142.631 44.298 143.099 44.298C143.669 44.298 144.128 44.106 144.476 43.722L144.953 44.28C144.737 44.532 144.467 44.724 144.143 44.856C143.825 44.988 143.468 45.054 143.072 45.054C142.568 45.054 142.121 44.952 141.731 44.748C141.341 44.538 141.038 44.247 140.822 43.875C140.612 43.503 140.507 43.083 140.507 42.615C140.507 42.153 140.609 41.736 140.813 41.364C141.023 40.992 141.308 40.704 141.668 40.5C142.034 40.29 142.445 40.185 142.901 40.185C143.357 40.185 143.762 40.29 144.116 40.5C144.476 40.704 144.755 40.992 144.953 41.364C145.157 41.736 145.259 42.162 145.259 42.642ZM142.901 40.914C142.487 40.914 142.139 41.04 141.857 41.292C141.581 41.544 141.419 41.874 141.371 42.282H144.431C144.383 41.88 144.218 41.553 143.936 41.301C143.66 41.043 143.315 40.914 142.901 40.914ZM147.286 41.031C147.436 40.755 147.658 40.545 147.952 40.401C148.246 40.257 148.603 40.185 149.023 40.185V41.022C148.975 41.016 148.909 41.013 148.825 41.013C148.357 41.013 147.988 41.154 147.718 41.436C147.454 41.712 147.322 42.108 147.322 42.624V45H146.458V40.23H147.286V41.031ZM152.567 40.23H153.431V45H152.567V40.23ZM152.999 39.312C152.831 39.312 152.69 39.258 152.576 39.15C152.468 39.042 152.414 38.91 152.414 38.754C152.414 38.598 152.468 38.466 152.576 38.358C152.69 38.244 152.831 38.187 152.999 38.187C153.167 38.187 153.305 38.241 153.413 38.349C153.527 38.451 153.584 38.58 153.584 38.736C153.584 38.898 153.527 39.036 153.413 39.15C153.305 39.258 153.167 39.312 152.999 39.312ZM157.627 40.185C158.233 40.185 158.713 40.362 159.067 40.716C159.427 41.064 159.607 41.577 159.607 42.255V45H158.743V42.354C158.743 41.892 158.632 41.544 158.41 41.31C158.188 41.076 157.87 40.959 157.456 40.959C156.988 40.959 156.619 41.097 156.349 41.373C156.079 41.643 155.944 42.033 155.944 42.543V45H155.08V40.23H155.908V40.95C156.082 40.704 156.316 40.515 156.61 40.383C156.91 40.251 157.249 40.185 157.627 40.185ZM168.123 38.322V45H167.295V44.244C167.103 44.508 166.86 44.709 166.566 44.847C166.272 44.985 165.948 45.054 165.594 45.054C165.132 45.054 164.718 44.952 164.352 44.748C163.986 44.544 163.698 44.259 163.488 43.893C163.284 43.521 163.182 43.095 163.182 42.615C163.182 42.135 163.284 41.712 163.488 41.346C163.698 40.98 163.986 40.695 164.352 40.491C164.718 40.287 165.132 40.185 165.594 40.185C165.936 40.185 166.251 40.251 166.539 40.383C166.827 40.509 167.067 40.698 167.259 40.95V38.322H168.123ZM165.666 44.298C165.966 44.298 166.239 44.229 166.485 44.091C166.731 43.947 166.923 43.749 167.061 43.497C167.199 43.239 167.268 42.945 167.268 42.615C167.268 42.285 167.199 41.994 167.061 41.742C166.923 41.484 166.731 41.286 166.485 41.148C166.239 41.01 165.966 40.941 165.666 40.941C165.36 40.941 165.084 41.01 164.838 41.148C164.598 41.286 164.406 41.484 164.262 41.742C164.124 41.994 164.055 42.285 164.055 42.615C164.055 42.945 164.124 43.239 164.262 43.497C164.406 43.749 164.598 43.947 164.838 44.091C165.084 44.229 165.36 44.298 165.666 44.298ZM169.758 40.23H170.622V45H169.758V40.23ZM170.19 39.312C170.022 39.312 169.881 39.258 169.767 39.15C169.659 39.042 169.605 38.91 169.605 38.754C169.605 38.598 169.659 38.466 169.767 38.358C169.881 38.244 170.022 38.187 170.19 38.187C170.358 38.187 170.496 38.241 170.604 38.349C170.718 38.451 170.775 38.58 170.775 38.736C170.775 38.898 170.718 39.036 170.604 39.15C170.496 39.258 170.358 39.312 170.19 39.312ZM176.835 40.23V44.352C176.835 45.186 176.628 45.801 176.214 46.197C175.8 46.599 175.182 46.8 174.36 46.8C173.91 46.8 173.481 46.737 173.073 46.611C172.665 46.491 172.335 46.317 172.083 46.089L172.497 45.423C172.719 45.615 172.992 45.765 173.316 45.873C173.646 45.987 173.985 46.044 174.333 46.044C174.891 46.044 175.302 45.912 175.566 45.648C175.836 45.384 175.971 44.982 175.971 44.442V44.064C175.767 44.31 175.515 44.496 175.215 44.622C174.921 44.742 174.6 44.802 174.252 44.802C173.796 44.802 173.382 44.706 173.01 44.514C172.644 44.316 172.356 44.043 172.146 43.695C171.936 43.341 171.831 42.939 171.831 42.489C171.831 42.039 171.936 41.64 172.146 41.292C172.356 40.938 172.644 40.665 173.01 40.473C173.382 40.281 173.796 40.185 174.252 40.185C174.612 40.185 174.945 40.251 175.251 40.383C175.563 40.515 175.818 40.71 176.016 40.968V40.23H176.835ZM174.351 44.046C174.663 44.046 174.942 43.98 175.188 43.848C175.44 43.716 175.635 43.533 175.773 43.299C175.917 43.059 175.989 42.789 175.989 42.489C175.989 42.027 175.836 41.655 175.53 41.373C175.224 41.085 174.831 40.941 174.351 40.941C173.865 40.941 173.469 41.085 173.163 41.373C172.857 41.655 172.704 42.027 172.704 42.489C172.704 42.789 172.773 43.059 172.911 43.299C173.055 43.533 173.25 43.716 173.496 43.848C173.748 43.98 174.033 44.046 174.351 44.046ZM178.486 40.23H179.35V45H178.486V40.23ZM178.918 39.312C178.75 39.312 178.609 39.258 178.495 39.15C178.387 39.042 178.333 38.91 178.333 38.754C178.333 38.598 178.387 38.466 178.495 38.358C178.609 38.244 178.75 38.187 178.918 38.187C179.086 38.187 179.224 38.241 179.332 38.349C179.446 38.451 179.503 38.58 179.503 38.736C179.503 38.898 179.446 39.036 179.332 39.15C179.224 39.258 179.086 39.312 178.918 39.312ZM183.681 44.721C183.555 44.829 183.399 44.913 183.213 44.973C183.027 45.027 182.835 45.054 182.637 45.054C182.157 45.054 181.785 44.925 181.521 44.667C181.257 44.409 181.125 44.04 181.125 43.56V40.941H180.315V40.23H181.125V39.186H181.989V40.23H183.357V40.941H181.989V43.524C181.989 43.782 182.052 43.98 182.178 44.118C182.31 44.256 182.496 44.325 182.736 44.325C183 44.325 183.225 44.25 183.411 44.1L183.681 44.721ZM186.463 40.185C187.123 40.185 187.627 40.347 187.975 40.671C188.329 40.995 188.506 41.478 188.506 42.12V45H187.687V44.37C187.543 44.592 187.336 44.763 187.066 44.883C186.802 44.997 186.487 45.054 186.121 45.054C185.587 45.054 185.158 44.925 184.834 44.667C184.516 44.409 184.357 44.07 184.357 43.65C184.357 43.23 184.51 42.894 184.816 42.642C185.122 42.384 185.608 42.255 186.274 42.255H187.642V42.084C187.642 41.712 187.534 41.427 187.318 41.229C187.102 41.031 186.784 40.932 186.364 40.932C186.082 40.932 185.806 40.98 185.536 41.076C185.266 41.166 185.038 41.289 184.852 41.445L184.492 40.797C184.738 40.599 185.032 40.449 185.374 40.347C185.716 40.239 186.079 40.185 186.463 40.185ZM186.265 44.388C186.595 44.388 186.88 44.316 187.12 44.172C187.36 44.022 187.534 43.812 187.642 43.542V42.876H186.31C185.578 42.876 185.212 43.122 185.212 43.614C185.212 43.854 185.305 44.043 185.491 44.181C185.677 44.319 185.935 44.388 186.265 44.388ZM190.105 38.322H190.969V45H190.105V38.322ZM202.253 40.23L200.471 45H199.643L198.266 41.382L196.871 45H196.043L194.27 40.23H195.089L196.475 44.028L197.915 40.23H198.644L200.057 44.046L201.479 40.23H202.253ZM205.041 45.054C204.567 45.054 204.141 44.949 203.763 44.739C203.385 44.529 203.088 44.241 202.872 43.875C202.662 43.503 202.557 43.083 202.557 42.615C202.557 42.147 202.662 41.73 202.872 41.364C203.088 40.992 203.385 40.704 203.763 40.5C204.141 40.29 204.567 40.185 205.041 40.185C205.515 40.185 205.938 40.29 206.31 40.5C206.688 40.704 206.982 40.992 207.192 41.364C207.408 41.73 207.516 42.147 207.516 42.615C207.516 43.083 207.408 43.503 207.192 43.875C206.982 44.241 206.688 44.529 206.31 44.739C205.938 44.949 205.515 45.054 205.041 45.054ZM205.041 44.298C205.347 44.298 205.62 44.229 205.86 44.091C206.106 43.947 206.298 43.749 206.436 43.497C206.574 43.239 206.643 42.945 206.643 42.615C206.643 42.285 206.574 41.994 206.436 41.742C206.298 41.484 206.106 41.286 205.86 41.148C205.62 41.01 205.347 40.941 205.041 40.941C204.735 40.941 204.459 41.01 204.213 41.148C203.973 41.286 203.781 41.484 203.637 41.742C203.499 41.994 203.43 42.285 203.43 42.615C203.43 42.945 203.499 43.239 203.637 43.497C203.781 43.749 203.973 43.947 204.213 44.091C204.459 44.229 204.735 44.298 205.041 44.298ZM209.539 41.031C209.689 40.755 209.911 40.545 210.205 40.401C210.499 40.257 210.856 40.185 211.276 40.185V41.022C211.228 41.016 211.162 41.013 211.078 41.013C210.61 41.013 210.241 41.154 209.971 41.436C209.707 41.712 209.575 42.108 209.575 42.624V45H208.711V40.23H209.539V41.031ZM212.341 38.322H213.205V45H212.341V38.322ZM219.355 38.322V45H218.527V44.244C218.335 44.508 218.092 44.709 217.798 44.847C217.504 44.985 217.18 45.054 216.826 45.054C216.364 45.054 215.95 44.952 215.584 44.748C215.218 44.544 214.93 44.259 214.72 43.893C214.516 43.521 214.414 43.095 214.414 42.615C214.414 42.135 214.516 41.712 214.72 41.346C214.93 40.98 215.218 40.695 215.584 40.491C215.95 40.287 216.364 40.185 216.826 40.185C217.168 40.185 217.483 40.251 217.771 40.383C218.059 40.509 218.299 40.698 218.491 40.95V38.322H219.355ZM216.898 44.298C217.198 44.298 217.471 44.229 217.717 44.091C217.963 43.947 218.155 43.749 218.293 43.497C218.431 43.239 218.5 42.945 218.5 42.615C218.5 42.285 218.431 41.994 218.293 41.742C218.155 41.484 217.963 41.286 217.717 41.148C217.471 41.01 217.198 40.941 216.898 40.941C216.592 40.941 216.316 41.01 216.07 41.148C215.83 41.286 215.638 41.484 215.494 41.742C215.356 41.994 215.287 42.285 215.287 42.615C215.287 42.945 215.356 43.239 215.494 43.497C215.638 43.749 215.83 43.947 216.07 44.091C216.316 44.229 216.592 44.298 216.898 44.298Z" fill="black"/>
<defs>
<clipPath id="clip0">
<rect width="50" height="50" fill="white"/>
</clipPath>
</defs>
</svg>
