<svg width="971" height="840" viewBox="0 0 971 840" fill="none" xmlns="http://www.w3.org/2000/svg">
<g opacity="0.2">
<path opacity="0.3" d="M620.722 15.4732C624.162 15.4732 626.951 12.9733 626.951 9.88953C626.951 6.80575 624.162 4.30585 620.722 4.30585C617.282 4.30585 614.493 6.80575 614.493 9.88953C614.493 12.9733 617.282 15.4732 620.722 15.4732Z" fill="black"/>
<path opacity="0.5" d="M84.8382 707.272C88.2782 707.272 91.067 704.772 91.067 701.688C91.067 698.604 88.2782 696.104 84.8382 696.104C81.3981 696.104 78.6094 698.604 78.6094 701.688C78.6094 704.772 81.3981 707.272 84.8382 707.272Z" fill="black"/>
<path opacity="0.5" d="M39.991 643.541C43.4311 643.541 46.2198 641.041 46.2198 637.957C46.2198 634.873 43.4311 632.373 39.991 632.373C36.5509 632.373 33.7622 634.873 33.7622 637.957C33.7622 641.041 36.5509 643.541 39.991 643.541Z" stroke="black" stroke-width="2" stroke-miterlimit="10"/>
<path opacity="0.5" d="M13.2071 405.175C16.6471 405.175 19.4358 402.676 19.4358 399.592C19.4358 396.508 16.6471 394.008 13.2071 394.008C9.76699 394.008 6.97827 396.508 6.97827 399.592C6.97827 402.676 9.76699 405.175 13.2071 405.175Z" stroke="black" stroke-width="2" stroke-miterlimit="10"/>
<path opacity="0.5" d="M91.0669 350.109C94.507 350.109 97.2957 347.609 97.2957 344.525C97.2957 341.441 94.507 338.941 91.0669 338.941C87.6269 338.941 84.8381 341.441 84.8381 344.525C84.8381 347.609 87.6269 350.109 91.0669 350.109Z" stroke="black" stroke-width="2" stroke-miterlimit="10"/>
<path opacity="0.5" d="M251.977 553.239C255.417 553.239 258.206 550.739 258.206 547.655C258.206 544.572 255.417 542.072 251.977 542.072C248.537 542.072 245.749 544.572 245.749 547.655C245.749 550.739 248.537 553.239 251.977 553.239Z" stroke="black" stroke-width="2" stroke-miterlimit="10"/>
<path opacity="0.5" d="M483.896 509.34C487.336 509.34 490.125 506.84 490.125 503.756C490.125 500.673 487.336 498.173 483.896 498.173C480.456 498.173 477.667 500.673 477.667 503.756C477.667 506.84 480.456 509.34 483.896 509.34Z" stroke="black" stroke-width="2" stroke-miterlimit="10"/>
<path opacity="0.5" d="M300.77 447.342C304.21 447.342 306.998 444.842 306.998 441.758C306.998 438.674 304.21 436.175 300.77 436.175C297.33 436.175 294.541 438.674 294.541 441.758C294.541 444.842 297.33 447.342 300.77 447.342Z" stroke="black" stroke-width="2" stroke-miterlimit="10"/>
<path opacity="0.5" d="M410.604 602.722C414.044 602.722 416.833 600.222 416.833 597.139C416.833 594.055 414.044 591.555 410.604 591.555C407.164 591.555 404.375 594.055 404.375 597.139C404.375 600.222 407.164 602.722 410.604 602.722Z" stroke="black" stroke-width="2" stroke-miterlimit="10"/>
<path opacity="0.5" d="M347.486 311.023C350.926 311.023 353.714 308.523 353.714 305.44C353.714 302.356 350.926 299.856 347.486 299.856C344.046 299.856 341.257 302.356 341.257 305.44C341.257 308.523 344.046 311.023 347.486 311.023Z" stroke="black" stroke-width="2" stroke-miterlimit="10"/>
<path opacity="0.5" d="M133.838 712.856C137.278 712.856 140.067 710.356 140.067 707.272C140.067 704.188 137.278 701.688 133.838 701.688C130.398 701.688 127.609 704.188 127.609 707.272C127.609 710.356 130.398 712.856 133.838 712.856Z" fill="black"/>
<path opacity="0.5" d="M243.05 707.272C246.49 707.272 249.278 704.772 249.278 701.688C249.278 698.604 246.49 696.104 243.05 696.104C239.61 696.104 236.821 698.604 236.821 701.688C236.821 704.772 239.61 707.272 243.05 707.272Z" fill="black"/>
<path opacity="0.5" d="M281.876 650.087C285.316 650.087 288.104 647.587 288.104 644.504C288.104 641.42 285.316 638.92 281.876 638.92C278.436 638.92 275.647 641.42 275.647 644.504C275.647 647.587 278.436 650.087 281.876 650.087Z" fill="black"/>
<path opacity="0.5" d="M146.503 649.125C149.943 649.125 152.732 646.625 152.732 643.541C152.732 640.457 149.943 637.957 146.503 637.957C143.063 637.957 140.274 640.457 140.274 643.541C140.274 646.625 143.063 649.125 146.503 649.125Z" fill="black"/>
<path opacity="0.5" d="M52.6562 553.239C56.0962 553.239 58.8849 550.739 58.8849 547.655C58.8849 544.572 56.0962 542.072 52.6562 542.072C49.2161 542.072 46.4274 544.572 46.4274 547.655C46.4274 550.739 49.2161 553.239 52.6562 553.239Z" fill="black"/>
<path opacity="0.5" d="M65.3213 582.12C68.7614 582.12 71.5501 579.62 71.5501 576.537C71.5501 573.453 68.7614 570.953 65.3213 570.953C61.8813 570.953 59.0925 573.453 59.0925 576.537C59.0925 579.62 61.8813 582.12 65.3213 582.12Z" fill="black"/>
<path opacity="0.5" d="M175.156 602.722C178.596 602.722 181.385 600.222 181.385 597.139C181.385 594.055 178.596 591.555 175.156 591.555C171.716 591.555 168.927 594.055 168.927 597.139C168.927 600.222 171.716 602.722 175.156 602.722Z" fill="black"/>
<path opacity="0.5" d="M109.13 593.673C112.571 593.673 115.359 591.173 115.359 588.089C115.359 585.005 112.571 582.505 109.13 582.505C105.69 582.505 102.902 585.005 102.902 588.089C102.902 591.173 105.69 593.673 109.13 593.673Z" fill="black"/>
<path opacity="0.5" d="M91.0669 539.184C94.507 539.184 97.2957 536.684 97.2957 533.6C97.2957 530.516 94.507 528.016 91.0669 528.016C87.6269 528.016 84.8381 530.516 84.8381 533.6C84.8381 536.684 87.6269 539.184 91.0669 539.184Z" fill="black"/>
<path opacity="0.5" d="M24.6266 514.924C28.0667 514.924 30.8554 512.424 30.8554 509.34C30.8554 506.256 28.0667 503.756 24.6266 503.756C21.1866 503.756 18.3978 506.256 18.3978 509.34C18.3978 512.424 21.1866 514.924 24.6266 514.924Z" fill="black"/>
<path opacity="0.5" d="M6.9783 447.342C10.4184 447.342 13.2071 444.842 13.2071 441.758C13.2071 438.674 10.4184 436.175 6.9783 436.175C3.53824 436.175 0.749512 438.674 0.749512 441.758C0.749512 444.842 3.53824 447.342 6.9783 447.342Z" fill="black"/>
<path opacity="0.5" d="M109.13 452.926C112.571 452.926 115.359 450.426 115.359 447.342C115.359 444.258 112.571 441.758 109.13 441.758C105.69 441.758 102.902 444.258 102.902 447.342C102.902 450.426 105.69 452.926 109.13 452.926Z" fill="black"/>
<path opacity="0.5" d="M165.605 421.734C169.045 421.734 171.834 419.234 171.834 416.15C171.834 413.067 169.045 410.567 165.605 410.567C162.165 410.567 159.376 413.067 159.376 416.15C159.376 419.234 162.165 421.734 165.605 421.734Z" fill="black"/>
<path opacity="0.5" d="M56.3933 399.592C59.8334 399.592 62.6221 397.092 62.6221 394.008C62.6221 390.924 59.8334 388.424 56.3933 388.424C52.9533 388.424 50.1646 390.924 50.1646 394.008C50.1646 397.092 52.9533 399.592 56.3933 399.592Z" fill="black"/>
<path opacity="0.5" d="M24.6266 366.09C28.0667 366.09 30.8554 363.59 30.8554 360.506C30.8554 357.422 28.0667 354.922 24.6266 354.922C21.1866 354.922 18.3978 357.422 18.3978 360.506C18.3978 363.59 21.1866 366.09 24.6266 366.09Z" fill="black"/>
<path opacity="0.5" d="M6.9783 350.109C10.4184 350.109 13.2071 347.609 13.2071 344.525C13.2071 341.441 10.4184 338.941 6.9783 338.941C3.53824 338.941 0.749512 341.441 0.749512 344.525C0.749512 347.609 3.53824 350.109 6.9783 350.109Z" fill="black"/>
<path opacity="0.5" d="M15.9063 305.439C19.3463 305.439 22.135 302.94 22.135 299.856C22.135 296.772 19.3463 294.272 15.9063 294.272C12.4662 294.272 9.67749 296.772 9.67749 299.856C9.67749 302.94 12.4662 305.439 15.9063 305.439Z" fill="black"/>
<path opacity="0.5" d="M15.9063 260.77C19.3463 260.77 22.135 258.27 22.135 255.186C22.135 252.103 19.3463 249.603 15.9063 249.603C12.4662 249.603 9.67749 252.103 9.67749 255.186C9.67749 258.27 12.4662 260.77 15.9063 260.77Z" fill="black"/>
<path opacity="0.5" d="M24.6266 227.653C28.0667 227.653 30.8554 225.153 30.8554 222.069C30.8554 218.985 28.0667 216.486 24.6266 216.486C21.1866 216.486 18.3978 218.985 18.3978 222.069C18.3978 225.153 21.1866 227.653 24.6266 227.653Z" fill="black"/>
<path opacity="0.5" d="M88.1602 316.607C91.6003 316.607 94.389 314.107 94.389 311.023C94.389 307.939 91.6003 305.44 88.1602 305.44C84.7201 305.44 81.9314 307.939 81.9314 311.023C81.9314 314.107 84.7201 316.607 88.1602 316.607Z" fill="black"/>
<path opacity="0.5" d="M62.8299 341.252C66.2699 341.252 69.0587 338.752 69.0587 335.668C69.0587 332.585 66.2699 330.085 62.8299 330.085C59.3898 330.085 56.6011 332.585 56.6011 335.668C56.6011 338.752 59.3898 341.252 62.8299 341.252Z" fill="black"/>
<path opacity="0.5" d="M81.9314 380.145C85.3715 380.145 88.1602 377.645 88.1602 374.561C88.1602 371.478 85.3715 368.978 81.9314 368.978C78.4914 368.978 75.7026 371.478 75.7026 374.561C75.7026 377.645 78.4914 380.145 81.9314 380.145Z" fill="black"/>
<path opacity="0.5" d="M130.724 360.506C134.164 360.506 136.953 358.006 136.953 354.922C136.953 351.839 134.164 349.339 130.724 349.339C127.284 349.339 124.495 351.839 124.495 354.922C124.495 358.006 127.284 360.506 130.724 360.506Z" fill="black"/>
<path opacity="0.5" d="M208.168 488.546C211.608 488.546 214.397 486.046 214.397 482.962C214.397 479.878 211.608 477.378 208.168 477.378C204.728 477.378 201.939 479.878 201.939 482.962C201.939 486.046 204.728 488.546 208.168 488.546Z" fill="black"/>
<path opacity="0.5" d="M327.761 523.781C331.201 523.781 333.99 521.281 333.99 518.197C333.99 515.113 331.201 512.613 327.761 512.613C324.321 512.613 321.532 515.113 321.532 518.197C321.532 521.281 324.321 523.781 327.761 523.781Z" fill="black"/>
<path opacity="0.5" d="M413.926 509.34C417.366 509.34 420.155 506.84 420.155 503.756C420.155 500.673 417.366 498.173 413.926 498.173C410.486 498.173 407.697 500.673 407.697 503.756C407.697 506.84 410.486 509.34 413.926 509.34Z" fill="black"/>
<path opacity="0.5" d="M245.541 427.318C248.981 427.318 251.77 424.818 251.77 421.734C251.77 418.65 248.981 416.15 245.541 416.15C242.101 416.15 239.312 418.65 239.312 421.734C239.312 424.818 242.101 427.318 245.541 427.318Z" fill="black"/>
<path opacity="0.5" d="M251.977 347.028C255.417 347.028 258.206 344.528 258.206 341.445C258.206 338.361 255.417 335.861 251.977 335.861C248.537 335.861 245.749 338.361 245.749 341.445C245.749 344.528 248.537 347.028 251.977 347.028Z" fill="black"/>
<path opacity="0.5" d="M288.104 347.028C291.545 347.028 294.333 344.528 294.333 341.445C294.333 338.361 291.545 335.861 288.104 335.861C284.664 335.861 281.876 338.361 281.876 341.445C281.876 344.528 284.664 347.028 288.104 347.028Z" fill="black"/>
<path opacity="0.5" d="M309.075 347.028C312.515 347.028 315.304 344.528 315.304 341.445C315.304 338.361 312.515 335.861 309.075 335.861C305.635 335.861 302.846 338.361 302.846 341.445C302.846 344.528 305.635 347.028 309.075 347.028Z" fill="black"/>
<path opacity="0.5" d="M333.159 374.561C336.599 374.561 339.388 372.062 339.388 368.978C339.388 365.894 336.599 363.394 333.159 363.394C329.719 363.394 326.931 365.894 326.931 368.978C326.931 372.062 329.719 374.561 333.159 374.561Z" fill="black"/>
<path opacity="0.5" d="M386.519 468.907C389.959 468.907 392.748 466.407 392.748 463.323C392.748 460.239 389.959 457.739 386.519 457.739C383.079 457.739 380.291 460.239 380.291 463.323C380.291 466.407 383.079 468.907 386.519 468.907Z" fill="black"/>
<path opacity="0.5" d="M128.232 264.236C131.672 264.236 134.461 261.736 134.461 258.652C134.461 255.568 131.672 253.068 128.232 253.068C124.792 253.068 122.003 255.568 122.003 258.652C122.003 261.736 124.792 264.236 128.232 264.236Z" fill="black"/>
<path opacity="0.5" d="M134.461 155.258C137.901 155.258 140.69 152.758 140.69 149.674C140.69 146.59 137.901 144.09 134.461 144.09C131.021 144.09 128.232 146.59 128.232 149.674C128.232 152.758 131.021 155.258 134.461 155.258Z" fill="black"/>
<path opacity="0.5" d="M81.9314 196.461C85.3715 196.461 88.1602 193.962 88.1602 190.878C88.1602 187.794 85.3715 185.294 81.9314 185.294C78.4914 185.294 75.7026 187.794 75.7026 190.878C75.7026 193.962 78.4914 196.461 81.9314 196.461Z" fill="black"/>
<path opacity="0.5" d="M166.851 179.71C170.291 179.71 173.079 177.21 173.079 174.127C173.079 171.043 170.291 168.543 166.851 168.543C163.411 168.543 160.622 171.043 160.622 174.127C160.622 177.21 163.411 179.71 166.851 179.71Z" stroke="black" stroke-width="2" stroke-miterlimit="10"/>
<path opacity="0.5" d="M269.21 230.541C272.65 230.541 275.439 228.041 275.439 224.957C275.439 221.874 272.65 219.374 269.21 219.374C265.77 219.374 262.982 221.874 262.982 224.957C262.982 228.041 265.77 230.541 269.21 230.541Z" stroke="black" stroke-width="2" stroke-miterlimit="10"/>
<path opacity="0.5" d="M324.439 120.6C327.879 120.6 330.668 118.101 330.668 115.017C330.668 111.933 327.879 109.433 324.439 109.433C320.999 109.433 318.21 111.933 318.21 115.017C318.21 118.101 320.999 120.6 324.439 120.6Z" stroke="black" stroke-width="2" stroke-miterlimit="10"/>
<path opacity="0.5" d="M385.689 212.827C389.129 212.827 391.918 210.327 391.918 207.244C391.918 204.16 389.129 201.66 385.689 201.66C382.249 201.66 379.46 204.16 379.46 207.244C379.46 210.327 382.249 212.827 385.689 212.827Z" stroke="black" stroke-width="2" stroke-miterlimit="10"/>
<path opacity="0.5" d="M493.447 160.841C496.887 160.841 499.676 158.341 499.676 155.258C499.676 152.174 496.887 149.674 493.447 149.674C490.007 149.674 487.218 152.174 487.218 155.258C487.218 158.341 490.007 160.841 493.447 160.841Z" stroke="black" stroke-width="2" stroke-miterlimit="10"/>
<path opacity="0.5" d="M535.595 238.435C539.035 238.435 541.824 235.935 541.824 232.851C541.824 229.768 539.035 227.268 535.595 227.268C532.155 227.268 529.366 229.768 529.366 232.851C529.366 235.935 532.155 238.435 535.595 238.435Z" stroke="black" stroke-width="2" stroke-miterlimit="10"/>
<path opacity="0.5" d="M616.777 218.604C620.217 218.604 623.006 216.104 623.006 213.02C623.006 209.936 620.217 207.436 616.777 207.436C613.337 207.436 610.548 209.936 610.548 213.02C610.548 216.104 613.337 218.604 616.777 218.604Z" stroke="black" stroke-width="2" stroke-miterlimit="10"/>
<path opacity="0.5" d="M809.247 152.177C812.687 152.177 815.475 149.677 815.475 146.593C815.475 143.51 812.687 141.01 809.247 141.01C805.807 141.01 803.018 143.51 803.018 146.593C803.018 149.677 805.807 152.177 809.247 152.177Z" stroke="black" stroke-width="2" stroke-miterlimit="10"/>
<path opacity="0.5" d="M908.285 238.435C911.725 238.435 914.513 235.935 914.513 232.851C914.513 229.768 911.725 227.268 908.285 227.268C904.845 227.268 902.056 229.768 902.056 232.851C902.056 235.935 904.845 238.435 908.285 238.435Z" stroke="black" stroke-width="2" stroke-miterlimit="10"/>
<path opacity="0.5" d="M935.069 385.729C938.508 385.729 941.297 383.229 941.297 380.145C941.297 377.061 938.508 374.561 935.069 374.561C931.629 374.561 928.84 377.061 928.84 380.145C928.84 383.229 931.629 385.729 935.069 385.729Z" stroke="black" stroke-width="2" stroke-miterlimit="10"/>
<path opacity="0.5" d="M933.823 646.236C937.263 646.236 940.051 643.737 940.051 640.653C940.051 637.569 937.263 635.069 933.823 635.069C930.382 635.069 927.594 637.569 927.594 640.653C927.594 643.737 930.382 646.236 933.823 646.236Z" stroke="black" stroke-width="2" stroke-miterlimit="10"/>
<path opacity="0.5" d="M716.438 371.673C719.878 371.673 722.667 369.174 722.667 366.09C722.667 363.006 719.878 360.506 716.438 360.506C712.998 360.506 710.209 363.006 710.209 366.09C710.209 369.174 712.998 371.673 716.438 371.673Z" stroke="black" stroke-width="2" stroke-miterlimit="10"/>
<path opacity="0.5" d="M648.959 496.055C652.399 496.055 655.188 493.555 655.188 490.471C655.188 487.387 652.399 484.887 648.959 484.887C645.519 484.887 642.73 487.387 642.73 490.471C642.73 493.555 645.519 496.055 648.959 496.055Z" stroke="black" stroke-width="2" stroke-miterlimit="10"/>
<path opacity="0.5" d="M554.074 402.673C557.514 402.673 560.303 400.173 560.303 397.089C560.303 394.005 557.514 391.505 554.074 391.505C550.634 391.505 547.845 394.005 547.845 397.089C547.845 400.173 550.634 402.673 554.074 402.673Z" stroke="black" stroke-width="2" stroke-miterlimit="10"/>
<path opacity="0.5" d="M582.103 421.734C585.544 421.734 588.332 419.234 588.332 416.15C588.332 413.067 585.544 410.567 582.103 410.567C578.663 410.567 575.875 413.067 575.875 416.15C575.875 419.234 578.663 421.734 582.103 421.734Z" stroke="black" stroke-width="2" stroke-miterlimit="10"/>
<path opacity="0.5" d="M239.312 146.401C242.752 146.401 245.541 143.901 245.541 140.817C245.541 137.733 242.752 135.233 239.312 135.233C235.872 135.233 233.083 137.733 233.083 140.817C233.083 143.901 235.872 146.401 239.312 146.401Z" fill="black"/>
<path opacity="0.5" d="M239.312 190.878C242.752 190.878 245.541 188.378 245.541 185.294C245.541 182.21 242.752 179.71 239.312 179.71C235.872 179.71 233.083 182.21 233.083 185.294C233.083 188.378 235.872 190.878 239.312 190.878Z" fill="black"/>
<path opacity="0.5" d="M214.397 245.367C217.837 245.367 220.626 242.867 220.626 239.783C220.626 236.699 217.837 234.199 214.397 234.199C210.957 234.199 208.168 236.699 208.168 239.783C208.168 242.867 210.957 245.367 214.397 245.367Z" fill="black"/>
<path opacity="0.5" d="M243.672 245.367C247.112 245.367 249.901 242.867 249.901 239.783C249.901 236.699 247.112 234.199 243.672 234.199C240.232 234.199 237.444 236.699 237.444 239.783C237.444 242.867 240.232 245.367 243.672 245.367Z" fill="black"/>
<path opacity="0.5" d="M300.77 211.865C304.21 211.865 306.998 209.365 306.998 206.281C306.998 203.197 304.21 200.697 300.77 200.697C297.33 200.697 294.541 203.197 294.541 206.281C294.541 209.365 297.33 211.865 300.77 211.865Z" fill="black"/>
<path opacity="0.5" d="M463.756 241.901C467.196 241.901 469.985 239.401 469.985 236.317C469.985 233.234 467.196 230.734 463.756 230.734C460.316 230.734 457.528 233.234 457.528 236.317C457.528 239.401 460.316 241.901 463.756 241.901Z" fill="black"/>
<path opacity="0.5" d="M330.668 152.177C334.108 152.177 336.897 149.677 336.897 146.593C336.897 143.51 334.108 141.01 330.668 141.01C327.228 141.01 324.439 143.51 324.439 146.593C324.439 149.677 327.228 152.177 330.668 152.177Z" fill="black"/>
<path opacity="0.5" d="M288.104 90.9491C291.545 90.9491 294.333 88.4492 294.333 85.3655C294.333 82.2817 291.545 79.7818 288.104 79.7818C284.664 79.7818 281.876 82.2817 281.876 85.3655C281.876 88.4492 284.664 90.9491 288.104 90.9491Z" fill="black"/>
<path opacity="0.5" d="M359.943 53.2111C363.383 53.2111 366.172 50.7112 366.172 47.6274C366.172 44.5437 363.383 42.0438 359.943 42.0438C356.503 42.0438 353.714 44.5437 353.714 47.6274C353.714 50.7112 356.503 53.2111 359.943 53.2111Z" fill="black"/>
<path opacity="0.5" d="M359.943 115.017C363.383 115.017 366.172 112.517 366.172 109.433C366.172 106.349 363.383 103.849 359.943 103.849C356.503 103.849 353.714 106.349 353.714 109.433C353.714 112.517 356.503 115.017 359.943 115.017Z" fill="black"/>
<path opacity="0.5" d="M386.519 76.7011C389.959 76.7011 392.748 74.2012 392.748 71.1174C392.748 68.0337 389.959 65.5338 386.519 65.5338C383.079 65.5338 380.291 68.0337 380.291 71.1174C380.291 74.2012 383.079 76.7011 386.519 76.7011Z" fill="black"/>
<path opacity="0.5" d="M457.32 126.184C460.76 126.184 463.549 123.684 463.549 120.6C463.549 117.517 460.76 115.017 457.32 115.017C453.88 115.017 451.091 117.517 451.091 120.6C451.091 123.684 453.88 126.184 457.32 126.184Z" fill="black"/>
<path opacity="0.5" d="M493.447 90.9491C496.887 90.9491 499.676 88.4492 499.676 85.3655C499.676 82.2817 496.887 79.7818 493.447 79.7818C490.007 79.7818 487.218 82.2817 487.218 85.3655C487.218 88.4492 490.007 90.9491 493.447 90.9491Z" fill="black"/>
<path opacity="0.5" d="M526.46 73.6204C529.9 73.6204 532.689 71.1205 532.689 68.0367C532.689 64.953 529.9 62.4531 526.46 62.4531C523.02 62.4531 520.231 64.953 520.231 68.0367C520.231 71.1205 523.02 73.6204 526.46 73.6204Z" fill="black"/>
<path opacity="0.5" d="M556.981 53.2111C560.421 53.2111 563.21 50.7112 563.21 47.6274C563.21 44.5437 560.421 42.0438 556.981 42.0438C553.541 42.0438 550.752 44.5437 550.752 47.6274C550.752 50.7112 553.541 53.2111 556.981 53.2111Z" fill="black"/>
<path opacity="0.5" d="M588.125 37.8079C591.565 37.8079 594.353 35.308 594.353 32.2242C594.353 29.1404 591.565 26.6405 588.125 26.6405C584.684 26.6405 581.896 29.1404 581.896 32.2242C581.896 35.308 584.684 37.8079 588.125 37.8079Z" fill="black"/>
<path opacity="0.5" d="M448.184 32.2242C451.624 32.2242 454.413 29.7243 454.413 26.6406C454.413 23.5568 451.624 21.0569 448.184 21.0569C444.744 21.0569 441.956 23.5568 441.956 26.6406C441.956 29.7243 444.744 32.2242 448.184 32.2242Z" fill="black"/>
<path opacity="0.5" d="M384.028 26.6405C387.468 26.6405 390.257 24.1406 390.257 21.0568C390.257 17.973 387.468 15.4731 384.028 15.4731C380.588 15.4731 377.799 17.973 377.799 21.0568C377.799 24.1406 380.588 26.6405 384.028 26.6405Z" fill="black"/>
<path opacity="0.5" d="M655.603 32.2242C659.044 32.2242 661.832 29.7243 661.832 26.6406C661.832 23.5568 659.044 21.0569 655.603 21.0569C652.163 21.0569 649.375 23.5568 649.375 26.6406C649.375 29.7243 652.163 32.2242 655.603 32.2242Z" fill="black"/>
<path opacity="0.5" d="M688.616 53.2111C692.056 53.2111 694.845 50.7112 694.845 47.6274C694.845 44.5437 692.056 42.0438 688.616 42.0438C685.176 42.0438 682.387 44.5437 682.387 47.6274C682.387 50.7112 685.176 53.2111 688.616 53.2111Z" fill="black"/>
<path opacity="0.5" d="M578.159 137.351C581.599 137.351 584.387 134.852 584.387 131.768C584.387 128.684 581.599 126.184 578.159 126.184C574.718 126.184 571.93 128.684 571.93 131.768C571.93 134.852 574.718 137.351 578.159 137.351Z" fill="black"/>
<path opacity="0.5" d="M688.616 103.849C692.056 103.849 694.845 101.349 694.845 98.2656C694.845 95.1819 692.056 92.6819 688.616 92.6819C685.176 92.6819 682.387 95.1819 682.387 98.2656C682.387 101.349 685.176 103.849 688.616 103.849Z" fill="black"/>
<path opacity="0.5" d="M701.281 131.768C704.721 131.768 707.51 129.268 707.51 126.184C707.51 123.1 704.721 120.6 701.281 120.6C697.841 120.6 695.052 123.1 695.052 126.184C695.052 129.268 697.841 131.768 701.281 131.768Z" fill="black"/>
<path opacity="0.5" d="M750.281 85.1729C753.721 85.1729 756.51 82.673 756.51 79.5892C756.51 76.5055 753.721 74.0056 750.281 74.0056C746.841 74.0056 744.052 76.5055 744.052 79.5892C744.052 82.673 746.841 85.1729 750.281 85.1729Z" fill="black"/>
<path opacity="0.5" d="M688.616 206.281C692.056 206.281 694.845 203.781 694.845 200.697C694.845 197.614 692.056 195.114 688.616 195.114C685.176 195.114 682.387 197.614 682.387 200.697C682.387 203.781 685.176 206.281 688.616 206.281Z" fill="black"/>
<path opacity="0.5" d="M783.917 123.874C787.357 123.874 790.145 121.374 790.145 118.29C790.145 115.206 787.357 112.706 783.917 112.706C780.476 112.706 777.688 115.206 777.688 118.29C777.688 121.374 780.476 123.874 783.917 123.874Z" fill="black"/>
<path opacity="0.5" d="M790.145 241.901C793.585 241.901 796.374 239.401 796.374 236.317C796.374 233.234 793.585 230.734 790.145 230.734C786.705 230.734 783.917 233.234 783.917 236.317C783.917 239.401 786.705 241.901 790.145 241.901Z" fill="black"/>
<path opacity="0.5" d="M835.408 185.294C838.848 185.294 841.637 182.794 841.637 179.71C841.637 176.627 838.848 174.127 835.408 174.127C831.968 174.127 829.179 176.627 829.179 179.71C829.179 182.794 831.968 185.294 835.408 185.294Z" fill="black"/>
<path opacity="0.5" d="M879.84 188.182C883.28 188.182 886.068 185.682 886.068 182.598C886.068 179.515 883.28 177.015 879.84 177.015C876.4 177.015 873.611 179.515 873.611 182.598C873.611 185.682 876.4 188.182 879.84 188.182Z" fill="black"/>
<path opacity="0.5" d="M679.896 264.236C683.336 264.236 686.124 261.736 686.124 258.652C686.124 255.568 683.336 253.068 679.896 253.068C676.455 253.068 673.667 255.568 673.667 258.652C673.667 261.736 676.455 264.236 679.896 264.236Z" fill="black"/>
<path opacity="0.5" d="M514.002 188.182C517.442 188.182 520.231 185.682 520.231 182.598C520.231 179.515 517.442 177.015 514.002 177.015C510.562 177.015 507.773 179.515 507.773 182.598C507.773 185.682 510.562 188.182 514.002 188.182Z" fill="black"/>
<path opacity="0.5" d="M550.752 185.294C554.192 185.294 556.981 182.794 556.981 179.71C556.981 176.627 554.192 174.127 550.752 174.127C547.312 174.127 544.523 176.627 544.523 179.71C544.523 182.794 547.312 185.294 550.752 185.294Z" fill="black"/>
<path opacity="0.5" d="M399.185 311.023C402.625 311.023 405.413 308.523 405.413 305.44C405.413 302.356 402.625 299.856 399.185 299.856C395.744 299.856 392.956 302.356 392.956 305.44C392.956 308.523 395.744 311.023 399.185 311.023Z" fill="black"/>
<path opacity="0.5" d="M507.566 377.257C511.006 377.257 513.794 374.757 513.794 371.673C513.794 368.59 511.006 366.09 507.566 366.09C504.126 366.09 501.337 368.59 501.337 371.673C501.337 374.757 504.126 377.257 507.566 377.257Z" fill="black"/>
<path opacity="0.5" d="M575.667 365.897C579.107 365.897 581.896 363.397 581.896 360.314C581.896 357.23 579.107 354.73 575.667 354.73C572.227 354.73 569.438 357.23 569.438 360.314C569.438 363.397 572.227 365.897 575.667 365.897Z" fill="black"/>
<path opacity="0.5" d="M673.459 407.293C676.899 407.293 679.688 404.794 679.688 401.71C679.688 398.626 676.899 396.126 673.459 396.126C670.019 396.126 667.23 398.626 667.23 401.71C667.23 404.794 670.019 407.293 673.459 407.293Z" fill="black"/>
<path opacity="0.5" d="M801.98 469.676C805.42 469.676 808.209 467.177 808.209 464.093C808.209 461.009 805.42 458.509 801.98 458.509C798.54 458.509 795.751 461.009 795.751 464.093C795.751 467.177 798.54 469.676 801.98 469.676Z" fill="black"/>
<path opacity="0.5" d="M844.958 412.877C848.398 412.877 851.187 410.377 851.187 407.293C851.187 404.21 848.398 401.71 844.958 401.71C841.518 401.71 838.73 404.21 838.73 407.293C838.73 410.377 841.518 412.877 844.958 412.877Z" fill="black"/>
<path opacity="0.5" d="M766.268 397.089C769.708 397.089 772.497 394.589 772.497 391.505C772.497 388.421 769.708 385.921 766.268 385.921C762.828 385.921 760.039 388.421 760.039 391.505C760.039 394.589 762.828 397.089 766.268 397.089Z" fill="black"/>
<path opacity="0.5" d="M463.756 422.504C467.196 422.504 469.985 420.004 469.985 416.921C469.985 413.837 467.196 411.337 463.756 411.337C460.316 411.337 457.528 413.837 457.528 416.921C457.528 420.004 460.316 422.504 463.756 422.504Z" fill="black"/>
<path opacity="0.5" d="M667.23 347.028C670.67 347.028 673.459 344.528 673.459 341.445C673.459 338.361 670.67 335.861 667.23 335.861C663.79 335.861 661.001 338.361 661.001 341.445C661.001 344.528 663.79 347.028 667.23 347.028Z" fill="black"/>
<path opacity="0.5" d="M642.73 316.607C646.17 316.607 648.959 314.107 648.959 311.023C648.959 307.939 646.17 305.44 642.73 305.44C639.29 305.44 636.501 307.939 636.501 311.023C636.501 314.107 639.29 316.607 642.73 316.607Z" fill="black"/>
<path opacity="0.5" d="M844.958 322.19C848.398 322.19 851.187 319.691 851.187 316.607C851.187 313.523 848.398 311.023 844.958 311.023C841.518 311.023 838.73 313.523 838.73 316.607C838.73 319.691 841.518 322.19 844.958 322.19Z" fill="black"/>
<path opacity="0.5" d="M844.958 236.317C848.398 236.317 851.187 233.817 851.187 230.734C851.187 227.65 848.398 225.15 844.958 225.15C841.518 225.15 838.73 227.65 838.73 230.734C838.73 233.817 841.518 236.317 844.958 236.317Z" fill="black"/>
<path opacity="0.5" d="M930.501 278.869C933.941 278.869 936.729 276.369 936.729 273.285C936.729 270.201 933.941 267.701 930.501 267.701C927.06 267.701 924.272 270.201 924.272 273.285C924.272 276.369 927.06 278.869 930.501 278.869Z" fill="black"/>
<path opacity="0.5" d="M930.501 311.023C933.941 311.023 936.729 308.523 936.729 305.44C936.729 302.356 933.941 299.856 930.501 299.856C927.06 299.856 924.272 302.356 924.272 305.44C924.272 308.523 927.06 311.023 930.501 311.023Z" fill="black"/>
<path opacity="0.5" d="M902.056 366.09C905.496 366.09 908.285 363.59 908.285 360.506C908.285 357.422 905.496 354.922 902.056 354.922C898.616 354.922 895.827 357.422 895.827 360.506C895.827 363.59 898.616 366.09 902.056 366.09Z" fill="black"/>
<path opacity="0.5" d="M902.056 449.075C905.496 449.075 908.285 446.575 908.285 443.491C908.285 440.407 905.496 437.907 902.056 437.907C898.616 437.907 895.827 440.407 895.827 443.491C895.827 446.575 898.616 449.075 902.056 449.075Z" fill="black"/>
<path opacity="0.5" d="M962.89 437.907C966.33 437.907 969.119 435.407 969.119 432.324C969.119 429.24 966.33 426.74 962.89 426.74C959.45 426.74 956.661 429.24 956.661 432.324C956.661 435.407 959.45 437.907 962.89 437.907Z" fill="black"/>
<path opacity="0.5" d="M935.069 534.948C938.508 534.948 941.297 532.448 941.297 529.364C941.297 526.28 938.508 523.781 935.069 523.781C931.629 523.781 928.84 526.28 928.84 529.364C928.84 532.448 931.629 534.948 935.069 534.948Z" fill="black"/>
<path opacity="0.5" d="M909.738 579.232C913.178 579.232 915.967 576.732 915.967 573.649C915.967 570.565 913.178 568.065 909.738 568.065C906.298 568.065 903.509 570.565 903.509 573.649C903.509 576.732 906.298 579.232 909.738 579.232Z" fill="black"/>
<path opacity="0.5" d="M889.391 625.057C892.831 625.057 895.619 622.557 895.619 619.473C895.619 616.389 892.831 613.89 889.391 613.89C885.951 613.89 883.162 616.389 883.162 619.473C883.162 622.557 885.951 625.057 889.391 625.057Z" fill="black"/>
<path opacity="0.5" d="M793.467 646.236C796.907 646.236 799.696 643.737 799.696 640.653C799.696 637.569 796.907 635.069 793.467 635.069C790.027 635.069 787.239 637.569 787.239 640.653C787.239 643.737 790.027 646.236 793.467 646.236Z" fill="black"/>
<path opacity="0.5" d="M825.026 719.979C828.466 719.979 831.255 717.48 831.255 714.396C831.255 711.312 828.466 708.812 825.026 708.812C821.586 708.812 818.798 711.312 818.798 714.396C818.798 717.48 821.586 719.979 825.026 719.979Z" fill="black"/>
<path opacity="0.5" d="M921.157 704.576C924.598 704.576 927.386 702.076 927.386 698.993C927.386 695.909 924.598 693.409 921.157 693.409C917.717 693.409 914.929 695.909 914.929 698.993C914.929 702.076 917.717 704.576 921.157 704.576Z" fill="black"/>
<path opacity="0.5" d="M477.667 380.145C481.108 380.145 483.896 377.645 483.896 374.561C483.896 371.478 481.108 368.978 477.667 368.978C474.227 368.978 471.439 371.478 471.439 374.561C471.439 377.645 474.227 380.145 477.667 380.145Z" fill="black"/>
<path opacity="0.5" d="M928.632 644.504L915.967 654.708H833.331L827.103 661.255H649.997L554.074 753.096V838.5" stroke="black" stroke-width="2" stroke-miterlimit="10"/>
<path opacity="0.5" d="M969.95 676.08H941.297L915.967 654.708" stroke="black" stroke-width="2" stroke-miterlimit="10"/>
<path opacity="0.5" d="M917.005 696.105L904.547 682.434H848.696L827.103 661.255" stroke="black" stroke-width="2" stroke-miterlimit="10"/>
<path opacity="0.5" d="M820.666 710.352L799.696 690.713H751.527L723.082 661.255" stroke="black" stroke-width="2" stroke-miterlimit="10"/>
<path opacity="0.5" d="M788.899 644.504L771.874 661.255" stroke="black" stroke-width="2" stroke-miterlimit="10"/>
<path opacity="0.5" d="M549.921 838V747.513L679.273 627.367H771.874L809.247 595.213L834.162 619.473H882.954" stroke="black" stroke-width="2" stroke-miterlimit="10"/>
<path opacity="0.5" d="M969.95 577.114L952.094 595.213L969.95 613.889" stroke="black" stroke-width="2" stroke-miterlimit="10"/>
<path opacity="0.5" d="M809.247 595.213H952.094" stroke="black" stroke-width="2" stroke-miterlimit="10"/>
<path opacity="0.5" d="M544.523 839V744.432L712.285 591.555H767.514L806.132 551.506H961.022L969.95 542.649" stroke="black" stroke-width="2" stroke-miterlimit="10"/>
<path opacity="0.5" d="M540.37 839V742.122L716.438 578.847L736.37 558.053H769.382L823.988 505.104V479.111L930.5 384.189" stroke="black" stroke-width="2" stroke-miterlimit="10"/>
<path opacity="0.5" d="M535.595 838V739.619L716.438 569.605C716.023 526.861 716.023 526.861 716.023 526.861L839.768 410.759" stroke="black" stroke-width="2" stroke-miterlimit="10"/>
<path opacity="0.5" d="M517.947 839L517.948 737.886L675.122 597.139V536.873L741.355 475.068V348.761L766.27 327.197V137.544L779.558 122.333" stroke="black" stroke-width="2" stroke-miterlimit="10"/>
<path opacity="0.5" d="M511.718 838.5L511.718 733.842L592.692 661.254C593.731 568.642 593.731 568.642 593.731 568.642L631.726 534.948V407.293L667.23 377.257V346.836" stroke="black" stroke-width="2" stroke-miterlimit="10"/>
<path opacity="0.5" d="M506.528 839L506.528 730.377L537.464 704.191V652.976L568.193 619.473V512.613L597.26 482.962V368.015L618.853 349.339V305.439L654.98 273.285L655.603 123.874L683.425 101.346" stroke="black" stroke-width="2" stroke-miterlimit="10"/>
<path opacity="0.5" d="M492.201 838V712.855L509.434 696.104V649.124L554.074 606.573L556.565 488.546L582.103 468.906V421.734" stroke="black" stroke-width="2" stroke-miterlimit="10"/>
<path opacity="0.5" d="M485.972 838.5V710.352L502.583 695.912V611.772C502.583 611.772 537.256 579.04 537.048 579.232C536.841 579.425 536.841 579.425 536.841 579.425L537.048 477.763L575.667 447.342V363.394" stroke="black" stroke-width="2" stroke-miterlimit="10"/>
<path opacity="0.5" d="M432.82 839.5V677.813L251.977 510.88C251.355 466.403 251.355 466.403 251.355 466.403L269.21 452.348V391.313L286.651 378.99L288.312 346.836" stroke="black" stroke-width="2" stroke-miterlimit="10"/>
<path opacity="0.5" d="M427.007 838.5V679.931L231.422 498.173H197.995L115.567 421.734V384.189L91.067 363.394V347.028" stroke="black" stroke-width="2" stroke-miterlimit="10"/>
<path opacity="0.5" d="M420.155 838V682.627L303.676 574.804H249.486L201.94 533.6H97.5034" stroke="black" stroke-width="2" stroke-miterlimit="10"/>
<path opacity="0.5" d="M412.68 839V685.9L384.651 664.143L342.087 621.784H140.482L112.245 591.555" stroke="black" stroke-width="2" stroke-miterlimit="10"/>
<path opacity="0.5" d="M441.333 838.5V649.125L284.575 503.756L300.77 492.589V447.342" stroke="black" stroke-width="2" stroke-miterlimit="10"/>
<path opacity="0.5" d="M470.816 838.5V649.124L488.049 635.069V602.722L502.79 591.555V544.96L524.176 525.898V510.88L521.684 396.126L540.371 377.257V341.444L564.871 319.302" stroke="black" stroke-width="2" stroke-miterlimit="10"/>
<path opacity="0.5" d="M483.897 509.34V577.114L466.457 593.48L466.456 838.5" stroke="black" stroke-width="2" stroke-miterlimit="10"/>
<path opacity="0.5" d="M460.434 838.5V500.291L441.333 481.229L444.655 380.145L483.896 341.445L485.972 299.856L463.756 275.596V241.901" stroke="black" stroke-width="2" stroke-miterlimit="10"/>
<path opacity="0.5" d="M453.167 839V605.418L320.91 482.962V330.085L329.63 322.19L330.668 152.177" stroke="black" stroke-width="2" stroke-miterlimit="10"/>
<path opacity="0.5" d="M642.73 316.607V356.848L667.23 377.257" stroke="black" stroke-width="2" stroke-miterlimit="10"/>
<path opacity="0.5" d="M928.632 529.364H866.967L846.827 551.506" stroke="black" stroke-width="2" stroke-miterlimit="10"/>
<path opacity="0.5" d="M905.585 572.108L882.954 551.506" stroke="black" stroke-width="2" stroke-miterlimit="10"/>
<path opacity="0.5" d="M969.949 396.126L956.661 410.567L903.302 408.449" stroke="black" stroke-width="2" stroke-miterlimit="10"/>
<path opacity="0.5" d="M962.89 437.907V476.801" stroke="black" stroke-width="2" stroke-miterlimit="10"/>
<path opacity="0.5" d="M902.056 449.075V476.801L869.874 506.452" stroke="black" stroke-width="2" stroke-miterlimit="10"/>
<path opacity="0.5" d="M823.988 505.104L930.5 506.452L969.949 470.639" stroke="black" stroke-width="2" stroke-miterlimit="10"/>
<path opacity="0.5" d="M769.383 558.053V515.694L802.188 488.546V466.211V392.083L925.725 276.943" stroke="black" stroke-width="2" stroke-miterlimit="10"/>
<path opacity="0.5" d="M801.98 423.467L769.383 396.126" stroke="black" stroke-width="2" stroke-miterlimit="10"/>
<path opacity="0.5" d="M899.357 363.779C895.412 369.941 893.128 372.251 893.128 372.251L830.217 366.09" stroke="black" stroke-width="2" stroke-miterlimit="10"/>
<path opacity="0.5" d="M925.725 309.098C909.738 325.464 909.738 325.464 909.738 325.464H873.403" stroke="black" stroke-width="2" stroke-miterlimit="10"/>
<path opacity="0.5" d="M844.958 322.19V352.419" stroke="black" stroke-width="2" stroke-miterlimit="10"/>
<path opacity="0.5" d="M741.353 440.603C718.306 421.156 718.306 421.156 718.306 421.156L716.022 371.288" stroke="black" stroke-width="2" stroke-miterlimit="10"/>
<path opacity="0.5" d="M741.353 382.456L903.302 236.317" stroke="black" stroke-width="2" stroke-miterlimit="10"/>
<path opacity="0.5" d="M879.84 188.375V257.497" stroke="black" stroke-width="2" stroke-miterlimit="10"/>
<path opacity="0.5" d="M844.958 236.317L847.658 286.57" stroke="black" stroke-width="2" stroke-miterlimit="10"/>
<path opacity="0.5" d="M811.323 319.302L790.145 299.856V241.901L835.408 209.362V185.294" stroke="black" stroke-width="2" stroke-miterlimit="10"/>
<path opacity="0.5" d="M809.247 152.177V228.038" stroke="black" stroke-width="2" stroke-miterlimit="10"/>
<path opacity="0.5" d="M626.328 640.653C624.46 601.182 624.459 601.182 624.459 601.182L660.794 568.065V518.197L700.036 477.763L696.921 319.302L679.688 299.856V264.236" stroke="black" stroke-width="2" stroke-miterlimit="10"/>
<path opacity="0.5" d="M750.281 85.3654V222.839L732.425 239.783V289.266L696.921 319.302" stroke="black" stroke-width="2" stroke-miterlimit="10"/>
<path opacity="0.5" d="M692.146 205.318L732.425 239.783" stroke="black" stroke-width="2" stroke-miterlimit="10"/>
<path opacity="0.5" d="M705.018 130.805L750.281 168.543" stroke="black" stroke-width="2" stroke-miterlimit="10"/>
<path opacity="0.5" d="M620.722 15.4731L618.23 155.258L654.98 188.375" stroke="black" stroke-width="2" stroke-miterlimit="10"/>
<path opacity="0.5" d="M588.125 37.8079V71.1174L618.23 98.2656" stroke="black" stroke-width="2" stroke-miterlimit="10"/>
<path opacity="0.5" d="M655.603 32.2242L654.98 74.0056L683.425 50.9007" stroke="black" stroke-width="2" stroke-miterlimit="10"/>
<path opacity="0.5" d="M554.074 402.672L555.942 432.324L575.667 447.342" stroke="black" stroke-width="2" stroke-miterlimit="10"/>
<path opacity="0.5" d="M540.37 341.444C538.917 325.849 538.917 325.849 538.917 325.849L514.002 302.936V188.375" stroke="black" stroke-width="2" stroke-miterlimit="10"/>
<path opacity="0.5" d="M514.002 293.309L535.595 273.285V238.435" stroke="black" stroke-width="2" stroke-miterlimit="10"/>
<path opacity="0.5" d="M603.281 360.506L600.375 273.285L618.23 257.497L617.4 216.486" stroke="black" stroke-width="2" stroke-miterlimit="10"/>
<path opacity="0.5" d="M600.375 273.285L578.159 253.068V137.544" stroke="black" stroke-width="2" stroke-miterlimit="10"/>
<path opacity="0.5" d="M493.447 90.9491V120.6L526.46 149.674L556.981 118.29V53.2111" stroke="black" stroke-width="2" stroke-miterlimit="10"/>
<path opacity="0.5" d="M526.459 73.6205V149.674" stroke="black" stroke-width="2" stroke-miterlimit="10"/>
<path opacity="0.5" d="M483.896 498.173V486.235L502.79 472.372L501.337 396.126L481.405 378.99" stroke="black" stroke-width="2" stroke-miterlimit="10"/>
<path opacity="0.5" d="M460.227 528.016L405.414 474.105V380.145L384.651 354.73V213.02" stroke="black" stroke-width="2" stroke-miterlimit="10"/>
<path opacity="0.5" d="M444.24 377.257L428.045 366.09V260.77L441.333 252.298L439.256 207.436L490.333 160.264" stroke="black" stroke-width="2" stroke-miterlimit="10"/>
<path opacity="0.5" d="M428.045 260.77L411.227 241.901V161.034V47.6275L385.689 23.7524" stroke="black" stroke-width="2" stroke-miterlimit="10"/>
<path opacity="0.5" d="M454.413 123.874L411.227 161.034" stroke="black" stroke-width="2" stroke-miterlimit="10"/>
<path opacity="0.5" d="M432.82 0.262451L436.142 79.5892L411.227 106.16" stroke="black" stroke-width="2" stroke-miterlimit="10"/>
<path opacity="0.5" d="M448.185 32.2242V62.4531L467.079 79.5892L532.896 21.0568V0.262451" stroke="black" stroke-width="2" stroke-miterlimit="10"/>
<path opacity="0.5" d="M493.447 0.262451V56.2918" stroke="black" stroke-width="2" stroke-miterlimit="10"/>
<path opacity="0.5" d="M483.896 492.589V434.634L463.756 416.921" stroke="black" stroke-width="2" stroke-miterlimit="10"/>
<path opacity="0.5" d="M413.926 509.34V568.065" stroke="black" stroke-width="2" stroke-miterlimit="10"/>
<path opacity="0.5" d="M413.303 535.14L386.935 514.924L386.52 468.907" stroke="black" stroke-width="2" stroke-miterlimit="10"/>
<path opacity="0.5" d="M375.515 533.6V452.541L349.147 425.007V311.023" stroke="black" stroke-width="2" stroke-miterlimit="10"/>
<path opacity="0.5" d="M329.63 521.278L405.413 593.865" stroke="black" stroke-width="2" stroke-miterlimit="10"/>
<path opacity="0.5" d="M342.295 502.024V477.378L358.075 464.093" stroke="black" stroke-width="2" stroke-miterlimit="10"/>
<path opacity="0.5" d="M269.21 230.734L272.325 283.297L320.909 330.085" stroke="black" stroke-width="2" stroke-miterlimit="10"/>
<path opacity="0.5" d="M300.77 211.865V255.186L272.325 283.297" stroke="black" stroke-width="2" stroke-miterlimit="10"/>
<path opacity="0.5" d="M324.439 109.433V82.0922L355.375 51.4783" stroke="black" stroke-width="2" stroke-miterlimit="10"/>
<path opacity="0.5" d="M386.935 357.618L399.807 347.028L399.185 311.023" stroke="black" stroke-width="2" stroke-miterlimit="10"/>
<path opacity="0.5" d="M399.185 299.856L375.515 273.285H363.058L360.981 171.624L359.943 115.017" stroke="black" stroke-width="2" stroke-miterlimit="10"/>
<path opacity="0.5" d="M386.519 76.7012L386.935 152.177L360.981 171.624" stroke="black" stroke-width="2" stroke-miterlimit="10"/>
<path opacity="0.5" d="M288.104 90.9491V160.264L239.312 206.281V190.878" stroke="black" stroke-width="2" stroke-miterlimit="10"/>
<path opacity="0.5" d="M309.075 347.028V394.008L284.575 416.15V503.756" stroke="black" stroke-width="2" stroke-miterlimit="10"/>
<path opacity="0.5" d="M243.672 245.367V293.309L255.092 299.856" stroke="black" stroke-width="2" stroke-miterlimit="10"/>
<path opacity="0.5" d="M251.977 347.028L251.355 371.288L269.21 391.505" stroke="black" stroke-width="2" stroke-miterlimit="10"/>
<path opacity="0.5" d="M251.355 466.403L134.461 359.351" stroke="black" stroke-width="2" stroke-miterlimit="10"/>
<path opacity="0.5" d="M165.605 421.734V440.603L204.016 478.726" stroke="black" stroke-width="2" stroke-miterlimit="10"/>
<path opacity="0.5" d="M115.567 421.734L91.067 422.312L59.0925 397.089" stroke="black" stroke-width="2" stroke-miterlimit="10"/>
<path opacity="0.5" d="M196.334 416.15V344.525L217.096 326.234L214.397 245.367" stroke="black" stroke-width="2" stroke-miterlimit="10"/>
<path opacity="0.5" d="M166.851 179.71V316.607L196.334 344.525" stroke="black" stroke-width="2" stroke-miterlimit="10"/>
<path opacity="0.5" d="M234.122 144.09L193.012 185.294V260.77L166.851 288.496" stroke="black" stroke-width="2" stroke-miterlimit="10"/>
<path opacity="0.5" d="M134.461 155.258V227.268L165.605 255.186" stroke="black" stroke-width="2" stroke-miterlimit="10"/>
<path opacity="0.5" d="M201.94 533.6L187.821 547.656H59.0925" stroke="black" stroke-width="2" stroke-miterlimit="10"/>
<path opacity="0.5" d="M230.177 558.053H81.9314L69.0586 571.916" stroke="black" stroke-width="2" stroke-miterlimit="10"/>
<path opacity="0.5" d="M249.071 542.649L222.702 518.197H143.389L19.6436 402.672" stroke="black" stroke-width="2" stroke-miterlimit="10"/>
<path opacity="0.5" d="M94.389 472.565L33.7621 468.906L9.46985 444.069" stroke="black" stroke-width="2" stroke-miterlimit="10"/>
<path opacity="0.5" d="M65.3214 470.832L24.6266 509.34" stroke="black" stroke-width="2" stroke-miterlimit="10"/>
<path opacity="0.5" d="M168.927 472.565H134.461L112.245 450.23" stroke="black" stroke-width="2" stroke-miterlimit="10"/>
<path opacity="0.5" d="M168.927 354.73L30.0248 224.957" stroke="black" stroke-width="2" stroke-miterlimit="10"/>
<path opacity="0.5" d="M81.9314 196.461V245.367L99.5797 264.236V288.496" stroke="black" stroke-width="2" stroke-miterlimit="10"/>
<path opacity="0.5" d="M128.232 264.236V316.607" stroke="black" stroke-width="2" stroke-miterlimit="10"/>
<path opacity="0.5" d="M20.6816 258.652L39.9909 276.943H84.8382" stroke="black" stroke-width="2" stroke-miterlimit="10"/>
<path opacity="0.5" d="M20.6816 296.39L39.9909 276.943" stroke="black" stroke-width="2" stroke-miterlimit="10"/>
<path opacity="0.5" d="M81.9314 311.023H39.9909L9.46985 341.444" stroke="black" stroke-width="2" stroke-miterlimit="10"/>
<path opacity="0.5" d="M24.6266 354.922V326.234" stroke="black" stroke-width="2" stroke-miterlimit="10"/>
<path opacity="0.5" d="M62.8298 341.445L59.0925 354.73L77.5713 370.518" stroke="black" stroke-width="2" stroke-miterlimit="10"/>
<path opacity="0.5" d="M292.049 621.784L269.21 597.139H181.385" stroke="black" stroke-width="2" stroke-miterlimit="10"/>
<path opacity="0.5" d="M384.651 664.143H208.168L196.334 652.975H59.0925L44.9739 641.423" stroke="black" stroke-width="2" stroke-miterlimit="10"/>
<path opacity="0.5" d="M251.355 621.784L230.177 646.237L150.033 644.504" stroke="black" stroke-width="2" stroke-miterlimit="10"/>
<path opacity="0.5" d="M306.999 664.143L281.876 643.541" stroke="black" stroke-width="2" stroke-miterlimit="10"/>
<path opacity="0.5" d="M208.168 664.143L184.914 685.9L102.902 686.863L87.3297 701.688" stroke="black" stroke-width="2" stroke-miterlimit="10"/>
<path opacity="0.5" d="M329.63 664.143L294.541 701.688H249.486" stroke="black" stroke-width="2" stroke-miterlimit="10"/>
<path opacity="0.5" d="M156.677 685.9L137.783 702.843" stroke="black" stroke-width="2" stroke-miterlimit="10"/>
<path opacity="0.5" d="M673.459 407.293V470.639L654.98 488.546" stroke="black" stroke-width="2" stroke-miterlimit="10"/>
</g>
<g opacity="0.9">
<path opacity="0.7" d="M220.588 379.53C223.11 379.53 225.156 377.634 225.156 375.294C225.156 372.955 223.11 371.059 220.588 371.059C218.065 371.059 216.02 372.955 216.02 375.294C216.02 377.634 218.065 379.53 220.588 379.53Z" stroke="#40916C" stroke-width="1.5" stroke-miterlimit="10"/>
<path opacity="0.7" d="M241.143 325.234C243.665 325.234 245.71 323.337 245.71 320.998C245.71 318.658 243.665 316.762 241.143 316.762C238.62 316.762 236.575 318.658 236.575 320.998C236.575 323.337 238.62 325.234 241.143 325.234Z" stroke="#40916C" stroke-width="1.5" stroke-miterlimit="10"/>
<path opacity="0.7" d="M262.359 308.327C264.882 308.327 266.927 306.431 266.927 304.092C266.927 301.752 264.882 299.856 262.359 299.856C259.836 299.856 257.791 301.752 257.791 304.092C257.791 306.431 259.836 308.327 262.359 308.327Z" stroke="#40916C" stroke-width="1.5" stroke-miterlimit="10"/>
<path opacity="0.7" d="M334.405 340.482C336.928 340.482 338.973 338.585 338.973 336.246C338.973 333.907 336.928 332.01 334.405 332.01C331.883 332.01 329.837 333.907 329.837 336.246C329.837 338.585 331.883 340.482 334.405 340.482Z" stroke="#40916C" stroke-width="1.5" stroke-miterlimit="10"/>
<path opacity="0.7" d="M316.134 298.508C318.657 298.508 320.702 296.612 320.702 294.272C320.702 291.933 318.657 290.036 316.134 290.036C313.611 290.036 311.566 291.933 311.566 294.272C311.566 296.612 313.611 298.508 316.134 298.508Z" stroke="black" stroke-width="1.5" stroke-miterlimit="10"/>
<path opacity="0.7" d="M284.99 324.501C287.513 324.501 289.558 322.604 289.558 320.265C289.558 317.926 287.513 316.029 284.99 316.029C282.467 316.029 280.422 317.926 280.422 320.265C280.422 322.604 282.467 324.501 284.99 324.501Z" stroke="black" stroke-width="1.5" stroke-miterlimit="10"/>
<path opacity="0.7" d="M320.702 359.928C323.225 359.928 325.27 358.032 325.27 355.693C325.27 353.353 323.225 351.457 320.702 351.457C318.179 351.457 316.134 353.353 316.134 355.693C316.134 358.032 318.179 359.928 320.702 359.928Z" stroke="#40916C" stroke-width="1.5" stroke-miterlimit="10"/>
<path opacity="0.7" d="M340.181 356.693C342.703 356.693 344.748 354.796 344.748 352.457C344.748 350.117 342.703 348.221 340.181 348.221C337.658 348.221 335.613 350.117 335.613 352.457C335.613 354.796 337.658 356.693 340.181 356.693Z" stroke="#40916C" stroke-width="1.5" stroke-miterlimit="10"/>
<path opacity="0.7" d="M379.668 336.246C382.19 336.246 384.235 334.349 384.235 332.01C384.235 329.671 382.19 327.774 379.668 327.774C377.145 327.774 375.1 329.671 375.1 332.01C375.1 334.349 377.145 336.246 379.668 336.246Z" stroke="#40916C" stroke-width="1.5" stroke-miterlimit="10"/>
<path opacity="0.7" d="M459.184 312.508C461.707 312.508 463.752 310.612 463.752 308.272C463.752 305.933 461.707 304.036 459.184 304.036C456.662 304.036 454.617 305.933 454.617 308.272C454.617 310.612 456.662 312.508 459.184 312.508Z" stroke="#40916C" stroke-width="1.5" stroke-miterlimit="10"/>
<path opacity="0.7" d="M359.316 299.223C361.839 299.223 363.884 297.326 363.884 294.987C363.884 292.647 361.839 290.751 359.316 290.751C356.793 290.751 354.748 292.647 354.748 294.987C354.748 297.326 356.793 299.223 359.316 299.223Z" stroke="#40916C" stroke-width="1.5" stroke-miterlimit="10"/>
<path opacity="0.7" d="M460.227 277.906C462.749 277.906 464.794 276.01 464.794 273.67C464.794 271.331 462.749 269.434 460.227 269.434C457.704 269.434 455.659 271.331 455.659 273.67C455.659 276.01 457.704 277.906 460.227 277.906Z" stroke="#40916C" stroke-width="1.5" stroke-miterlimit="10"/>
<path opacity="0.7" d="M388.803 237.473C391.326 237.473 393.371 235.576 393.371 233.237C393.371 230.897 391.326 229.001 388.803 229.001C386.281 229.001 384.236 230.897 384.236 233.237C384.236 235.576 386.281 237.473 388.803 237.473Z" stroke="#40916C" stroke-width="1.5" stroke-miterlimit="10"/>
<path opacity="0.7" d="M419.909 233.237C422.432 233.237 424.477 231.34 424.477 229.001C424.477 226.661 422.432 224.765 419.909 224.765C417.386 224.765 415.341 226.661 415.341 229.001C415.341 231.34 417.386 233.237 419.909 233.237Z" stroke="#40916C" stroke-width="1.5" stroke-miterlimit="10"/>
<path opacity="0.7" d="M479.328 237.473C481.851 237.473 483.896 235.576 483.896 233.237C483.896 230.897 481.851 229.001 479.328 229.001C476.806 229.001 474.761 230.897 474.761 233.237C474.761 235.576 476.806 237.473 479.328 237.473Z" stroke="#40916C" stroke-width="1.5" stroke-miterlimit="10"/>
<path opacity="0.7" d="M479.328 264.621C481.851 264.621 483.896 262.724 483.896 260.385C483.896 258.046 481.851 256.149 479.328 256.149C476.806 256.149 474.761 258.046 474.761 260.385C474.761 262.724 476.806 264.621 479.328 264.621Z" stroke="#40916C" stroke-width="1.5" stroke-miterlimit="10"/>
<path opacity="0.7" d="M531.858 237.473C534.381 237.473 536.426 235.576 536.426 233.237C536.426 230.897 534.381 229.001 531.858 229.001C529.335 229.001 527.29 230.897 527.29 233.237C527.29 235.576 529.335 237.473 531.858 237.473Z" stroke="#40916C" stroke-width="1.5" stroke-miterlimit="10"/>
<path opacity="0.7" d="M561.756 241.901C564.279 241.901 566.324 240.004 566.324 237.665C566.324 235.326 564.279 233.429 561.756 233.429C559.233 233.429 557.188 235.326 557.188 237.665C557.188 240.004 559.233 241.901 561.756 241.901Z" stroke="black" stroke-width="1.5" stroke-miterlimit="10"/>
<path opacity="0.7" d="M561.756 268.857C564.279 268.857 566.324 266.96 566.324 264.621C566.324 262.281 564.279 260.385 561.756 260.385C559.233 260.385 557.188 262.281 557.188 264.621C557.188 266.96 559.233 268.857 561.756 268.857Z" stroke="black" stroke-width="1.5" stroke-miterlimit="10"/>
<path opacity="0.7" d="M541.201 280.987C543.724 280.987 545.769 279.09 545.769 276.751C545.769 274.411 543.724 272.515 541.201 272.515C538.678 272.515 536.633 274.411 536.633 276.751C536.633 279.09 538.678 280.987 541.201 280.987Z" stroke="#40916C" stroke-width="1.5" stroke-miterlimit="10"/>
<path opacity="0.7" d="M624.044 264.621C626.567 264.621 628.612 262.724 628.612 260.385C628.612 258.046 626.567 256.149 624.044 256.149C621.521 256.149 619.476 258.046 619.476 260.385C619.476 262.724 621.521 264.621 624.044 264.621Z" stroke="#40916C" stroke-width="1.5" stroke-miterlimit="10"/>
<path opacity="0.7" d="M557.188 306.98C559.711 306.98 561.756 305.083 561.756 302.744C561.756 300.404 559.711 298.508 557.188 298.508C554.666 298.508 552.621 300.404 552.621 302.744C552.621 305.083 554.666 306.98 557.188 306.98Z" stroke="#40916C" stroke-width="1.5" stroke-miterlimit="10"/>
<path opacity="0.7" d="M493.239 368.593C495.762 368.593 497.807 366.696 497.807 364.357C497.807 362.017 495.762 360.121 493.239 360.121C490.716 360.121 488.671 362.017 488.671 364.357C488.671 366.696 490.716 368.593 493.239 368.593Z" stroke="#40916C" stroke-width="1.5" stroke-miterlimit="10"/>
<path opacity="0.7" d="M448.184 380.53C450.707 380.53 452.752 378.634 452.752 376.294C452.752 373.955 450.707 372.059 448.184 372.059C445.662 372.059 443.617 373.955 443.617 376.294C443.617 378.634 445.662 380.53 448.184 380.53Z" stroke="#40916C" stroke-width="1.5" stroke-miterlimit="10"/>
<path opacity="0.7" d="M388.803 380.53C391.326 380.53 393.371 378.634 393.371 376.294C393.371 373.955 391.326 372.059 388.803 372.059C386.281 372.059 384.236 373.955 384.236 376.294C384.236 378.634 386.281 380.53 388.803 380.53Z" stroke="#40916C" stroke-width="1.5" stroke-miterlimit="10"/>
<path opacity="0.7" d="M256.961 380.53C259.483 380.53 261.528 378.634 261.528 376.294C261.528 373.955 259.483 372.059 256.961 372.059C254.438 372.059 252.393 373.955 252.393 376.294C252.393 378.634 254.438 380.53 256.961 380.53Z" stroke="#40916C" stroke-width="1.5" stroke-miterlimit="10"/>
<path opacity="0.7" d="M252.393 414.225C254.915 414.225 256.961 412.328 256.961 409.989C256.961 407.65 254.915 405.753 252.393 405.753C249.87 405.753 247.825 407.65 247.825 409.989C247.825 412.328 249.87 414.225 252.393 414.225Z" stroke="#40916C" stroke-width="1.5" stroke-miterlimit="10"/>
<path opacity="0.7" d="M252.393 444.646C254.915 444.646 256.961 442.75 256.961 440.41C256.961 438.071 254.915 436.174 252.393 436.174C249.87 436.174 247.825 438.071 247.825 440.41C247.825 442.75 249.87 444.646 252.393 444.646Z" stroke="black" stroke-width="1.5" stroke-miterlimit="10"/>
<path opacity="0.7" d="M361.812 476.608C365.94 476.608 369.286 473.16 369.286 468.906C369.286 464.653 365.94 461.205 361.812 461.205C357.684 461.205 354.337 464.653 354.337 468.906C354.337 473.16 357.684 476.608 361.812 476.608Z" stroke="#40916C" stroke-width="1.5" stroke-miterlimit="10"/>
<path opacity="0.7" d="M275.855 430.591C278.377 430.591 280.422 428.694 280.422 426.355C280.422 424.016 278.377 422.119 275.855 422.119C273.332 422.119 271.287 424.016 271.287 426.355C271.287 428.694 273.332 430.591 275.855 430.591Z" stroke="#40916C" stroke-width="1.5" stroke-miterlimit="10"/>
<path opacity="0.7" d="M369.286 440.41C371.809 440.41 373.854 438.514 373.854 436.175C373.854 433.835 371.809 431.939 369.286 431.939C366.764 431.939 364.719 433.835 364.719 436.175C364.719 438.514 366.764 440.41 369.286 440.41Z" stroke="#40916C" stroke-width="1.5" stroke-miterlimit="10"/>
<path opacity="0.7" d="M452.752 440.41C455.275 440.41 457.32 438.514 457.32 436.175C457.32 433.835 455.275 431.939 452.752 431.939C450.23 431.939 448.185 433.835 448.185 436.175C448.185 438.514 450.23 440.41 452.752 440.41Z" stroke="#40916C" stroke-width="1.5" stroke-miterlimit="10"/>
<path opacity="0.7" d="M401.676 458.317C404.199 458.317 406.244 456.42 406.244 454.081C406.244 451.741 404.199 449.845 401.676 449.845C399.153 449.845 397.108 451.741 397.108 454.081C397.108 456.42 399.153 458.317 401.676 458.317Z" stroke="#40916C" stroke-width="1.5" stroke-miterlimit="10"/>
<path opacity="0.7" d="M497.807 418.461C500.33 418.461 502.375 416.564 502.375 414.225C502.375 411.886 500.33 409.989 497.807 409.989C495.284 409.989 493.239 411.886 493.239 414.225C493.239 416.564 495.284 418.461 497.807 418.461Z" stroke="#40916C" stroke-width="1.5" stroke-miterlimit="10"/>
<path opacity="0.7" d="M600.375 351.457C602.897 351.457 604.942 349.56 604.942 347.221C604.942 344.881 602.897 342.985 600.375 342.985C597.852 342.985 595.807 344.881 595.807 347.221C595.807 349.56 597.852 351.457 600.375 351.457Z" stroke="#40916C" stroke-width="1.5" stroke-miterlimit="10"/>
<path opacity="0.7" d="M600.375 391.698C602.897 391.698 604.942 389.801 604.942 387.462C604.942 385.122 602.897 383.226 600.375 383.226C597.852 383.226 595.807 385.122 595.807 387.462C595.807 389.801 597.852 391.698 600.375 391.698Z" stroke="#40916C" stroke-width="1.5" stroke-miterlimit="10"/>
<path opacity="0.7" d="M545.769 355.693C548.292 355.693 550.337 353.796 550.337 351.457C550.337 349.117 548.292 347.221 545.769 347.221C543.246 347.221 541.201 349.117 541.201 351.457C541.201 353.796 543.246 355.693 545.769 355.693Z" stroke="black" stroke-width="1.5" stroke-miterlimit="10"/>
<path opacity="0.7" d="M576.913 324.501C579.436 324.501 581.481 322.604 581.481 320.265C581.481 317.926 579.436 316.029 576.913 316.029C574.39 316.029 572.345 317.926 572.345 320.265C572.345 322.604 574.39 324.501 576.913 324.501Z" stroke="black" stroke-width="1.5" stroke-miterlimit="10"/>
<path opacity="0.7" d="M595.807 327.774C598.329 327.774 600.375 325.878 600.375 323.538C600.375 321.199 598.329 319.302 595.807 319.302C593.284 319.302 591.239 321.199 591.239 323.538C591.239 325.878 593.284 327.774 595.807 327.774Z" stroke="#40916C" stroke-width="1.5" stroke-miterlimit="10"/>
<path opacity="0.7" d="M675.12 305.439C677.643 305.439 679.688 303.543 679.688 301.203C679.688 298.864 677.643 296.968 675.12 296.968C672.597 296.968 670.552 298.864 670.552 301.203C670.552 303.543 672.597 305.439 675.12 305.439Z" stroke="#40916C" stroke-width="1.5" stroke-miterlimit="10"/>
<path opacity="0.7" d="M658.925 285.223C661.448 285.223 663.493 283.326 663.493 280.987C663.493 278.647 661.448 276.751 658.925 276.751C656.402 276.751 654.357 278.647 654.357 280.987C654.357 283.326 656.402 285.223 658.925 285.223Z" stroke="black" stroke-width="1.5" stroke-miterlimit="10"/>
<path opacity="0.7" d="M614.701 285.223C617.224 285.223 619.269 283.326 619.269 280.987C619.269 278.647 617.224 276.751 614.701 276.751C612.178 276.751 610.133 278.647 610.133 280.987C610.133 283.326 612.178 285.223 614.701 285.223Z" stroke="black" stroke-width="1.5" stroke-miterlimit="10"/>
<path opacity="0.7" d="M536.426 302.744C538.26 302.744 539.748 301.451 539.748 299.856C539.748 298.261 538.26 296.968 536.426 296.968C534.591 296.968 533.104 298.261 533.104 299.856C533.104 301.451 534.591 302.744 536.426 302.744Z" stroke="black" stroke-width="1.5" stroke-miterlimit="10"/>
<path opacity="0.7" d="M515.248 322.19C517.083 322.19 518.57 320.897 518.57 319.302C518.57 317.707 517.083 316.414 515.248 316.414C513.413 316.414 511.926 317.707 511.926 319.302C511.926 320.897 513.413 322.19 515.248 322.19Z" stroke="black" stroke-width="1.5" stroke-miterlimit="10"/>
<path opacity="0.7" d="M518.57 443.299C520.405 443.299 521.892 442.006 521.892 440.41C521.892 438.815 520.405 437.522 518.57 437.522C516.735 437.522 515.248 438.815 515.248 440.41C515.248 442.006 516.735 443.299 518.57 443.299Z" stroke="#40916C" stroke-width="1.5" stroke-miterlimit="10"/>
<path opacity="0.7" d="M569.231 443.299C571.065 443.299 572.553 442.006 572.553 440.41C572.553 438.815 571.065 437.522 569.231 437.522C567.396 437.522 565.909 438.815 565.909 440.41C565.909 442.006 567.396 443.299 569.231 443.299Z" stroke="#40916C" stroke-width="1.5" stroke-miterlimit="10"/>
<path opacity="0.7" d="M531.858 475.068C533.693 475.068 535.18 473.775 535.18 472.18C535.18 470.585 533.693 469.292 531.858 469.292C530.023 469.292 528.536 470.585 528.536 472.18C528.536 473.775 530.023 475.068 531.858 475.068Z" stroke="#40916C" stroke-width="1.5" stroke-miterlimit="10"/>
<path opacity="0.7" d="M628.82 459.472C628.82 460.05 628.612 460.627 628.197 461.205C627.574 461.975 626.536 462.36 625.497 462.36C623.629 462.36 622.175 461.012 622.175 459.472C622.175 457.932 623.629 456.584 625.497 456.584C627.366 456.584 628.82 457.932 628.82 459.472Z" stroke="#40916C" stroke-width="1.5" stroke-miterlimit="10"/>
<path opacity="0.7" d="M666.815 516.464C668.65 516.464 670.137 515.171 670.137 513.576C670.137 511.981 668.65 510.688 666.815 510.688C664.98 510.688 663.493 511.981 663.493 513.576C663.493 515.171 664.98 516.464 666.815 516.464Z" stroke="#40916C" stroke-width="1.5" stroke-miterlimit="10"/>
<path opacity="0.7" d="M610.133 306.98C612.656 306.98 614.701 305.083 614.701 302.744C614.701 300.404 612.656 298.508 610.133 298.508C607.61 298.508 605.565 300.404 605.565 302.744C605.565 305.083 607.61 306.98 610.133 306.98Z" stroke="black" stroke-width="1.5" stroke-miterlimit="10"/>
<path opacity="0.7" d="M637.332 391.698C639.855 391.698 641.9 389.801 641.9 387.462C641.9 385.122 639.855 383.226 637.332 383.226C634.809 383.226 632.764 385.122 632.764 387.462C632.764 389.801 634.809 391.698 637.332 391.698Z" stroke="#40916C" stroke-width="1.5" stroke-miterlimit="10"/>
<path opacity="0.7" d="M654.357 340.482C656.88 340.482 658.925 338.585 658.925 336.246C658.925 333.907 656.88 332.01 654.357 332.01C651.835 332.01 649.79 333.907 649.79 336.246C649.79 338.585 651.835 340.482 654.357 340.482Z" stroke="black" stroke-width="1.5" stroke-miterlimit="10"/>
<path opacity="0.7" d="M700.035 391.698C702.558 391.698 704.603 389.801 704.603 387.462C704.603 385.122 702.558 383.226 700.035 383.226C697.513 383.226 695.468 385.122 695.468 387.462C695.468 389.801 697.513 391.698 700.035 391.698Z" stroke="#40916C" stroke-width="1.5" stroke-miterlimit="10"/>
<path opacity="0.7" d="M687.993 409.797C690.516 409.797 692.561 407.9 692.561 405.561C692.561 403.221 690.516 401.325 687.993 401.325C685.47 401.325 683.425 403.221 683.425 405.561C683.425 407.9 685.47 409.797 687.993 409.797Z" stroke="black" stroke-width="1.5" stroke-miterlimit="10"/>
<path opacity="0.7" d="M654.357 418.461C656.88 418.461 658.925 416.564 658.925 414.225C658.925 411.886 656.88 409.989 654.357 409.989C651.835 409.989 649.79 411.886 649.79 414.225C649.79 416.564 651.835 418.461 654.357 418.461Z" stroke="#40916C" stroke-width="1.5" stroke-miterlimit="10"/>
<path opacity="0.7" d="M561.756 397.089C564.279 397.089 566.324 395.192 566.324 392.853C566.324 390.513 564.279 388.617 561.756 388.617C559.233 388.617 557.188 390.513 557.188 392.853C557.188 395.192 559.233 397.089 561.756 397.089Z" stroke="#40916C" stroke-width="1.5" stroke-miterlimit="10"/>
<path opacity="0.7" d="M595.807 436.174C598.329 436.174 600.375 434.278 600.375 431.939C600.375 429.599 598.329 427.703 595.807 427.703C593.284 427.703 591.239 429.599 591.239 431.939C591.239 434.278 593.284 436.174 595.807 436.174Z" stroke="#40916C" stroke-width="1.5" stroke-miterlimit="10"/>
<path opacity="0.7" d="M695.468 448.882C697.99 448.882 700.035 446.986 700.035 444.646C700.035 442.307 697.99 440.41 695.468 440.41C692.945 440.41 690.9 442.307 690.9 444.646C690.9 446.986 692.945 448.882 695.468 448.882Z" stroke="#40916C" stroke-width="1.5" stroke-miterlimit="10"/>
<path opacity="0.7" d="M680.518 458.317C683.041 458.317 685.086 456.42 685.086 454.081C685.086 451.741 683.041 449.845 680.518 449.845C677.996 449.845 675.951 451.741 675.951 454.081C675.951 456.42 677.996 458.317 680.518 458.317Z" stroke="black" stroke-width="1.5" stroke-miterlimit="10"/>
<path opacity="0.7" d="M641.9 457.547C644.423 457.547 646.468 455.65 646.468 453.311C646.468 450.971 644.423 449.075 641.9 449.075C639.377 449.075 637.332 450.971 637.332 453.311C637.332 455.65 639.377 457.547 641.9 457.547Z" stroke="black" stroke-width="1.5" stroke-miterlimit="10"/>
<path opacity="0.7" d="M497.807 526.091C500.33 526.091 502.375 524.195 502.375 521.855C502.375 519.516 500.33 517.619 497.807 517.619C495.284 517.619 493.239 519.516 493.239 521.855C493.239 524.195 495.284 526.091 497.807 526.091Z" stroke="black" stroke-width="1.5" stroke-miterlimit="10"/>
<path opacity="0.7" d="M497.807 553.047C500.33 553.047 502.375 551.15 502.375 548.811C502.375 546.472 500.33 544.575 497.807 544.575C495.284 544.575 493.239 546.472 493.239 548.811C493.239 551.15 495.284 553.047 497.807 553.047Z" stroke="black" stroke-width="1.5" stroke-miterlimit="10"/>
<path opacity="0.7" d="M590.616 553.047C593.139 553.047 595.184 551.15 595.184 548.811C595.184 546.472 593.139 544.575 590.616 544.575C588.093 544.575 586.048 546.472 586.048 548.811C586.048 551.15 588.093 553.047 590.616 553.047Z" stroke="black" stroke-width="1.5" stroke-miterlimit="10"/>
<path opacity="0.7" d="M624.044 553.047C626.567 553.047 628.612 551.15 628.612 548.811C628.612 546.472 626.567 544.575 624.044 544.575C621.521 544.575 619.476 546.472 619.476 548.811C619.476 551.15 621.521 553.047 624.044 553.047Z" stroke="black" stroke-width="1.5" stroke-miterlimit="10"/>
<path opacity="0.7" d="M410.812 480.651C413.334 480.651 415.38 478.755 415.38 476.415C415.38 474.076 413.334 472.18 410.812 472.18C408.289 472.18 406.244 474.076 406.244 476.415C406.244 478.755 408.289 480.651 410.812 480.651Z" stroke="black" stroke-width="1.5" stroke-miterlimit="10"/>
<path opacity="0.7" d="M388.803 480.651C391.326 480.651 393.371 478.755 393.371 476.415C393.371 474.076 391.326 472.18 388.803 472.18C386.281 472.18 384.236 474.076 384.236 476.415C384.236 478.755 386.281 480.651 388.803 480.651Z" stroke="black" stroke-width="1.5" stroke-miterlimit="10"/>
<path opacity="0.7" d="M448.184 469.869C450.707 469.869 452.752 467.973 452.752 465.633C452.752 463.294 450.707 461.397 448.184 461.397C445.662 461.397 443.617 463.294 443.617 465.633C443.617 467.973 445.662 469.869 448.184 469.869Z" stroke="#40916C" stroke-width="1.5" stroke-miterlimit="10"/>
<path opacity="0.7" d="M586.048 514.731C588.571 514.731 590.616 512.835 590.616 510.495C590.616 508.156 588.571 506.259 586.048 506.259C583.526 506.259 581.48 508.156 581.48 510.495C581.48 512.835 583.526 514.731 586.048 514.731Z" stroke="#40916C" stroke-width="1.5" stroke-miterlimit="10"/>
<path opacity="0.7" d="M361.812 473.142C364.335 473.142 366.38 471.246 366.38 468.906C366.38 466.567 364.335 464.67 361.812 464.67C359.289 464.67 357.244 466.567 357.244 468.906C357.244 471.246 359.289 473.142 361.812 473.142Z" fill="#40916C"/>
<g filter="url(#filter0_d)">
<path d="M521.892 573.071C526.02 573.071 529.366 569.623 529.366 565.369C529.366 561.116 526.02 557.668 521.892 557.668C517.764 557.668 514.417 561.116 514.417 565.369C514.417 569.623 517.764 573.071 521.892 573.071Z" stroke="#40916C" stroke-width="1.5" stroke-miterlimit="10"/>
</g>
<g filter="url(#filter1_d)">
<path d="M521.892 569.605C524.414 569.605 526.46 567.709 526.46 565.369C526.46 563.03 524.414 561.133 521.892 561.133C519.369 561.133 517.324 563.03 517.324 565.369C517.324 567.709 519.369 569.605 521.892 569.605Z" fill="#40916C"/>
</g>
<g filter="url(#filter2_d)">
<path d="M461.473 486.428C463.995 486.428 466.04 484.531 466.04 482.192C466.04 479.852 463.995 477.956 461.473 477.956C458.95 477.956 456.905 479.852 456.905 482.192C456.905 484.531 458.95 486.428 461.473 486.428Z" stroke="#40916C" stroke-width="1.5" stroke-miterlimit="10"/>
</g>
<g filter="url(#filter3_d)">
<path d="M373.854 362.239C376.377 362.239 378.422 360.342 378.422 358.003C378.422 355.664 376.377 353.767 373.854 353.767C371.331 353.767 369.286 355.664 369.286 358.003C369.286 360.342 371.331 362.239 373.854 362.239Z" stroke="#40916C" stroke-width="1.5" stroke-miterlimit="10"/>
</g>
<g filter="url(#filter4_d)">
<path d="M404.168 282.142C406.69 282.142 408.736 280.245 408.736 277.906C408.736 275.567 406.69 273.67 404.168 273.67C401.645 273.67 399.6 275.567 399.6 277.906C399.6 280.245 401.645 282.142 404.168 282.142Z" stroke="#40916C" stroke-width="1.5" stroke-miterlimit="10"/>
</g>
<g filter="url(#filter5_d)">
<path d="M348.316 251.913C350.839 251.913 352.884 250.017 352.884 247.677C352.884 245.338 350.839 243.441 348.316 243.441C345.793 243.441 343.748 245.338 343.748 247.677C343.748 250.017 345.793 251.913 348.316 251.913Z" stroke="#40916C" stroke-width="1.5" stroke-miterlimit="10"/>
</g>
<g filter="url(#filter6_d)">
<path d="M505.697 276.173C508.22 276.173 510.265 274.277 510.265 271.937C510.265 269.598 508.22 267.701 505.697 267.701C503.174 267.701 501.129 269.598 501.129 271.937C501.129 274.277 503.174 276.173 505.697 276.173Z" stroke="#40916C" stroke-width="1.5" stroke-miterlimit="10"/>
</g>
<g filter="url(#filter7_d)">
<path d="M603.489 532.445C606.012 532.445 608.057 530.548 608.057 528.209C608.057 525.87 606.012 523.973 603.489 523.973C600.966 523.973 598.921 525.87 598.921 528.209C598.921 530.548 600.966 532.445 603.489 532.445Z" stroke="#40916C" stroke-width="1.5" stroke-miterlimit="10"/>
</g>
<path opacity="0.7" d="M519.816 421.926C523.944 421.926 527.29 418.478 527.29 414.225C527.29 409.971 523.944 406.523 519.816 406.523C515.688 406.523 512.341 409.971 512.341 414.225C512.341 418.478 515.688 421.926 519.816 421.926Z" stroke="#40916C" stroke-width="1.5" stroke-miterlimit="10"/>
<path opacity="0.7" d="M519.816 418.461C522.338 418.461 524.383 416.564 524.383 414.225C524.383 411.886 522.338 409.989 519.816 409.989C517.293 409.989 515.248 411.886 515.248 414.225C515.248 416.564 517.293 418.461 519.816 418.461Z" fill="#40916C"/>
<path opacity="0.7" d="M569.231 372.059C573.359 372.059 576.705 368.61 576.705 364.357C576.705 360.103 573.359 356.655 569.231 356.655C565.103 356.655 561.756 360.103 561.756 364.357C561.756 368.61 565.103 372.059 569.231 372.059Z" stroke="#40916C" stroke-width="1.5" stroke-miterlimit="10"/>
<path opacity="0.7" d="M569.231 368.593C571.753 368.593 573.798 366.696 573.798 364.357C573.798 362.017 571.753 360.121 569.231 360.121C566.708 360.121 564.663 362.017 564.663 364.357C564.663 366.696 566.708 368.593 569.231 368.593Z" fill="#40916C"/>
<path opacity="0.7" d="M619.269 372.059C623.397 372.059 626.743 368.61 626.743 364.357C626.743 360.103 623.397 356.655 619.269 356.655C615.14 356.655 611.794 360.103 611.794 364.357C611.794 368.61 615.14 372.059 619.269 372.059Z" stroke="#40916C" stroke-width="1.5" stroke-miterlimit="10"/>
<path opacity="0.7" d="M619.269 368.593C621.791 368.593 623.837 366.696 623.837 364.357C623.837 362.017 621.791 360.121 619.269 360.121C616.746 360.121 614.701 362.017 614.701 364.357C614.701 366.696 616.746 368.593 619.269 368.593Z" fill="#40916C"/>
<path opacity="0.7" d="M687.993 350.687C692.121 350.687 695.467 347.238 695.467 342.985C695.467 338.731 692.121 335.283 687.993 335.283C683.865 335.283 680.518 338.731 680.518 342.985C680.518 347.238 683.865 350.687 687.993 350.687Z" stroke="#40916C" stroke-width="1.5" stroke-miterlimit="10"/>
<path opacity="0.7" d="M687.993 347.221C690.516 347.221 692.561 345.324 692.561 342.985C692.561 340.645 690.516 338.749 687.993 338.749C685.47 338.749 683.425 340.645 683.425 342.985C683.425 345.324 685.47 347.221 687.993 347.221Z" fill="#40916C"/>
<path opacity="0.7" d="M680.518 484.117C684.647 484.117 687.993 480.669 687.993 476.416C687.993 472.162 684.647 468.714 680.518 468.714C676.39 468.714 673.044 472.162 673.044 476.416C673.044 480.669 676.39 484.117 680.518 484.117Z" stroke="#40916C" stroke-width="1.5" stroke-miterlimit="10"/>
<path opacity="0.7" d="M680.518 480.651C683.041 480.651 685.086 478.755 685.086 476.415C685.086 474.076 683.041 472.18 680.518 472.18C677.996 472.18 675.951 474.076 675.951 476.415C675.951 478.755 677.996 480.651 680.518 480.651Z" fill="#40916C"/>
<path opacity="0.7" d="M624.044 518.197C628.172 518.197 631.518 514.749 631.518 510.495C631.518 506.242 628.172 502.794 624.044 502.794C619.916 502.794 616.569 506.242 616.569 510.495C616.569 514.749 619.916 518.197 624.044 518.197Z" stroke="#40916C" stroke-width="1.5" stroke-miterlimit="10"/>
<path opacity="0.7" d="M624.044 514.731C626.567 514.731 628.612 512.835 628.612 510.495C628.612 508.156 626.567 506.259 624.044 506.259C621.521 506.259 619.476 508.156 619.476 510.495C619.476 512.835 621.521 514.731 624.044 514.731Z" fill="#40916C"/>
<path opacity="0.7" d="M561.756 488.546C565.884 488.546 569.231 485.097 569.231 480.844C569.231 476.591 565.884 473.142 561.756 473.142C557.628 473.142 554.281 476.591 554.281 480.844C554.281 485.097 557.628 488.546 561.756 488.546Z" stroke="#40916C" stroke-width="1.5" stroke-miterlimit="10"/>
<path opacity="0.7" d="M561.756 485.08C564.279 485.08 566.324 483.183 566.324 480.844C566.324 478.505 564.279 476.608 561.756 476.608C559.233 476.608 557.188 478.505 557.188 480.844C557.188 483.183 559.233 485.08 561.756 485.08Z" fill="#40916C"/>
<path opacity="0.7" d="M280.422 426.355L316.134 427.703L357.244 462.938" stroke="#40916C" stroke-width="1.5" stroke-miterlimit="10"/>
<path opacity="0.7" d="M255.092 406.523L269.211 391.89H320.702L366.38 432.901" stroke="#40916C" stroke-width="1.5" stroke-miterlimit="10"/>
<path opacity="0.7" d="M261.528 376.294H320.702L393.371 437.522L448.185 436.175" stroke="#40916C" stroke-width="1.5" stroke-miterlimit="10"/>
<path opacity="0.7" d="M224.156 371.866L239.312 356.655L316.134 355.693" stroke="#40916C" stroke-width="1.5" stroke-miterlimit="10"/>
<path opacity="0.7" d="M243.88 324.501L252.393 336.246H329.837" stroke="#40916C" stroke-width="1.5" stroke-miterlimit="10"/>
<path opacity="0.7" d="M312.604 296.968L288.312 317.377" stroke="black" stroke-width="1.5" stroke-miterlimit="10"/>
<path opacity="0.7" d="M265.681 301.203L285.821 282.334H321.532L375.723 329.122" stroke="#40916C" stroke-width="1.5" stroke-miterlimit="10"/>
<path opacity="0.7" d="M363.884 294.987H395.236L423.888 320.98H459.184V312.508" stroke="#40916C" stroke-width="1.5" stroke-miterlimit="10"/>
<path opacity="0.7" d="M392.125 236.317L430.328 273.67H455.659" stroke="#40916C" stroke-width="1.5" stroke-miterlimit="10"/>
<path opacity="0.7" d="M424.515 229.771H449.223L475.799 256.919" stroke="#40916C" stroke-width="1.5" stroke-miterlimit="10"/>
<path opacity="0.7" d="M483.896 233.237H527.29" stroke="#40916C" stroke-width="1.5" stroke-miterlimit="10"/>
<path opacity="0.7" d="M561.756 241.901V260.385" stroke="black" stroke-width="1.5" stroke-miterlimit="10"/>
<path opacity="0.7" d="M544.938 279.254C544.938 279.254 558.226 290.999 558.642 290.999C559.057 290.806 559.057 290.806 559.057 290.806L569.853 290.999L600.582 262.695L619.476 261.733" stroke="#40916C" stroke-width="1.5" stroke-miterlimit="10"/>
<path opacity="0.7" d="M619.269 280.987H654.357" stroke="black" stroke-width="1.5" stroke-miterlimit="10"/>
<path opacity="0.7" d="M601.205 323.538H631.103L654.357 301.203H670.552" stroke="#40916C" stroke-width="1.5" stroke-miterlimit="10"/>
<path opacity="0.7" d="M626.536 364.357H664.531L681.764 348.761" stroke="#40916C" stroke-width="1.5" stroke-miterlimit="10"/>
<path opacity="0.7" d="M642.523 387.462H695.467" stroke="#40916C" stroke-width="1.5" stroke-miterlimit="10"/>
<path opacity="0.7" d="M600.375 351.457V383.226" stroke="#40916C" stroke-width="1.5" stroke-miterlimit="10"/>
<path opacity="0.7" d="M601.205 431.939H681.764L692.768 441.373" stroke="#40916C" stroke-width="1.5" stroke-miterlimit="10"/>
<path opacity="0.7" d="M673.044 477.956H645.637L626.951 461.975" stroke="#40916C" stroke-width="1.5" stroke-miterlimit="10"/>
<path opacity="0.7" d="M565.286 396.126L584.388 414.225H649.582" stroke="#40916C" stroke-width="1.5" stroke-miterlimit="10"/>
<path opacity="0.7" d="M569.231 480.844L592.9 481.421L618.853 504.912" stroke="#40916C" stroke-width="1.5" stroke-miterlimit="10"/>
<path opacity="0.7" d="M534.142 468.906L550.337 453.311H588.955L653.112 513.576H663.493" stroke="#40916C" stroke-width="1.5" stroke-miterlimit="10"/>
<path opacity="0.7" d="M521.892 440.41H565.909" stroke="#40916C" stroke-width="1.5" stroke-miterlimit="10"/>
<path opacity="0.7" d="M595.184 548.811H619.269" stroke="black" stroke-width="1.5" stroke-miterlimit="10"/>
<path opacity="0.7" d="M497.807 526.091V544.575" stroke="black" stroke-width="1.5" stroke-miterlimit="10"/>
<path opacity="0.7" d="M452.752 465.633H500.091L547.015 510.495H581.481" stroke="#40916C" stroke-width="1.5" stroke-miterlimit="10"/>
<path opacity="0.7" d="M646.467 453.311L675.951 454.081" stroke="black" stroke-width="1.5" stroke-miterlimit="10"/>
<path opacity="0.7" d="M393.371 476.415H406.244" stroke="black" stroke-width="1.5" stroke-miterlimit="10"/>
<path opacity="0.7" d="M406.244 454.081H458.981L495.108 417.691" stroke="#40916C" stroke-width="1.5" stroke-miterlimit="10"/>
<path opacity="0.7" d="M343.748 355.693L406.244 418.461H474.761L493.239 397.089V368.593" stroke="#40916C" stroke-width="1.5" stroke-miterlimit="10"/>
<path opacity="0.7" d="M548.26 347.221L573.799 323.538" stroke="black" stroke-width="1.5" stroke-miterlimit="10"/>
<path opacity="0.7" d="M517.843 316.992L533.787 301.938" stroke="black" stroke-width="1.5" stroke-miterlimit="10"/>
<path opacity="0.7" d="M553.866 305.632L521.892 338.171H497.807L461.473 370.903V397.089" stroke="#40916C" stroke-width="1.5" stroke-miterlimit="10"/>
<path opacity="0.7" d="M393.371 376.294C443.617 376.294 443.617 376.294 443.617 376.294" stroke="#40916C" stroke-width="1.5" stroke-miterlimit="10"/>
<path opacity="0.7" d="M518.57 406.523V392.853L545.769 366.09H560.926" stroke="#40916C" stroke-width="1.5" stroke-miterlimit="10"/>
<g filter="url(#filter8_d)">
<path d="M461.473 411.722C465.601 411.722 468.947 408.274 468.947 404.02C468.947 399.767 465.601 396.319 461.473 396.319C457.344 396.319 453.998 399.767 453.998 404.02C453.998 408.274 457.344 411.722 461.473 411.722Z" stroke="#40916C" stroke-width="1.5" stroke-miterlimit="10"/>
</g>
<path d="M461.473 408.256C463.995 408.256 466.04 406.36 466.04 404.02C466.04 401.681 463.995 399.784 461.473 399.784C458.95 399.784 456.905 401.681 456.905 404.02C456.905 406.36 458.95 408.256 461.473 408.256Z" fill="#40916C"/>
<g filter="url(#filter9_d)">
<path d="M466.04 480.844H495.108L543.9 528.209H598.714" stroke="#40916C" stroke-width="1.5" stroke-miterlimit="10"/>
</g>
<g filter="url(#filter10_d)">
<path d="M352.261 250.373C369.909 268.279 369.909 268.279 369.909 268.279L393.579 267.894L401.676 274.633" stroke="#40916C" stroke-width="1.5" stroke-miterlimit="10"/>
</g>
<g filter="url(#filter11_d)">
<path d="M378.63 358.003H440.087L505.697 296.005V276.366" stroke="#40916C" stroke-width="1.5" stroke-miterlimit="10"/>
</g>
</g>
<path opacity="0.8" d="M336.5 837C336.5 837 328.592 805.082 310.321 781.4C302.638 771.388 288.727 767.152 276.062 770.81C247.617 779.089 178.893 793.145 175.156 736.153C174.533 726.718 173.702 717.476 172.041 708.042L156.054 611.386L119.304 598.679C115.359 597.331 111.414 596.176 107.262 595.021C102.279 593.673 94.5967 588.089 110.169 565.177C131.139 534.563 173.91 464.478 173.91 464.478C173.91 464.478 185.122 448.112 171.626 414.417C168.304 406.138 166.851 397.089 167.474 388.232C170.38 344.91 195.918 228.423 379.46 175.089C379.46 175.089 696.298 98.8432 759.624 375.717C765.23 400.169 765.645 425.585 761.285 450.422C753.811 492.974 736.993 563.059 702.112 607.536C686.54 627.56 674.705 649.895 669.099 673.962C660.379 711.123 658.302 765.419 688.201 830.305" stroke="black" stroke-width="2" stroke-miterlimit="10" stroke-linecap="round" stroke-linejoin="round"/>
<defs>
<filter id="filter0_d" x="508.667" y="555.918" width="26.4492" height="26.9031" filterUnits="userSpaceOnUse" color-interpolation-filters="sRGB">
<feFlood flood-opacity="0" result="BackgroundImageFix"/>
<feColorMatrix in="SourceAlpha" type="matrix" values="0 0 0 0 0 0 0 0 0 0 0 0 0 0 0 0 0 0 127 0"/>
<feOffset dy="4"/>
<feGaussianBlur stdDeviation="2.5"/>
<feColorMatrix type="matrix" values="0 0 0 0 0.25098 0 0 0 0 0.568627 0 0 0 0 0.423529 0 0 0 0.2 0"/>
<feBlend mode="normal" in2="BackgroundImageFix" result="effect1_dropShadow"/>
<feBlend mode="normal" in="SourceGraphic" in2="effect1_dropShadow" result="shape"/>
</filter>
<filter id="filter1_d" x="512.324" y="560.133" width="19.1356" height="18.4718" filterUnits="userSpaceOnUse" color-interpolation-filters="sRGB">
<feFlood flood-opacity="0" result="BackgroundImageFix"/>
<feColorMatrix in="SourceAlpha" type="matrix" values="0 0 0 0 0 0 0 0 0 0 0 0 0 0 0 0 0 0 127 0"/>
<feOffset dy="4"/>
<feGaussianBlur stdDeviation="2.5"/>
<feColorMatrix type="matrix" values="0 0 0 0 0.25098 0 0 0 0 0.568627 0 0 0 0 0.423529 0 0 0 0.2 0"/>
<feBlend mode="normal" in2="BackgroundImageFix" result="effect1_dropShadow"/>
<feBlend mode="normal" in="SourceGraphic" in2="effect1_dropShadow" result="shape"/>
</filter>
<filter id="filter2_d" x="451.155" y="476.206" width="20.6356" height="19.9719" filterUnits="userSpaceOnUse" color-interpolation-filters="sRGB">
<feFlood flood-opacity="0" result="BackgroundImageFix"/>
<feColorMatrix in="SourceAlpha" type="matrix" values="0 0 0 0 0 0 0 0 0 0 0 0 0 0 0 0 0 0 127 0"/>
<feOffset dy="4"/>
<feGaussianBlur stdDeviation="2.5"/>
<feColorMatrix type="matrix" values="0 0 0 0 0.25098 0 0 0 0 0.568627 0 0 0 0 0.423529 0 0 0 0.2 0"/>
<feBlend mode="normal" in2="BackgroundImageFix" result="effect1_dropShadow"/>
<feBlend mode="normal" in="SourceGraphic" in2="effect1_dropShadow" result="shape"/>
</filter>
<filter id="filter3_d" x="363.536" y="352.017" width="20.6355" height="19.9718" filterUnits="userSpaceOnUse" color-interpolation-filters="sRGB">
<feFlood flood-opacity="0" result="BackgroundImageFix"/>
<feColorMatrix in="SourceAlpha" type="matrix" values="0 0 0 0 0 0 0 0 0 0 0 0 0 0 0 0 0 0 127 0"/>
<feOffset dy="4"/>
<feGaussianBlur stdDeviation="2.5"/>
<feColorMatrix type="matrix" values="0 0 0 0 0.25098 0 0 0 0 0.568627 0 0 0 0 0.423529 0 0 0 0.2 0"/>
<feBlend mode="normal" in2="BackgroundImageFix" result="effect1_dropShadow"/>
<feBlend mode="normal" in="SourceGraphic" in2="effect1_dropShadow" result="shape"/>
</filter>
<filter id="filter4_d" x="393.85" y="271.92" width="20.6357" height="19.9717" filterUnits="userSpaceOnUse" color-interpolation-filters="sRGB">
<feFlood flood-opacity="0" result="BackgroundImageFix"/>
<feColorMatrix in="SourceAlpha" type="matrix" values="0 0 0 0 0 0 0 0 0 0 0 0 0 0 0 0 0 0 127 0"/>
<feOffset dy="4"/>
<feGaussianBlur stdDeviation="2.5"/>
<feColorMatrix type="matrix" values="0 0 0 0 0.25098 0 0 0 0 0.568627 0 0 0 0 0.423529 0 0 0 0.2 0"/>
<feBlend mode="normal" in2="BackgroundImageFix" result="effect1_dropShadow"/>
<feBlend mode="normal" in="SourceGraphic" in2="effect1_dropShadow" result="shape"/>
</filter>
<filter id="filter5_d" x="337.998" y="241.691" width="20.6355" height="19.9717" filterUnits="userSpaceOnUse" color-interpolation-filters="sRGB">
<feFlood flood-opacity="0" result="BackgroundImageFix"/>
<feColorMatrix in="SourceAlpha" type="matrix" values="0 0 0 0 0 0 0 0 0 0 0 0 0 0 0 0 0 0 127 0"/>
<feOffset dy="4"/>
<feGaussianBlur stdDeviation="2.5"/>
<feColorMatrix type="matrix" values="0 0 0 0 0.25098 0 0 0 0 0.568627 0 0 0 0 0.423529 0 0 0 0.2 0"/>
<feBlend mode="normal" in2="BackgroundImageFix" result="effect1_dropShadow"/>
<feBlend mode="normal" in="SourceGraphic" in2="effect1_dropShadow" result="shape"/>
</filter>
<filter id="filter6_d" x="495.379" y="265.951" width="20.6356" height="19.9717" filterUnits="userSpaceOnUse" color-interpolation-filters="sRGB">
<feFlood flood-opacity="0" result="BackgroundImageFix"/>
<feColorMatrix in="SourceAlpha" type="matrix" values="0 0 0 0 0 0 0 0 0 0 0 0 0 0 0 0 0 0 127 0"/>
<feOffset dy="4"/>
<feGaussianBlur stdDeviation="2.5"/>
<feColorMatrix type="matrix" values="0 0 0 0 0.25098 0 0 0 0 0.568627 0 0 0 0 0.423529 0 0 0 0.2 0"/>
<feBlend mode="normal" in2="BackgroundImageFix" result="effect1_dropShadow"/>
<feBlend mode="normal" in="SourceGraphic" in2="effect1_dropShadow" result="shape"/>
</filter>
<filter id="filter7_d" x="593.171" y="522.223" width="20.6354" height="19.9718" filterUnits="userSpaceOnUse" color-interpolation-filters="sRGB">
<feFlood flood-opacity="0" result="BackgroundImageFix"/>
<feColorMatrix in="SourceAlpha" type="matrix" values="0 0 0 0 0 0 0 0 0 0 0 0 0 0 0 0 0 0 127 0"/>
<feOffset dy="4"/>
<feGaussianBlur stdDeviation="2.5"/>
<feColorMatrix type="matrix" values="0 0 0 0 0.25098 0 0 0 0 0.568627 0 0 0 0 0.423529 0 0 0 0.2 0"/>
<feBlend mode="normal" in2="BackgroundImageFix" result="effect1_dropShadow"/>
<feBlend mode="normal" in="SourceGraphic" in2="effect1_dropShadow" result="shape"/>
</filter>
<filter id="filter8_d" x="448.248" y="394.569" width="26.4492" height="26.9033" filterUnits="userSpaceOnUse" color-interpolation-filters="sRGB">
<feFlood flood-opacity="0" result="BackgroundImageFix"/>
<feColorMatrix in="SourceAlpha" type="matrix" values="0 0 0 0 0 0 0 0 0 0 0 0 0 0 0 0 0 0 127 0"/>
<feOffset dy="4"/>
<feGaussianBlur stdDeviation="2.5"/>
<feColorMatrix type="matrix" values="0 0 0 0 0.25098 0 0 0 0 0.568627 0 0 0 0 0.423529 0 0 0 0.2 0"/>
<feBlend mode="normal" in2="BackgroundImageFix" result="effect1_dropShadow"/>
<feBlend mode="normal" in="SourceGraphic" in2="effect1_dropShadow" result="shape"/>
</filter>
<filter id="filter9_d" x="461.04" y="479.094" width="142.673" height="58.8651" filterUnits="userSpaceOnUse" color-interpolation-filters="sRGB">
<feFlood flood-opacity="0" result="BackgroundImageFix"/>
<feColorMatrix in="SourceAlpha" type="matrix" values="0 0 0 0 0 0 0 0 0 0 0 0 0 0 0 0 0 0 127 0"/>
<feOffset dy="4"/>
<feGaussianBlur stdDeviation="2.5"/>
<feColorMatrix type="matrix" values="0 0 0 0 0.25098 0 0 0 0 0.568627 0 0 0 0 0.423529 0 0 0 0.2 0"/>
<feBlend mode="normal" in2="BackgroundImageFix" result="effect1_dropShadow"/>
<feBlend mode="normal" in="SourceGraphic" in2="effect1_dropShadow" result="shape"/>
</filter>
<filter id="filter10_d" x="346.727" y="248.846" width="60.4291" height="35.3631" filterUnits="userSpaceOnUse" color-interpolation-filters="sRGB">
<feFlood flood-opacity="0" result="BackgroundImageFix"/>
<feColorMatrix in="SourceAlpha" type="matrix" values="0 0 0 0 0 0 0 0 0 0 0 0 0 0 0 0 0 0 127 0"/>
<feOffset dy="4"/>
<feGaussianBlur stdDeviation="2.5"/>
<feColorMatrix type="matrix" values="0 0 0 0 0.25098 0 0 0 0 0.568627 0 0 0 0 0.423529 0 0 0 0.2 0"/>
<feBlend mode="normal" in2="BackgroundImageFix" result="effect1_dropShadow"/>
<feBlend mode="normal" in="SourceGraphic" in2="effect1_dropShadow" result="shape"/>
</filter>
<filter id="filter11_d" x="373.63" y="275.366" width="137.817" height="92.3872" filterUnits="userSpaceOnUse" color-interpolation-filters="sRGB">
<feFlood flood-opacity="0" result="BackgroundImageFix"/>
<feColorMatrix in="SourceAlpha" type="matrix" values="0 0 0 0 0 0 0 0 0 0 0 0 0 0 0 0 0 0 127 0"/>
<feOffset dy="4"/>
<feGaussianBlur stdDeviation="2.5"/>
<feColorMatrix type="matrix" values="0 0 0 0 0.25098 0 0 0 0 0.568627 0 0 0 0 0.423529 0 0 0 0.2 0"/>
<feBlend mode="normal" in2="BackgroundImageFix" result="effect1_dropShadow"/>
<feBlend mode="normal" in="SourceGraphic" in2="effect1_dropShadow" result="shape"/>
</filter>
</defs>
</svg>
