<svg width="74" height="89" viewBox="0 0 74 89" fill="none" xmlns="http://www.w3.org/2000/svg">
<g filter="url(#filter0_d)">
<path d="M56.3744 21.1349V19.8446C56.3744 19.1326 55.796 18.5542 55.0841 18.5542H38.3099V13.3929H51.2131C51.702 13.3929 52.1487 13.117 52.368 12.6791C52.5872 12.2419 52.5381 11.7196 52.2451 11.3283L48.955 6.94133L52.2451 2.55436C52.5393 2.1631 52.5859 1.6408 52.368 1.20355C52.15 0.765673 51.702 0.489716 51.2131 0.489716H37.0195C36.3076 0.489716 35.7292 1.06809 35.7292 1.78004V18.5542H18.955C18.2431 18.5542 17.6647 19.1326 17.6647 19.8446V21.1349C10.5497 21.1349 4.76147 26.9231 4.76147 34.0381C4.76147 41.1531 10.5497 46.9413 17.6647 46.9413H18.7937C20.7147 52.349 24.9656 56.6471 30.3424 58.633L28.1706 72.7478H24.1163C23.4044 72.7478 22.826 73.3262 22.826 74.0381V79.1994C22.826 79.9113 23.4044 80.4897 24.1163 80.4897H49.9228C50.6347 80.4897 51.2131 79.9113 51.2131 79.1994V74.0381C51.2131 73.3262 50.6347 72.7478 49.9228 72.7478H44.5781L42.4713 59.0494C48.4258 57.2973 53.1807 52.7553 55.2453 46.9413H56.3744C63.4894 46.9413 69.2776 41.1531 69.2776 34.0381C69.2776 26.9231 63.4894 21.1349 56.3744 21.1349ZM38.3099 3.07036H48.6324L46.3101 6.16701C45.9655 6.62505 45.9655 7.25761 46.3101 7.71565L48.6324 10.8123H38.3099V3.07036ZM56.3744 28.8768C59.2209 28.8768 61.5357 31.1916 61.5357 34.0381C61.5357 36.8846 59.2209 39.1994 56.3744 39.1994V28.8768ZM12.5034 34.0381C12.5034 31.1916 14.8182 28.8768 17.6647 28.8768V39.1994C14.8182 39.1994 12.5034 36.8846 12.5034 34.0381ZM17.6647 44.3607C11.9729 44.3607 7.34212 39.7299 7.34212 34.0381C7.34212 28.3463 11.9729 23.7155 17.6647 23.7155V26.2962C13.3949 26.2962 9.92276 29.7683 9.92276 34.0381C9.92276 38.3079 13.3949 41.78 17.6647 41.78H17.7302C17.7888 42.6552 17.884 43.5208 18.056 44.3607H17.6647ZM48.6324 77.9091H25.4066V75.3284H48.6324V77.9091ZM41.9679 72.7478H30.7821L32.8386 59.3777C34.1875 59.6757 35.5837 59.8446 37.0195 59.8446C38.0156 59.8446 38.9872 59.745 39.9448 59.5995L41.9679 72.7478ZM37.0195 57.2639C27.7705 57.2639 20.2453 49.7387 20.2453 40.4897V21.1349H53.7937V40.4897C53.7937 49.7387 46.2685 57.2639 37.0195 57.2639ZM56.3744 44.3607H55.985C56.1564 43.5208 56.2515 42.6552 56.3101 41.78H56.3744C60.6442 41.78 64.1163 38.3079 64.1163 34.0381C64.1163 29.7683 60.6442 26.2962 56.3744 26.2962V23.7155C62.0662 23.7155 66.697 28.3463 66.697 34.0381C66.697 39.7299 62.0662 44.3607 56.3744 44.3607Z" fill="white"/>
<path d="M50.2776 34.0885L41.7916 31.6641L38.1745 24.4306C37.7373 23.5555 36.3033 23.5555 35.8661 24.4306L32.2496 31.6641L23.763 34.0885C23.252 34.234 22.8816 34.6795 22.8324 35.21C22.7833 35.7398 23.0649 36.2458 23.54 36.4833L30.3242 39.8754L28.0378 47.8782C27.8973 48.3696 28.0611 48.8989 28.4543 49.2252C28.8481 49.5503 29.3975 49.6133 29.8561 49.3865L37.0197 45.8035L44.1851 49.3852C44.3666 49.4766 44.5657 49.522 44.7616 49.522C45.0571 49.522 45.3501 49.4199 45.5863 49.2252C45.9795 48.8989 46.1433 48.3696 46.0028 47.8782L43.7164 39.8754L50.5013 36.4833C50.977 36.2445 51.2573 35.7386 51.2082 35.21C51.159 34.6795 50.7886 34.234 50.2776 34.0885ZM41.6045 38.0445C41.0494 38.3217 40.7709 38.9568 40.941 39.5528L42.7152 45.7644L37.5962 43.2058C37.416 43.1157 37.2169 43.0703 37.0197 43.0703C36.8225 43.0703 36.6234 43.1157 36.4432 43.2058L31.3241 45.7644L33.0983 39.5528C33.2684 38.9556 32.9899 38.3217 32.4349 38.0445L27.6598 35.6573L33.5022 33.9877C33.8506 33.8881 34.1398 33.6468 34.3023 33.3243L37.0197 27.8908L39.7358 33.3243C39.8971 33.6468 40.1875 33.8881 40.5359 33.9877L46.3783 35.6573L41.6045 38.0445Z" fill="white"/>
</g>
<defs>
<filter id="filter0_d" x="0.761475" y="0.489716" width="72.5161" height="88" filterUnits="userSpaceOnUse" color-interpolation-filters="sRGB">
<feFlood flood-opacity="0" result="BackgroundImageFix"/>
<feColorMatrix in="SourceAlpha" type="matrix" values="0 0 0 0 0 0 0 0 0 0 0 0 0 0 0 0 0 0 127 0"/>
<feOffset dy="4"/>
<feGaussianBlur stdDeviation="2"/>
<feColorMatrix type="matrix" values="0 0 0 0 0 0 0 0 0 0 0 0 0 0 0 0 0 0 0.1 0"/>
<feBlend mode="normal" in2="BackgroundImageFix" result="effect1_dropShadow"/>
<feBlend mode="normal" in="SourceGraphic" in2="effect1_dropShadow" result="shape"/>
</filter>
</defs>
</svg>
