<svg width="50" height="50" viewBox="0 0 50 50" fill="none" xmlns="http://www.w3.org/2000/svg">
<path d="M48.055 42.6233H46.662V18.4584C46.662 16.8659 45.4269 15.5703 43.9086 15.5703H36.8059V12.8777C36.8059 12.1661 36.4967 11.5288 36.012 11.1056C35.7826 4.94519 30.9223 0 25 0C19.0776 0 14.2174 4.94519 13.9879 11.1056C13.5032 11.5288 13.194 12.166 13.194 12.8777V15.5703H6.0913C4.57304 15.5703 3.33798 16.8659 3.33798 18.4584V42.6233H1.94492C0.872557 42.6233 0 43.5386 0 44.6634C0 47.6061 2.28222 50 5.08759 50H44.9124C47.7178 50 50 47.606 50 44.6634C49.9999 43.5386 49.1273 42.6233 48.055 42.6233ZM45.1972 18.4584V42.6233H42.7557V39.3164V21.8432C42.7557 20.6437 41.8253 19.6678 40.6818 19.6678H38.7434C38.3388 19.6678 38.011 20.0117 38.011 20.436C38.011 20.8603 38.3388 21.2043 38.7434 21.2043H40.6818C41.0176 21.2043 41.2908 21.4909 41.2908 21.8432V33.3541C39.6453 30.2264 36.7385 27.8933 33.2145 27.1746C30.6334 26.4564 30.6148 26.5321 30.2934 26.3023L32.3636 25.5717C34.554 24.7988 36.0251 22.6507 36.0243 20.2265C36.0243 17.5422 36.0243 17.9817 36.0243 17.6789C36.2076 17.5164 36.3656 17.3233 36.4903 17.1068H43.9085C44.6192 17.1068 45.1972 17.7131 45.1972 18.4584ZM37.3551 42.6233V40.4365C37.3551 40.0122 37.0273 39.6682 36.6227 39.6682C36.2181 39.6682 35.8903 40.0122 35.8903 40.4365V42.6233H30.3864C31.0569 37.741 30.9923 32.8096 30.1963 27.9454C30.3305 27.9901 32.8966 28.6751 32.9154 28.6789C37.7685 29.6586 41.2909 34.1323 41.2909 39.3165V42.6234H37.3551V42.6233ZM13.3772 39.6682C12.9726 39.6682 12.6448 40.0122 12.6448 40.4365V42.6233H8.70907V39.3164C8.70907 34.1323 12.2314 29.6585 17.0846 28.6788C17.1024 28.6752 19.6714 27.9894 19.8033 27.9453C19.4344 30.2014 19.2193 32.5014 19.1673 34.7887C19.1577 35.2129 19.4778 35.565 19.8821 35.5751C19.888 35.5752 19.8939 35.5753 19.9 35.5753C20.2963 35.5753 20.6222 35.2433 20.6318 34.8254C20.6509 33.9816 20.6935 33.136 20.7578 32.2916C23.4621 33.4223 26.5325 33.4248 29.2421 32.2916C29.5044 35.7328 29.3921 39.1909 28.9047 42.6232H21.0933C20.8932 41.2117 20.755 39.7803 20.6821 38.3586C20.6603 37.9348 20.3127 37.6097 19.9114 37.6327C19.5074 37.6556 19.1975 38.0175 19.2193 38.4412C19.2908 39.8349 19.4238 41.2375 19.6137 42.6232H14.1096V40.4364C14.1096 40.0122 13.7818 39.6682 13.3772 39.6682ZM34.608 12.1088C35.0122 12.1088 35.341 12.4537 35.341 12.8776V15.918C35.341 16.342 35.0122 16.6868 34.608 16.6868H33.0531C33.0631 16.5344 33.0694 16.3813 33.0715 16.2277C33.0716 16.2238 33.0716 16.2199 33.0716 16.2161V12.1088H34.608ZM21.3014 27.8672L21.5451 26.4054C21.6854 25.5633 21.756 24.7102 21.756 23.8553C22.7661 24.3206 23.8653 24.5675 25.0001 24.5675C26.1282 24.5675 27.2281 24.3236 28.2441 23.8545C28.2441 24.7099 28.3147 25.5636 28.4551 26.4061L28.6986 27.8671C28.8589 28.8051 28.9906 29.7459 29.0945 30.6884C26.5013 31.9087 23.5023 31.9098 20.9075 30.6893C21.0114 29.7432 21.1419 28.8009 21.3014 27.8672ZM32.8141 18.2234H34.559L34.5592 18.7532C34.5546 19.7433 33.7858 20.5473 32.841 20.5473H31.8683C32.2922 19.8276 32.6112 19.0443 32.8141 18.2234ZM28.6685 21.7825H26.7958C26.4864 21.7825 26.2346 21.5185 26.2346 21.1938C26.2346 20.8692 26.4864 20.6051 26.7958 20.6051H28.6685C28.9779 20.6051 29.2296 20.8692 29.2296 21.1938C29.2296 21.5155 28.979 21.7825 28.6685 21.7825ZM29.7088 24.8875V23.0141C29.9522 22.8605 30.6714 22.1225 30.7082 22.0838H32.8409C33.3642 22.0838 33.858 21.9498 34.2941 21.7141C33.8827 22.8249 33.0201 23.7191 31.8965 24.1155L29.7088 24.8875ZM31.6068 16.21C31.5854 17.6165 31.1568 18.965 30.398 20.0926C30.0421 19.4799 29.4011 19.0686 28.6685 19.0686H26.7958C25.6787 19.0686 24.7698 20.022 24.7698 21.1938C24.7698 21.9499 25.1493 22.6132 25.7177 22.99C25.4805 23.0169 25.2411 23.0309 25 23.0309C23.2431 23.0309 21.5927 22.3096 20.3609 21.0352C19.0932 19.7235 18.4201 17.9894 18.3931 16.21V12.1088H19.7434C23.6593 12.1088 26.7141 10.6516 28.4334 7.9863C28.9036 9.14495 29.8301 10.7098 31.6068 11.7966V16.21ZM16.9284 16.2277C16.9306 16.3815 16.9376 16.5345 16.9475 16.6868H15.392C14.9878 16.6868 14.659 16.3419 14.659 15.918V12.8776C14.659 12.4536 14.9878 12.1088 15.392 12.1088H16.9283V16.2161C16.9283 16.22 16.9283 16.2239 16.9284 16.2277ZM15.4409 18.2234H17.1838C17.5443 19.6925 18.2774 21.0378 19.3323 22.1292C19.6333 22.4406 19.9544 22.7231 20.2911 22.9779V24.8875L18.1034 24.1154C16.51 23.5531 15.4398 21.9905 15.4403 20.227L15.4409 18.2234ZM20.4632 44.1598C20.4639 44.1598 20.4646 44.1599 20.4654 44.1599C20.4658 44.1599 20.4662 44.1598 20.4666 44.1598H29.5334C29.5338 44.1598 29.5342 44.1599 29.5346 44.1599C29.5353 44.1599 29.536 44.1598 29.5368 44.1598H31.5251C31.2293 44.9675 30.4841 45.5434 29.6112 45.5434H20.3887C19.5159 45.5434 18.7706 44.9675 18.4748 44.1598H20.4632ZM25 1.53654C29.9435 1.53654 34.0335 5.51022 34.5096 10.5723H32.5201C30.734 9.55961 29.9337 7.97564 29.5766 6.80972C29.44 6.36331 29.0645 6.04514 28.62 5.99915C28.1741 5.95305 27.7455 6.18896 27.5277 6.60014C26.1708 9.16165 23.4063 10.5723 19.7433 10.5723C18.2691 10.5723 17.0044 10.5723 15.4902 10.5723C15.9664 5.51032 20.0564 1.53654 25 1.53654ZM4.80282 18.4584C4.80282 17.7132 5.38085 17.1069 6.0913 17.1069H13.5095C13.6344 17.3236 13.7926 17.517 13.9762 17.6796L13.9755 20.2265C13.9747 22.6508 15.4459 24.7989 17.6362 25.5718L19.7063 26.3023C19.3331 26.5691 18.2348 26.7714 16.7855 27.1747C13.2615 27.8933 10.3546 30.2265 8.70907 33.3542V21.8432C8.70907 21.4909 8.98231 21.2043 9.31815 21.2043H11.284C11.6886 21.2043 12.0164 20.8603 12.0164 20.436C12.0164 20.0117 11.6886 19.6678 11.284 19.6678H9.31815C8.17459 19.6678 7.24422 20.6437 7.24422 21.8432V39.3165V42.6234H4.80282V18.4584ZM44.9123 48.4636H5.08759C3.09003 48.4636 1.46484 46.7588 1.46484 44.6634C1.46484 44.3857 1.68017 44.1597 1.94492 44.1597H16.9498C17.2878 45.8259 18.701 47.0799 20.3888 47.0799H29.6113C31.2991 47.0799 32.7123 45.8259 33.0503 44.1597H48.0552C48.3199 44.1597 48.5353 44.3857 48.5353 44.6634C48.5351 46.7588 46.9099 48.4636 44.9123 48.4636Z" fill="#40916C"/>
<path d="M37.0443 33.5504H33.858C33.0082 33.5504 32.3168 34.2757 32.3168 35.167V36.59C32.3168 37.4814 33.0082 38.2066 33.858 38.2066H37.0443C37.8941 38.2066 38.5854 37.4814 38.5854 36.59V35.167C38.5854 34.2756 37.8941 33.5504 37.0443 33.5504ZM37.1206 36.59C37.1206 36.6341 37.0863 36.6701 37.0443 36.6701H33.858C33.8158 36.6701 33.7816 36.6341 33.7816 36.59V35.167C33.7816 35.1228 33.8159 35.087 33.858 35.087H37.0443C37.0864 35.087 37.1206 35.1229 37.1206 35.167V36.59Z" fill="#40916C"/>
<path fill-rule="evenodd" clip-rule="evenodd" d="M33.5937 42.9263H16.3086C16.3086 43.4696 16.4094 43.9883 16.5925 44.4628C17.172 45.9644 18.5755 47.0237 20.2148 47.0237H29.6875C31.3268 47.0237 32.7303 45.9644 33.3098 44.4628C33.4929 43.9883 33.5937 43.4696 33.5937 42.9263ZM31.2988 44.4628H18.6523C19.0978 45.0848 19.4161 45.4872 20.2148 45.4872H29.6875C30.4862 45.4872 30.8534 45.0848 31.2988 44.4628Z" fill="black"/>
<path fill-rule="evenodd" clip-rule="evenodd" d="M48.5351 44.2582H1.46484V44.8713C1.46484 46.8518 2.99512 48.4574 4.8828 48.4574H45.1171C47.0048 48.4574 48.5351 46.8518 48.5351 44.8713V44.2582ZM0 42.7213V44.8713C0 47.7006 2.18611 49.9943 4.8828 49.9943H45.1171C47.8138 49.9943 49.9999 47.7006 49.9999 44.8713V42.7213H0Z" fill="black"/>
<path fill-rule="evenodd" clip-rule="evenodd" d="M8.97578 21.4047C8.70767 21.6379 8.60227 22.0293 8.63969 22.4742L8.64253 22.5079V42.824H7.17769V22.5734C7.12508 21.8604 7.27201 20.8905 8.04072 20.2216C8.81949 19.5441 10.0245 19.3625 11.6799 19.7424L11.3669 21.2438C9.89729 20.9065 9.24681 21.1689 8.97578 21.4047Z" fill="black"/>
<path d="M12.0605 20.6464C11.9771 21.0616 11.621 21.3635 11.0427 21.1785C11.2067 20.2726 11.1103 20.8419 11.1937 20.4267C11.277 20.0115 11.2339 20.2263 11.3446 19.675C12.0605 19.7245 12.1439 20.2312 12.0605 20.6464Z" fill="black"/>
<path fill-rule="evenodd" clip-rule="evenodd" d="M41.0369 21.4193C41.305 21.6526 41.4104 22.044 41.373 22.4889L41.3702 22.5226V42.8387H42.835V22.588C42.8876 21.8751 42.7407 20.9051 41.972 20.2363C41.1932 19.5587 39.9882 19.3772 38.3328 19.757L38.6458 21.2584C40.1154 20.9212 40.7659 21.1835 41.0369 21.4193Z" fill="black"/>
<path d="M37.9522 20.6611C38.0356 21.0763 38.3917 21.3781 38.97 21.1932C38.806 20.2872 38.9024 20.8566 38.819 20.4414C38.7356 20.0262 38.7788 20.2409 38.6681 19.6896C37.9522 19.7391 37.8688 20.2459 37.9522 20.6611Z" fill="black"/>
<path d="M3.8125 43V19C3.8125 18 3.8125 16 6.67187 16L13.3437 16" stroke="black" stroke-width="1.9"/>
<path d="M45.7499 43V19C45.7499 18 45.7499 16 42.8905 16L36.6952 16" stroke="black" stroke-width="1.9"/>
</svg>
