<svg width="42" height="30" viewBox="0 0 42 30" fill="none" xmlns="http://www.w3.org/2000/svg">
<path d="M38.5 0.416832L29.75 0.416832L25.4113 9.09414C24.4284 11.06 23.9166 13.2278 23.9166 15.4257V20.8335C23.9166 25.666 27.8341 29.5835 32.6666 29.5835V29.5835C37.4991 29.5835 41.4166 25.666 41.4166 20.8335V20.8335C41.4166 16.001 37.4991 12.0835 32.6666 12.0835V12.0835L38.5 0.416832ZM15.1666 0.416832L6.41662 0.416832L2.07796 9.09414C1.09502 11.06 0.583286 13.2278 0.583286 15.4257L0.583286 20.8335C0.583286 25.666 4.5008 29.5835 9.33329 29.5835V29.5835C14.1658 29.5835 18.0833 25.666 18.0833 20.8335V20.8335C18.0833 16.001 14.1658 12.0835 9.33329 12.0835V12.0835L15.1666 0.416832Z" fill="#40916C" fill-opacity="0.1"/>
</svg>
