<svg width="42" height="30" viewBox="0 0 42 30" fill="none" xmlns="http://www.w3.org/2000/svg">
<path d="M3.8477 29.6193H12.5977L16.9364 20.942C17.9193 18.9761 18.431 16.8084 18.431 14.6104V9.20264C18.431 4.37015 14.5135 0.452637 9.68103 0.452637C4.84854 0.452637 0.93103 4.37014 0.93103 9.20264C0.93103 14.0351 4.84854 17.9526 9.68103 17.9526L3.8477 29.6193ZM27.181 29.6193H35.931L40.2697 20.942C41.2526 18.9761 41.7644 16.8084 41.7644 14.6104V9.20264C41.7644 4.37015 37.8469 0.452637 33.0144 0.452637C28.1819 0.452637 24.2644 4.37014 24.2644 9.20264C24.2644 14.0351 28.1819 17.9526 33.0144 17.9526L27.181 29.6193Z" fill="#40916C" fill-opacity="0.1"/>
</svg>
