<svg width="70" height="70" viewBox="0 0 70 70" fill="none" xmlns="http://www.w3.org/2000/svg">
<g opacity="0.1">
<path d="M52.5 20.4168L43.75 20.4168L39.4113 29.0941C38.4284 31.06 37.9166 33.2278 37.9166 35.4257V40.8335C37.9166 45.666 41.8341 49.5835 46.6666 49.5835C51.4991 49.5835 55.4166 45.666 55.4166 40.8335C55.4166 36.001 51.4991 32.0835 46.6666 32.0835L52.5 20.4168ZM29.1666 20.4168L20.4166 20.4168L16.078 29.0941C15.095 31.06 14.5833 33.2278 14.5833 35.4257L14.5833 40.8335C14.5833 45.666 18.5008 49.5835 23.3333 49.5835C28.1658 49.5835 32.0833 45.666 32.0833 40.8335C32.0833 36.001 28.1658 32.0835 23.3333 32.0835L29.1666 20.4168Z" fill="#40916C"/>
</g>
</svg>
