<svg width="71" height="71" viewBox="0 0 71 71" fill="none" xmlns="http://www.w3.org/2000/svg">
<g opacity="0.1">
<path d="M17.8477 49.6193H26.5977L30.9364 40.942C31.9193 38.9761 32.431 36.8084 32.431 34.6104V29.2026C32.431 24.3701 28.5135 20.4526 23.681 20.4526V20.4526C18.8485 20.4526 14.931 24.3701 14.931 29.2026V29.2026C14.931 34.0351 18.8485 37.9526 23.681 37.9526V37.9526L17.8477 49.6193ZM41.181 49.6193H49.931L54.2697 40.942C55.2526 38.9761 55.7644 36.8084 55.7644 34.6104V29.2026C55.7644 24.3701 51.8469 20.4526 47.0144 20.4526V20.4526C42.1819 20.4526 38.2644 24.3701 38.2644 29.2026V29.2026C38.2644 34.0351 42.1819 37.9526 47.0144 37.9526V37.9526L41.181 49.6193Z" fill="#40916C"/>
</g>
</svg>
